<?xml version="1.0" encoding="UTF-8" standalone="no"?><svg xmlns="http://www.w3.org/2000/svg" xmlns:xlink="http://www.w3.org/1999/xlink" contentScriptType="application/ecmascript" contentStyleType="text/css" height="542px" preserveAspectRatio="none" style="width:803px;height:542px;" version="1.1" viewBox="0 0 803 542" width="803px" zoomAndPan="magnify"><defs><filter height="300%" id="f11ndo5aoc6649" width="300%" x="-1" y="-1"><feGaussianBlur result="blurOut" stdDeviation="2.0"/><feColorMatrix in="blurOut" result="blurOut2" type="matrix" values="0 0 0 0 0 0 0 0 0 0 0 0 0 0 0 0 0 0 .4 0"/><feOffset dx="4.0" dy="4.0" in="blurOut2" result="blurOut3"/><feBlend in="SourceGraphic" in2="blurOut3" mode="normal"/></filter></defs><g><!--MD5=[e17bd019cf9874112af63a52ea874b62]
class Keyboard--><rect codeLine="1" fill="#FEFECE" filter="url(#f11ndo5aoc6649)" height="120.8281" id="Keyboard" style="stroke:#A80036;stroke-width:1.5;" width="181" x="429.5" y="7"/><ellipse cx="486.25" cy="23" fill="#ADD1B2" rx="11" ry="11" style="stroke:#A80036;stroke-width:1.0;"/><path d="M488.5938,18.6719 C487.6563,18.2344 487.0625,18.0938 486.1875,18.0938 C483.5625,18.0938 481.5625,20.1719 481.5625,22.8906 L481.5625,24.0156 C481.5625,26.5938 483.6719,28.4844 486.5625,28.4844 C487.7813,28.4844 488.9375,28.1875 489.6875,27.6406 C490.2656,27.2344 490.5938,26.7813 490.5938,26.3906 C490.5938,25.9375 490.2031,25.5469 489.7344,25.5469 C489.5156,25.5469 489.3125,25.625 489.125,25.8125 C488.6719,26.2969 488.6719,26.2969 488.4844,26.3906 C488.0625,26.6563 487.375,26.7813 486.6094,26.7813 C484.5625,26.7813 483.2656,25.6875 483.2656,23.9844 L483.2656,22.8906 C483.2656,21.1094 484.5156,19.7969 486.25,19.7969 C486.8281,19.7969 487.4375,19.9531 487.9063,20.2031 C488.3906,20.4844 488.5625,20.7031 488.6563,21.1094 C488.7188,21.5156 488.75,21.6406 488.8906,21.7656 C489.0313,21.9063 489.2656,22.0156 489.4844,22.0156 C489.75,22.0156 490.0156,21.875 490.1875,21.6563 C490.2969,21.5 490.3281,21.3125 490.3281,20.8906 L490.3281,19.4688 C490.3281,19.0313 490.3125,18.9063 490.2188,18.75 C490.0625,18.4844 489.7813,18.3438 489.4844,18.3438 C489.1875,18.3438 488.9844,18.4375 488.7656,18.75 L488.5938,18.6719 Z " fill="#000000"/><text fill="#000000" font-family="sans-serif" font-size="12" lengthAdjust="spacing" textLength="59" x="506.75" y="27.1543">Keyboard</text><line style="stroke:#A80036;stroke-width:1.5;" x1="430.5" x2="609.5" y1="39" y2="39"/><ellipse cx="440.5" cy="50" fill="#84BE84" rx="3" ry="3" style="stroke:#038048;stroke-width:1.0;"/><text fill="#000000" font-family="sans-serif" font-size="11" lengthAdjust="spacing" textLength="111" x="449.5" y="53.2104">Keyboard(validator)</text><ellipse cx="440.5" cy="62.8047" fill="#84BE84" rx="3" ry="3" style="stroke:#038048;stroke-width:1.0;"/><text fill="#000000" font-family="sans-serif" font-size="11" lengthAdjust="spacing" textLength="63" x="449.5" y="66.0151">drawKeys()</text><rect fill="#F24D5C" height="6" style="stroke:#C82930;stroke-width:1.0;" width="6" x="437.5" y="89.4141"/><text fill="#000000" font-family="sans-serif" font-size="11" lengthAdjust="spacing" textLength="73" x="449.5" y="95.6245">createKeys()</text><rect fill="#F24D5C" height="6" style="stroke:#C82930;stroke-width:1.0;" width="6" x="437.5" y="102.2188"/><text fill="#000000" font-family="sans-serif" font-size="11" lengthAdjust="spacing" textLength="155" x="449.5" y="108.4292">setOnClickHandler(handler)</text><rect fill="none" height="6" style="stroke:#C82930;stroke-width:1.0;" width="6" x="437.5" y="115.0234"/><text fill="#000000" font-family="sans-serif" font-size="11" lengthAdjust="spacing" textLength="78" x="449.5" y="121.2339">figures: char[]</text><line style="stroke:#A80036;stroke-width:1.5;" x1="430.5" x2="500" y1="79.0117" y2="79.0117"/><text fill="#000000" font-family="sans-serif" font-size="11" lengthAdjust="spacing" textLength="40" x="500" y="82.3198">private</text><line style="stroke:#A80036;stroke-width:1.5;" x1="540" x2="609.5" y1="79.0117" y2="79.0117"/><!--MD5=[2086e18d236f9616263f91fe5276f8cf]
class Key--><rect codeLine="10" fill="#FEFECE" filter="url(#f11ndo5aoc6649)" height="133.6328" id="Key" style="stroke:#A80036;stroke-width:1.5;" width="258" x="386" y="188"/><ellipse cx="499.25" cy="204" fill="#ADD1B2" rx="11" ry="11" style="stroke:#A80036;stroke-width:1.0;"/><path d="M501.5938,199.6719 C500.6563,199.2344 500.0625,199.0938 499.1875,199.0938 C496.5625,199.0938 494.5625,201.1719 494.5625,203.8906 L494.5625,205.0156 C494.5625,207.5938 496.6719,209.4844 499.5625,209.4844 C500.7813,209.4844 501.9375,209.1875 502.6875,208.6406 C503.2656,208.2344 503.5938,207.7813 503.5938,207.3906 C503.5938,206.9375 503.2031,206.5469 502.7344,206.5469 C502.5156,206.5469 502.3125,206.625 502.125,206.8125 C501.6719,207.2969 501.6719,207.2969 501.4844,207.3906 C501.0625,207.6563 500.375,207.7813 499.6094,207.7813 C497.5625,207.7813 496.2656,206.6875 496.2656,204.9844 L496.2656,203.8906 C496.2656,202.1094 497.5156,200.7969 499.25,200.7969 C499.8281,200.7969 500.4375,200.9531 500.9063,201.2031 C501.3906,201.4844 501.5625,201.7031 501.6563,202.1094 C501.7188,202.5156 501.75,202.6406 501.8906,202.7656 C502.0313,202.9063 502.2656,203.0156 502.4844,203.0156 C502.75,203.0156 503.0156,202.875 503.1875,202.6563 C503.2969,202.5 503.3281,202.3125 503.3281,201.8906 L503.3281,200.4688 C503.3281,200.0313 503.3125,199.9063 503.2188,199.75 C503.0625,199.4844 502.7813,199.3438 502.4844,199.3438 C502.1875,199.3438 501.9844,199.4375 501.7656,199.75 L501.5938,199.6719 Z " fill="#000000"/><text fill="#000000" font-family="sans-serif" font-size="12" lengthAdjust="spacing" textLength="23" x="519.75" y="208.1543">Key</text><line style="stroke:#A80036;stroke-width:1.5;" x1="387" x2="643" y1="220" y2="220"/><ellipse cx="397" cy="231" fill="#84BE84" rx="3" ry="3" style="stroke:#038048;stroke-width:1.0;"/><text fill="#000000" font-family="sans-serif" font-size="11" lengthAdjust="spacing" textLength="232" x="406" y="234.2104">Key(figure: char, alphabet: HtmlElement)</text><ellipse cx="397" cy="243.8047" fill="#84BE84" rx="3" ry="3" style="stroke:#038048;stroke-width:1.0;"/><text fill="#000000" font-family="sans-serif" font-size="11" lengthAdjust="spacing" textLength="155" x="406" y="247.0151">setOnClickHandler(handler)</text><rect fill="#F24D5C" height="6" style="stroke:#C82930;stroke-width:1.0;" width="6" x="394" y="270.4141"/><text fill="#000000" font-family="sans-serif" font-size="11" lengthAdjust="spacing" textLength="134" x="406" y="276.6245">markFigure(result: bool)</text><rect fill="#F24D5C" height="6" style="stroke:#C82930;stroke-width:1.0;" width="6" x="394" y="283.2188"/><text fill="#000000" font-family="sans-serif" font-size="11" lengthAdjust="spacing" textLength="48" x="406" y="289.4292">onClick()</text><rect fill="none" height="6" style="stroke:#C82930;stroke-width:1.0;" width="6" x="394" y="296.0234"/><text fill="#000000" font-family="sans-serif" font-size="11" lengthAdjust="spacing" textLength="64" x="406" y="302.2339">figure: char</text><rect fill="none" height="6" style="stroke:#C82930;stroke-width:1.0;" width="6" x="394" y="308.8281"/><text fill="#000000" font-family="sans-serif" font-size="11" lengthAdjust="spacing" textLength="98" x="406" y="315.0386">div: HtmlElement</text><line style="stroke:#A80036;stroke-width:1.5;" x1="387" x2="495" y1="260.0117" y2="260.0117"/><text fill="#000000" font-family="sans-serif" font-size="11" lengthAdjust="spacing" textLength="40" x="495" y="263.3198">private</text><line style="stroke:#A80036;stroke-width:1.5;" x1="535" x2="643" y1="260.0117" y2="260.0117"/><!--MD5=[967052889fc238d8b6fa0fa3a935a975]
class Cutting--><rect codeLine="19" fill="#FEFECE" filter="url(#f11ndo5aoc6649)" height="60.8047" id="Cutting" style="stroke:#A80036;stroke-width:1.5;" width="110" x="679" y="224.5"/><ellipse cx="710.65" cy="240.5" fill="#ADD1B2" rx="11" ry="11" style="stroke:#A80036;stroke-width:1.0;"/><path d="M712.9938,236.1719 C712.0563,235.7344 711.4625,235.5938 710.5875,235.5938 C707.9625,235.5938 705.9625,237.6719 705.9625,240.3906 L705.9625,241.5156 C705.9625,244.0938 708.0719,245.9844 710.9625,245.9844 C712.1813,245.9844 713.3375,245.6875 714.0875,245.1406 C714.6656,244.7344 714.9938,244.2813 714.9938,243.8906 C714.9938,243.4375 714.6031,243.0469 714.1344,243.0469 C713.9156,243.0469 713.7125,243.125 713.525,243.3125 C713.0719,243.7969 713.0719,243.7969 712.8844,243.8906 C712.4625,244.1563 711.775,244.2813 711.0094,244.2813 C708.9625,244.2813 707.6656,243.1875 707.6656,241.4844 L707.6656,240.3906 C707.6656,238.6094 708.9156,237.2969 710.65,237.2969 C711.2281,237.2969 711.8375,237.4531 712.3063,237.7031 C712.7906,237.9844 712.9625,238.2031 713.0563,238.6094 C713.1188,239.0156 713.15,239.1406 713.2906,239.2656 C713.4313,239.4063 713.6656,239.5156 713.8844,239.5156 C714.15,239.5156 714.4156,239.375 714.5875,239.1563 C714.6969,239 714.7281,238.8125 714.7281,238.3906 L714.7281,236.9688 C714.7281,236.5313 714.7125,236.4063 714.6188,236.25 C714.4625,235.9844 714.1813,235.8438 713.8844,235.8438 C713.5875,235.8438 713.3844,235.9375 713.1656,236.25 L712.9938,236.1719 Z " fill="#000000"/><text fill="#000000" font-family="sans-serif" font-size="12" lengthAdjust="spacing" textLength="41" x="728.35" y="244.6543">Cutting</text><line style="stroke:#A80036;stroke-width:1.5;" x1="680" x2="788" y1="256.5" y2="256.5"/><line style="stroke:#A80036;stroke-width:1.5;" x1="680" x2="788" y1="264.5" y2="264.5"/><text fill="#000000" font-family="sans-serif" font-size="11" lengthAdjust="spacing" textLength="98" x="685" y="278.7104">Cutting(alphabet)</text><!--MD5=[2f01b1126ff33a0669651ec2488a5ef9]
class Password--><rect codeLine="22" fill="#FEFECE" filter="url(#f11ndo5aoc6649)" height="146.4375" id="Password" style="stroke:#A80036;stroke-width:1.5;" width="174" x="7" y="382"/><ellipse cx="60.75" cy="398" fill="#ADD1B2" rx="11" ry="11" style="stroke:#A80036;stroke-width:1.0;"/><path d="M63.0938,393.6719 C62.1563,393.2344 61.5625,393.0938 60.6875,393.0938 C58.0625,393.0938 56.0625,395.1719 56.0625,397.8906 L56.0625,399.0156 C56.0625,401.5938 58.1719,403.4844 61.0625,403.4844 C62.2813,403.4844 63.4375,403.1875 64.1875,402.6406 C64.7656,402.2344 65.0938,401.7813 65.0938,401.3906 C65.0938,400.9375 64.7031,400.5469 64.2344,400.5469 C64.0156,400.5469 63.8125,400.625 63.625,400.8125 C63.1719,401.2969 63.1719,401.2969 62.9844,401.3906 C62.5625,401.6563 61.875,401.7813 61.1094,401.7813 C59.0625,401.7813 57.7656,400.6875 57.7656,398.9844 L57.7656,397.8906 C57.7656,396.1094 59.0156,394.7969 60.75,394.7969 C61.3281,394.7969 61.9375,394.9531 62.4063,395.2031 C62.8906,395.4844 63.0625,395.7031 63.1563,396.1094 C63.2188,396.5156 63.25,396.6406 63.3906,396.7656 C63.5313,396.9063 63.7656,397.0156 63.9844,397.0156 C64.25,397.0156 64.5156,396.875 64.6875,396.6563 C64.7969,396.5 64.8281,396.3125 64.8281,395.8906 L64.8281,394.4688 C64.8281,394.0313 64.8125,393.9063 64.7188,393.75 C64.5625,393.4844 64.2813,393.3438 63.9844,393.3438 C63.6875,393.3438 63.4844,393.4375 63.2656,393.75 L63.0938,393.6719 Z " fill="#000000"/><text fill="#000000" font-family="sans-serif" font-size="12" lengthAdjust="spacing" textLength="58" x="81.25" y="402.1543">Password</text><line style="stroke:#A80036;stroke-width:1.5;" x1="8" x2="180" y1="414" y2="414"/><ellipse cx="18" cy="425" fill="#84BE84" rx="3" ry="3" style="stroke:#038048;stroke-width:1.0;"/><text fill="#000000" font-family="sans-serif" font-size="11" lengthAdjust="spacing" textLength="60" x="27" y="428.2104">Password()</text><ellipse cx="18" cy="437.8047" fill="#84BE84" rx="3" ry="3" style="stroke:#038048;stroke-width:1.0;"/><text fill="#000000" font-family="sans-serif" font-size="11" lengthAdjust="spacing" textLength="133" x="27" y="441.0151">selectPassword(): string</text><ellipse cx="18" cy="450.6094" fill="#84BE84" rx="3" ry="3" style="stroke:#038048;stroke-width:1.0;"/><text fill="#000000" font-family="sans-serif" font-size="11" lengthAdjust="spacing" textLength="127" x="27" y="453.8198">drawHiddenPassword()</text><ellipse cx="18" cy="463.4141" fill="#84BE84" rx="3" ry="3" style="stroke:#038048;stroke-width:1.0;"/><text fill="#000000" font-family="sans-serif" font-size="11" lengthAdjust="spacing" textLength="138" x="27" y="466.6245">showFigure(figure: Char)</text><rect fill="#F24D5C" height="6" style="stroke:#C82930;stroke-width:1.0;" width="6" x="15" y="490.0234"/><text fill="#000000" font-family="sans-serif" font-size="11" lengthAdjust="spacing" textLength="27" x="27" y="496.2339">win()</text><rect fill="none" height="6" style="stroke:#C82930;stroke-width:1.0;" width="6" x="15" y="502.8281"/><text fill="#000000" font-family="sans-serif" font-size="11" lengthAdjust="spacing" textLength="103" x="27" y="509.0386">statements: string</text><rect fill="none" height="6" style="stroke:#C82930;stroke-width:1.0;" width="6" x="15" y="515.6328"/><text fill="#000000" font-family="sans-serif" font-size="11" lengthAdjust="spacing" textLength="148" x="27" y="521.8433">selectedPassword: string[]</text><line style="stroke:#A80036;stroke-width:1.5;" x1="8" x2="74" y1="479.6211" y2="479.6211"/><text fill="#000000" font-family="sans-serif" font-size="11" lengthAdjust="spacing" textLength="40" x="74" y="482.9292">private</text><line style="stroke:#A80036;stroke-width:1.5;" x1="114" x2="180" y1="479.6211" y2="479.6211"/><!--MD5=[d7731e51439e3250c63a8cdcafb59da5]
class HangMan--><rect codeLine="32" fill="#FEFECE" filter="url(#f11ndo5aoc6649)" height="95.2188" id="HangMan" style="stroke:#A80036;stroke-width:1.5;" width="124" x="221" y="407.5"/><ellipse cx="252.65" cy="423.5" fill="#ADD1B2" rx="11" ry="11" style="stroke:#A80036;stroke-width:1.0;"/><path d="M254.9938,419.1719 C254.0563,418.7344 253.4625,418.5938 252.5875,418.5938 C249.9625,418.5938 247.9625,420.6719 247.9625,423.3906 L247.9625,424.5156 C247.9625,427.0938 250.0719,428.9844 252.9625,428.9844 C254.1813,428.9844 255.3375,428.6875 256.0875,428.1406 C256.6656,427.7344 256.9938,427.2813 256.9938,426.8906 C256.9938,426.4375 256.6031,426.0469 256.1344,426.0469 C255.9156,426.0469 255.7125,426.125 255.525,426.3125 C255.0719,426.7969 255.0719,426.7969 254.8844,426.8906 C254.4625,427.1563 253.775,427.2813 253.0094,427.2813 C250.9625,427.2813 249.6656,426.1875 249.6656,424.4844 L249.6656,423.3906 C249.6656,421.6094 250.9156,420.2969 252.65,420.2969 C253.2281,420.2969 253.8375,420.4531 254.3063,420.7031 C254.7906,420.9844 254.9625,421.2031 255.0563,421.6094 C255.1188,422.0156 255.15,422.1406 255.2906,422.2656 C255.4313,422.4063 255.6656,422.5156 255.8844,422.5156 C256.15,422.5156 256.4156,422.375 256.5875,422.1563 C256.6969,422 256.7281,421.8125 256.7281,421.3906 L256.7281,419.9688 C256.7281,419.5313 256.7125,419.4063 256.6188,419.25 C256.4625,418.9844 256.1813,418.8438 255.8844,418.8438 C255.5875,418.8438 255.3844,418.9375 255.1656,419.25 L254.9938,419.1719 Z " fill="#000000"/><text fill="#000000" font-family="sans-serif" font-size="12" lengthAdjust="spacing" textLength="55" x="270.35" y="427.6543">HangMan</text><line style="stroke:#A80036;stroke-width:1.5;" x1="222" x2="344" y1="439.5" y2="439.5"/><ellipse cx="232" cy="450.5" fill="#84BE84" rx="3" ry="3" style="stroke:#038048;stroke-width:1.0;"/><text fill="#000000" font-family="sans-serif" font-size="11" lengthAdjust="spacing" textLength="60" x="241" y="453.7104">HangMan()</text><ellipse cx="232" cy="463.3047" fill="#84BE84" rx="3" ry="3" style="stroke:#038048;stroke-width:1.0;"/><text fill="#000000" font-family="sans-serif" font-size="11" lengthAdjust="spacing" textLength="98" x="241" y="466.5151">drawNextImage()</text><rect fill="#F24D5C" height="6" style="stroke:#C82930;stroke-width:1.0;" width="6" x="229" y="489.9141"/><text fill="#000000" font-family="sans-serif" font-size="11" lengthAdjust="spacing" textLength="40" x="241" y="496.1245">failed()</text><line style="stroke:#A80036;stroke-width:1.5;" x1="222" x2="263" y1="479.5117" y2="479.5117"/><text fill="#000000" font-family="sans-serif" font-size="11" lengthAdjust="spacing" textLength="40" x="263" y="482.8198">private</text><line style="stroke:#A80036;stroke-width:1.5;" x1="303" x2="344" y1="479.5117" y2="479.5117"/><!--MD5=[ca2d93c45117619035e2f39704bd7f41]
class Validator--><rect codeLine="38" fill="#FEFECE" filter="url(#f11ndo5aoc6649)" height="86.4141" id="Validator" style="stroke:#A80036;stroke-width:1.5;" width="216" x="178" y="24.5"/><ellipse cx="255.25" cy="40.5" fill="#ADD1B2" rx="11" ry="11" style="stroke:#A80036;stroke-width:1.0;"/><path d="M257.5938,36.1719 C256.6563,35.7344 256.0625,35.5938 255.1875,35.5938 C252.5625,35.5938 250.5625,37.6719 250.5625,40.3906 L250.5625,41.5156 C250.5625,44.0938 252.6719,45.9844 255.5625,45.9844 C256.7813,45.9844 257.9375,45.6875 258.6875,45.1406 C259.2656,44.7344 259.5938,44.2813 259.5938,43.8906 C259.5938,43.4375 259.2031,43.0469 258.7344,43.0469 C258.5156,43.0469 258.3125,43.125 258.125,43.3125 C257.6719,43.7969 257.6719,43.7969 257.4844,43.8906 C257.0625,44.1563 256.375,44.2813 255.6094,44.2813 C253.5625,44.2813 252.2656,43.1875 252.2656,41.4844 L252.2656,40.3906 C252.2656,38.6094 253.5156,37.2969 255.25,37.2969 C255.8281,37.2969 256.4375,37.4531 256.9063,37.7031 C257.3906,37.9844 257.5625,38.2031 257.6563,38.6094 C257.7188,39.0156 257.75,39.1406 257.8906,39.2656 C258.0313,39.4063 258.2656,39.5156 258.4844,39.5156 C258.75,39.5156 259.0156,39.375 259.1875,39.1563 C259.2969,39 259.3281,38.8125 259.3281,38.3906 L259.3281,36.9688 C259.3281,36.5313 259.3125,36.4063 259.2188,36.25 C259.0625,35.9844 258.7813,35.8438 258.4844,35.8438 C258.1875,35.8438 257.9844,35.9375 257.7656,36.25 L257.5938,36.1719 Z " fill="#000000"/><text fill="#000000" font-family="sans-serif" font-size="12" lengthAdjust="spacing" textLength="53" x="275.75" y="44.6543">Validator</text><line style="stroke:#A80036;stroke-width:1.5;" x1="179" x2="393" y1="56.5" y2="56.5"/><line style="stroke:#A80036;stroke-width:1.5;" x1="179" x2="393" y1="64.5" y2="64.5"/><ellipse cx="189" cy="75.5" fill="#84BE84" rx="3" ry="3" style="stroke:#038048;stroke-width:1.0;"/><text fill="#000000" font-family="sans-serif" font-size="11" lengthAdjust="spacing" textLength="151" x="198" y="78.7104">Validator(password: String)</text><ellipse cx="189" cy="88.3047" fill="#84BE84" rx="3" ry="3" style="stroke:#038048;stroke-width:1.0;"/><text fill="#000000" font-family="sans-serif" font-size="11" lengthAdjust="spacing" textLength="184" x="198" y="91.5151">validateFigure(figure: char): bool</text><ellipse cx="189" cy="101.1094" fill="#84BE84" rx="3" ry="3" style="stroke:#038048;stroke-width:1.0;"/><text fill="#000000" font-family="sans-serif" font-size="11" lengthAdjust="spacing" textLength="190" x="198" y="104.3198">subscribe(Action, function(figure))</text><!--MD5=[b6dcce5e5ef3c84b0b048d11301373dd]
class Game--><rect codeLine="43" fill="#FEFECE" filter="url(#f11ndo5aoc6649)" height="82.4141" id="Game" style="stroke:#A80036;stroke-width:1.5;" width="88" x="239" y="214"/><ellipse cx="263.45" cy="230" fill="#ADD1B2" rx="11" ry="11" style="stroke:#A80036;stroke-width:1.0;"/><path d="M265.7938,225.6719 C264.8563,225.2344 264.2625,225.0938 263.3875,225.0938 C260.7625,225.0938 258.7625,227.1719 258.7625,229.8906 L258.7625,231.0156 C258.7625,233.5938 260.8719,235.4844 263.7625,235.4844 C264.9813,235.4844 266.1375,235.1875 266.8875,234.6406 C267.4656,234.2344 267.7938,233.7813 267.7938,233.3906 C267.7938,232.9375 267.4031,232.5469 266.9344,232.5469 C266.7156,232.5469 266.5125,232.625 266.325,232.8125 C265.8719,233.2969 265.8719,233.2969 265.6844,233.3906 C265.2625,233.6563 264.575,233.7813 263.8094,233.7813 C261.7625,233.7813 260.4656,232.6875 260.4656,230.9844 L260.4656,229.8906 C260.4656,228.1094 261.7156,226.7969 263.45,226.7969 C264.0281,226.7969 264.6375,226.9531 265.1063,227.2031 C265.5906,227.4844 265.7625,227.7031 265.8563,228.1094 C265.9188,228.5156 265.95,228.6406 266.0906,228.7656 C266.2313,228.9063 266.4656,229.0156 266.6844,229.0156 C266.95,229.0156 267.2156,228.875 267.3875,228.6563 C267.4969,228.5 267.5281,228.3125 267.5281,227.8906 L267.5281,226.4688 C267.5281,226.0313 267.5125,225.9063 267.4188,225.75 C267.2625,225.4844 266.9813,225.3438 266.6844,225.3438 C266.3875,225.3438 266.1844,225.4375 265.9656,225.75 L265.7938,225.6719 Z " fill="#000000"/><text fill="#000000" font-family="sans-serif" font-size="12" lengthAdjust="spacing" textLength="35" x="279.55" y="234.1543">Game</text><line style="stroke:#A80036;stroke-width:1.5;" x1="240" x2="326" y1="246" y2="246"/><rect fill="#F24D5C" height="6" style="stroke:#C82930;stroke-width:1.0;" width="6" x="247" y="270.8047"/><text fill="#000000" font-family="sans-serif" font-size="11" lengthAdjust="spacing" textLength="35" x="259" y="277.0151">draw()</text><rect fill="#F24D5C" height="6" style="stroke:#C82930;stroke-width:1.0;" width="6" x="247" y="283.6094"/><text fill="#000000" font-family="sans-serif" font-size="11" lengthAdjust="spacing" textLength="62" x="259" y="289.8198">subscribe()</text><line style="stroke:#A80036;stroke-width:1.5;" x1="240" x2="263" y1="260.4023" y2="260.4023"/><text fill="#000000" font-family="sans-serif" font-size="11" lengthAdjust="spacing" textLength="40" x="263" y="263.7104">private</text><line style="stroke:#A80036;stroke-width:1.5;" x1="303" x2="326" y1="260.4023" y2="260.4023"/><!--MD5=[7c6ef8b895df9314a0380c40ae29cd9f]
class Sounds--><rect codeLine="48" fill="#FEFECE" filter="url(#f11ndo5aoc6649)" height="60.8047" id="Sounds" style="stroke:#A80036;stroke-width:1.5;" width="125" x="17.5" y="37"/><ellipse cx="54.1" cy="53" fill="#ADD1B2" rx="11" ry="11" style="stroke:#A80036;stroke-width:1.0;"/><path d="M56.4438,48.6719 C55.5063,48.2344 54.9125,48.0938 54.0375,48.0938 C51.4125,48.0938 49.4125,50.1719 49.4125,52.8906 L49.4125,54.0156 C49.4125,56.5938 51.5219,58.4844 54.4125,58.4844 C55.6313,58.4844 56.7875,58.1875 57.5375,57.6406 C58.1156,57.2344 58.4438,56.7813 58.4438,56.3906 C58.4438,55.9375 58.0531,55.5469 57.5844,55.5469 C57.3656,55.5469 57.1625,55.625 56.975,55.8125 C56.5219,56.2969 56.5219,56.2969 56.3344,56.3906 C55.9125,56.6563 55.225,56.7813 54.4594,56.7813 C52.4125,56.7813 51.1156,55.6875 51.1156,53.9844 L51.1156,52.8906 C51.1156,51.1094 52.3656,49.7969 54.1,49.7969 C54.6781,49.7969 55.2875,49.9531 55.7563,50.2031 C56.2406,50.4844 56.4125,50.7031 56.5063,51.1094 C56.5688,51.5156 56.6,51.6406 56.7406,51.7656 C56.8813,51.9063 57.1156,52.0156 57.3344,52.0156 C57.6,52.0156 57.8656,51.875 58.0375,51.6563 C58.1469,51.5 58.1781,51.3125 58.1781,50.8906 L58.1781,49.4688 C58.1781,49.0313 58.1625,48.9063 58.0688,48.75 C57.9125,48.4844 57.6313,48.3438 57.3344,48.3438 C57.0375,48.3438 56.8344,48.4375 56.6156,48.75 L56.4438,48.6719 Z " fill="#000000"/><text fill="#000000" font-family="sans-serif" font-size="12" lengthAdjust="spacing" textLength="45" x="72.9" y="57.1543">Sounds</text><line style="stroke:#A80036;stroke-width:1.5;" x1="18.5" x2="141.5" y1="69" y2="69"/><line style="stroke:#A80036;stroke-width:1.5;" x1="18.5" x2="141.5" y1="77" y2="77"/><ellipse cx="28.5" cy="88" fill="#84BE84" rx="3" ry="3" style="stroke:#038048;stroke-width:1.0;"/><text fill="#000000" font-family="sans-serif" font-size="11" lengthAdjust="spacing" textLength="99" x="37.5" y="91.2104">playEffect(sound)</text><!--MD5=[f8e7078f77c005d15b486c0c98deb1e6]
class Action--><rect codeLine="51" fill="#FEFECE" filter="url(#f11ndo5aoc6649)" height="73.6094" id="Action" style="stroke:#A80036;stroke-width:1.5;" width="69" x="645.5" y="30.5"/><ellipse cx="660.5" cy="46.5" fill="#EB937F" rx="11" ry="11" style="stroke:#A80036;stroke-width:1.0;"/><path d="M659.2969,47.375 L660.75,47.375 L660.75,47.4844 C660.75,47.8906 660.7813,48.0469 660.8594,48.2031 C661.0156,48.4531 661.2969,48.6094 661.5938,48.6094 C661.8438,48.6094 662.1094,48.4688 662.2656,48.25 C662.3906,48.0938 662.4219,47.9375 662.4219,47.4844 L662.4219,45.5625 C662.4219,45.4063 662.4219,45.3594 662.4063,45.2031 C662.3438,44.7344 662.0313,44.4219 661.5781,44.4219 C661.3281,44.4219 661.0625,44.5625 660.8906,44.7813 C660.7813,44.9531 660.75,45.1094 660.75,45.5625 L660.75,45.6875 L659.2969,45.6875 L659.2969,43.2813 L663.2813,43.2813 L663.2813,44.1406 C663.2813,44.5469 663.3125,44.7188 663.3906,44.875 C663.5625,45.125 663.8438,45.2813 664.125,45.2813 C664.3906,45.2813 664.6563,45.1406 664.8281,44.9219 C664.9375,44.75 664.9688,44.6094 664.9688,44.1406 L664.9688,41.5938 L657.3438,41.5938 C656.9063,41.5938 656.7813,41.6094 656.625,41.7031 C656.375,41.8594 656.2188,42.1563 656.2188,42.4375 C656.2188,42.7188 656.3594,42.9688 656.5781,43.1406 C656.7344,43.25 656.9219,43.2813 657.3438,43.2813 L657.5938,43.2813 L657.5938,49.7969 L657.3438,49.7969 C656.9375,49.7969 656.7813,49.8125 656.625,49.9219 C656.375,50.0938 656.2188,50.3594 656.2188,50.6563 C656.2188,50.9219 656.3594,51.1719 656.5781,51.3281 C656.7188,51.4531 656.9531,51.5 657.3438,51.5 L665.3438,51.5 L665.3438,48.9219 C665.3438,48.4844 665.3125,48.3438 665.2344,48.1875 C665.0625,47.9375 664.7813,47.7813 664.5,47.7813 C664.2344,47.7813 663.9688,47.8906 663.7969,48.1406 C663.6875,48.2969 663.6563,48.4375 663.6563,48.9219 L663.6563,49.7969 L659.2969,49.7969 L659.2969,47.375 Z " fill="#000000"/><text fill="#000000" font-family="sans-serif" font-size="12" lengthAdjust="spacing" textLength="37" x="674.5" y="50.6543">Action</text><line style="stroke:#A80036;stroke-width:1.5;" x1="646.5" x2="713.5" y1="62.5" y2="62.5"/><text fill="#000000" font-family="sans-serif" font-size="11" lengthAdjust="spacing" textLength="18" x="651.5" y="76.7104">Ok,</text><text fill="#000000" font-family="sans-serif" font-size="11" lengthAdjust="spacing" textLength="21" x="651.5" y="89.5151">Nok</text><line style="stroke:#A80036;stroke-width:1.5;" x1="646.5" x2="713.5" y1="96.1094" y2="96.1094"/><!--MD5=[d7825bf81367386fbd850c9a048c433d]
link Keyboard to Game--><path codeLine="56" d="M443.707,128.214 C409.058,155.334 368.872,186.788 337.352,211.458 " fill="none" id="Keyboard-to-Game" style="stroke:#A80036;stroke-width:1.0;"/><polygon fill="#A80036" points="327.016,219.549,334.2062,219.0007,336.4655,212.1526,329.2753,212.701,327.016,219.549" style="stroke:#A80036;stroke-width:1.0;"/><text fill="#000000" font-family="sans-serif" font-size="13" lengthAdjust="spacing" textLength="8" x="426.925" y="147.7585">1</text><text fill="#000000" font-family="sans-serif" font-size="13" lengthAdjust="spacing" textLength="8" x="334.9687" y="209.4788">1</text><!--MD5=[38c51f52bfb3790df7ea0b3d4009c380]
reverse link Keyboard to Key--><path codeLine="57" d="M518.033,141.457 C517.62,156.8 517.186,172.9 516.78,187.971 " fill="none" id="Keyboard-backto-Key" style="stroke:#A80036;stroke-width:1.0;"/><polygon fill="#A80036" points="518.39,128.214,514.2299,134.1041,518.0669,140.2096,522.227,134.3195,518.39,128.214" style="stroke:#A80036;stroke-width:1.0;"/><text fill="#000000" font-family="sans-serif" font-size="13" lengthAdjust="spacing" textLength="8" x="509.7764" y="147.7585">1</text><text fill="#000000" font-family="sans-serif" font-size="13" lengthAdjust="spacing" textLength="37" x="477.9512" y="176.9136">many</text><!--MD5=[5ba5b54094411c0aba1f5ed2d831d7fa]
reverse link Keyboard to Cutting--><path codeLine="58" d="M602.206,136.669 C621.929,153.302 642.829,171.16 662,188 C675.377,199.75 689.893,212.965 702.363,224.466 " fill="none" id="Keyboard-backto-Cutting" style="stroke:#A80036;stroke-width:1.0;"/><polygon fill="#A80036" points="592.014,128.094,594.0296,135.0177,601.1959,135.8201,599.1803,128.8964,592.014,128.094" style="stroke:#A80036;stroke-width:1.0;"/><text fill="#000000" font-family="sans-serif" font-size="13" lengthAdjust="spacing" textLength="8" x="591.8781" y="148.0519">1</text><text fill="#000000" font-family="sans-serif" font-size="13" lengthAdjust="spacing" textLength="37" x="654.3955" y="213.2488">many</text><!--MD5=[c546b7854fad86f2e7b29095c925cc3f]
reverse link Game to HangMan--><path codeLine="59" d="M283,309.122 C283,339.758 283,377.92 283,407.386 " fill="none" id="Game-backto-HangMan" style="stroke:#A80036;stroke-width:1.0;"/><polygon fill="#A80036" points="283,296.068,279,302.068,283,308.068,287,302.068,283,296.068" style="stroke:#A80036;stroke-width:1.0;"/><text fill="#000000" font-family="sans-serif" font-size="13" lengthAdjust="spacing" textLength="8" x="274.3125" y="316.4583">1</text><text fill="#000000" font-family="sans-serif" font-size="13" lengthAdjust="spacing" textLength="8" x="274.4125" y="396.3517">1</text><!--MD5=[4123e27593caebccde7473d74c8fd8a6]
reverse link Game to Password--><path codeLine="60" d="M235.613,305.643 C213.583,328.722 186.963,356.61 162.776,381.949 " fill="none" id="Game-backto-Password" style="stroke:#A80036;stroke-width:1.0;"/><polygon fill="#A80036" points="244.753,296.068,237.7166,297.6456,236.4665,304.7475,243.5029,303.1699,244.753,296.068" style="stroke:#A80036;stroke-width:1.0;"/><text fill="#000000" font-family="sans-serif" font-size="13" lengthAdjust="spacing" textLength="8" x="229.4918" y="316.4583">1</text><text fill="#000000" font-family="sans-serif" font-size="13" lengthAdjust="spacing" textLength="8" x="161.456" y="370.6934">1</text><!--MD5=[cf11d88b2b3998abb6b998c965f42061]
reverse link Game to Validator--><path codeLine="61" d="M283.859,200.89 C284.322,172.232 284.886,137.354 285.319,110.593 " fill="none" id="Game-backto-Validator" style="stroke:#A80036;stroke-width:1.0;"/><polygon fill="#A80036" points="283.647,213.981,287.7441,208.0468,283.8422,201.9826,279.7451,207.9167,283.647,213.981" style="stroke:#A80036;stroke-width:1.0;"/><text fill="#000000" font-family="sans-serif" font-size="13" lengthAdjust="spacing" textLength="8" x="275.0917" y="202.9886">1</text><text fill="#000000" font-family="sans-serif" font-size="13" lengthAdjust="spacing" textLength="8" x="276.5437" y="131.0161">1</text><!--MD5=[aebc712943f33e2cb7cdb6670b27f33b]
link Sounds to Password--><path codeLine="62" d="M81.0753,98.109 C83.153,155.32 87.7886,282.963 90.9052,368.783 " fill="none" id="Sounds-to-Password" style="stroke:#A80036;stroke-width:1.0;"/><polygon fill="#A80036" points="91.3822,381.917,95.1613,375.7755,90.9457,369.9249,87.1666,376.0665,91.3822,381.917" style="stroke:#A80036;stroke-width:1.0;"/><text fill="#000000" font-family="sans-serif" font-size="13" lengthAdjust="spacing" textLength="8" x="72.4721" y="118.0697">1</text><text fill="#000000" font-family="sans-serif" font-size="13" lengthAdjust="spacing" textLength="8" x="82.7308" y="371.0365">1</text><!--MD5=[095f6c19dbda5d6463ee835a77bb1fa2]
link Sounds to Game--><path codeLine="63" d="M112.615,98.304 C144.098,127.072 192.321,171.138 229.439,205.057 " fill="none" id="Sounds-to-Game" style="stroke:#A80036;stroke-width:1.0;"/><polygon fill="#A80036" points="239.104,213.888,237.3731,206.8877,230.2456,205.793,231.9765,212.7933,239.104,213.888" style="stroke:#A80036;stroke-width:1.0;"/><text fill="#000000" font-family="sans-serif" font-size="13" lengthAdjust="spacing" textLength="8" x="110.2492" y="117.9443">1</text><text fill="#000000" font-family="sans-serif" font-size="13" lengthAdjust="spacing" textLength="8" x="223.1712" y="202.8802">1</text><!--MD5=[dac39e52db6ae4ee8be44286ee52d51e]
reverse link Validator to Keyboard--><path codeLine="65" d="M399.491,67.5 C409.385,67.5 419.28,67.5 429.174,67.5 " fill="none" id="Validator-backto-Keyboard" style="stroke:#A80036;stroke-width:1.0;"/><polygon fill="#A80036" points="394.316,67.5,403.316,71.5,399.316,67.5,403.316,63.5,394.316,67.5" style="stroke:#A80036;stroke-width:1.0;"/><text fill="#000000" font-family="sans-serif" font-size="13" lengthAdjust="spacing" textLength="8" x="401.8622" y="64.0535">1</text><!--MD5=[bf27df85e12a973371f3a1f676f6fdb4]
@startuml
class Keyboard {
    + Keyboard(validator)
    + drawKeys()
    __ private __
    - createKeys()
    - setOnClickHandler(handler)
    - figures: char[]
}

class Key {
    + Key(figure: char, alphabet: HtmlElement)
    + setOnClickHandler(handler)
    __ private __
    -markFigure(result: bool)
    - onClick()
    -figure: char
    -div: HtmlElement
}
class Cutting {
    Cutting(alphabet)
}
class Password {
    + Password()
    + selectPassword(): string
    + drawHiddenPassword()
    + showFigure(figure: Char)
    __ private __
    - win()
    - statements: string
    - selectedPassword: string[]
}
class HangMan {
    + HangMan()
    + drawNextImage()
    __ private __
    - failed()
}
class Validator {
    + Validator(password: String)
    + validateFigure(figure: char): bool
    + subscribe(Action, function(figure))
}
class Game {
    __ private __
    - draw()
    - subscribe()
}
class Sounds {
    + playEffect(sound)
}
enum Action {
    Ok,
    Nok
}

Keyboard "1" - -* "1" Game
Keyboard "1" *- - "many" Key
Keyboard "1" *- - "many" Cutting
Game "1" *- - "1" HangMan
Game "1" *- - "1" Password
Game "1" *- - "1" Validator
Sounds "1" - -* "1" Password
Sounds "1" - -* "1" Game

Keyboard -left-> "1" Validator
@enduml

PlantUML version 1.2020.27beta8(Unknown compile time)
(GPL source distribution)
Java Runtime: Java(TM) SE Runtime Environment
JVM: Java HotSpot(TM) 64-Bit Server VM
Default Encoding: UTF-8
Language: en
Country: US
--></g></svg>