<?xml version="1.0" encoding="UTF-8" standalone="no"?><svg xmlns="http://www.w3.org/2000/svg" xmlns:xlink="http://www.w3.org/1999/xlink" contentScriptType="application/ecmascript" contentStyleType="text/css" height="421px" preserveAspectRatio="none" style="width:481px;height:421px;" version="1.1" viewBox="0 0 481 421" width="481px" zoomAndPan="magnify"><defs><filter height="300%" id="fbt4cyx" width="300%" x="-1" y="-1"><feGaussianBlur result="blurOut" stdDeviation="2.0"/><feColorMatrix in="blurOut" result="blurOut2" type="matrix" values="0 0 0 0 0 0 0 0 0 0 0 0 0 0 0 0 0 0 .4 0"/><feOffset dx="4.0" dy="4.0" in="blurOut2" result="blurOut3"/><feBlend in="SourceGraphic" in2="blurOut3" mode="normal"/></filter></defs><g><!--class Keyboard--><rect fill="#FEFECE" filter="url(#fbt4cyx)" height="86.4141" style="stroke: #A80036; stroke-width: 1.5;" width="107" x="259.5" y="8"/><ellipse cx="282.15" cy="24" fill="#ADD1B2" rx="11" ry="11" style="stroke: #A80036; stroke-width: 1.0;"/><path d="M285.1188,29.6406 Q284.5406,29.9375 283.9,30.0859 Q283.2594,30.2344 282.5563,30.2344 Q280.0563,30.2344 278.7359,28.5859 Q277.4156,26.9375 277.4156,23.8125 Q277.4156,20.6875 278.7359,19.0313 Q280.0563,17.375 282.5563,17.375 Q283.2594,17.375 283.9078,17.5313 Q284.5563,17.6875 285.1188,17.9844 L285.1188,20.7031 Q284.4938,20.125 283.9,19.8516 Q283.3063,19.5781 282.6813,19.5781 Q281.3375,19.5781 280.65,20.6484 Q279.9625,21.7188 279.9625,23.8125 Q279.9625,25.9063 280.65,26.9766 Q281.3375,28.0469 282.6813,28.0469 Q283.3063,28.0469 283.9,27.7734 Q284.4938,27.5 285.1188,26.9219 L285.1188,29.6406 Z "/><text fill="#000000" font-family="sans-serif" font-size="12" lengthAdjust="spacingAndGlyphs" textLength="58" x="297.85" y="28.1543">Keyboard</text><line style="stroke: #A80036; stroke-width: 1.5;" x1="260.5" x2="365.5" y1="40" y2="40"/><rect fill="none" height="6" style="stroke: #C82930; stroke-width: 1.0;" width="6" x="267.5" y="48.9023"/><text fill="#000000" font-family="sans-serif" font-size="11" lengthAdjust="spacingAndGlyphs" textLength="40" x="279.5" y="54.2104">figures</text><line style="stroke: #A80036; stroke-width: 1.5;" x1="260.5" x2="365.5" y1="60.8047" y2="60.8047"/><ellipse cx="270.5" cy="72.707" fill="#84BE84" rx="3" ry="3" style="stroke: #038048; stroke-width: 1.0;"/><text fill="#000000" font-family="sans-serif" font-size="11" lengthAdjust="spacingAndGlyphs" textLength="63" x="279.5" y="75.0151">drawKeys()</text><ellipse cx="270.5" cy="85.5117" fill="#84BE84" rx="3" ry="3" style="stroke: #038048; stroke-width: 1.0;"/><text fill="#000000" font-family="sans-serif" font-size="11" lengthAdjust="spacingAndGlyphs" textLength="81" x="279.5" y="87.8198">onClick(figure)</text><!--class Password--><rect fill="#FEFECE" filter="url(#fbt4cyx)" height="124.8281" style="stroke: #A80036; stroke-width: 1.5;" width="188" x="25" y="288"/><ellipse cx="84.75" cy="304" fill="#ADD1B2" rx="11" ry="11" style="stroke: #A80036; stroke-width: 1.0;"/><path d="M87.7188,309.6406 Q87.1406,309.9375 86.5,310.0859 Q85.8594,310.2344 85.1563,310.2344 Q82.6563,310.2344 81.3359,308.5859 Q80.0156,306.9375 80.0156,303.8125 Q80.0156,300.6875 81.3359,299.0313 Q82.6563,297.375 85.1563,297.375 Q85.8594,297.375 86.5078,297.5313 Q87.1563,297.6875 87.7188,297.9844 L87.7188,300.7031 Q87.0938,300.125 86.5,299.8516 Q85.9063,299.5781 85.2813,299.5781 Q83.9375,299.5781 83.25,300.6484 Q82.5625,301.7188 82.5625,303.8125 Q82.5625,305.9063 83.25,306.9766 Q83.9375,308.0469 85.2813,308.0469 Q85.9063,308.0469 86.5,307.7734 Q87.0938,307.5 87.7188,306.9219 L87.7188,309.6406 Z "/><text fill="#000000" font-family="sans-serif" font-size="12" lengthAdjust="spacingAndGlyphs" textLength="60" x="105.25" y="308.1543">Password</text><line style="stroke: #A80036; stroke-width: 1.5;" x1="26" x2="212" y1="320" y2="320"/><rect fill="none" height="6" style="stroke: #C82930; stroke-width: 1.0;" width="6" x="33" y="328.9023"/><text fill="#000000" font-family="sans-serif" font-size="11" lengthAdjust="spacingAndGlyphs" textLength="65" x="45" y="334.2104">statements</text><rect fill="none" height="6" style="stroke: #C82930; stroke-width: 1.0;" width="6" x="33" y="341.707"/><text fill="#000000" font-family="sans-serif" font-size="11" lengthAdjust="spacingAndGlyphs" textLength="104" x="45" y="347.0151">selectedPassword</text><line style="stroke: #A80036; stroke-width: 1.5;" x1="26" x2="212" y1="353.6094" y2="353.6094"/><ellipse cx="36" cy="365.5117" fill="#84BE84" rx="3" ry="3" style="stroke: #038048; stroke-width: 1.0;"/><text fill="#000000" font-family="sans-serif" font-size="11" lengthAdjust="spacingAndGlyphs" textLength="162" x="45" y="367.8198">selectPassword(): password</text><ellipse cx="36" cy="378.3164" fill="#84BE84" rx="3" ry="3" style="stroke: #038048; stroke-width: 1.0;"/><text fill="#000000" font-family="sans-serif" font-size="11" lengthAdjust="spacingAndGlyphs" textLength="131" x="45" y="380.6245">drawHiddenPassword()</text><ellipse cx="36" cy="391.1211" fill="#84BE84" rx="3" ry="3" style="stroke: #038048; stroke-width: 1.0;"/><text fill="#000000" font-family="sans-serif" font-size="11" lengthAdjust="spacingAndGlyphs" textLength="106" x="45" y="393.4292">showFigure(figure)</text><rect fill="#F24D5C" height="6" style="stroke: #C82930; stroke-width: 1.0;" width="6" x="33" y="400.9258"/><text fill="#000000" font-family="sans-serif" font-size="11" lengthAdjust="spacingAndGlyphs" textLength="27" x="45" y="406.2339">win()</text><!--class HangMan--><rect fill="#FEFECE" filter="url(#fbt4cyx)" height="73.6094" style="stroke: #A80036; stroke-width: 1.5;" width="122" x="248" y="313.5"/><ellipse cx="276.95" cy="329.5" fill="#ADD1B2" rx="11" ry="11" style="stroke: #A80036; stroke-width: 1.0;"/><path d="M279.9188,335.1406 Q279.3406,335.4375 278.7,335.5859 Q278.0594,335.7344 277.3563,335.7344 Q274.8563,335.7344 273.5359,334.0859 Q272.2156,332.4375 272.2156,329.3125 Q272.2156,326.1875 273.5359,324.5313 Q274.8563,322.875 277.3563,322.875 Q278.0594,322.875 278.7078,323.0313 Q279.3563,323.1875 279.9188,323.4844 L279.9188,326.2031 Q279.2938,325.625 278.7,325.3516 Q278.1063,325.0781 277.4813,325.0781 Q276.1375,325.0781 275.45,326.1484 Q274.7625,327.2188 274.7625,329.3125 Q274.7625,331.4063 275.45,332.4766 Q276.1375,333.5469 277.4813,333.5469 Q278.1063,333.5469 278.7,333.2734 Q279.2938,333 279.9188,332.4219 L279.9188,335.1406 Z "/><text fill="#000000" font-family="sans-serif" font-size="12" lengthAdjust="spacingAndGlyphs" textLength="59" x="294.05" y="333.6543">HangMan</text><line style="stroke: #A80036; stroke-width: 1.5;" x1="249" x2="369" y1="345.5" y2="345.5"/><line style="stroke: #A80036; stroke-width: 1.5;" x1="249" x2="369" y1="353.5" y2="353.5"/><ellipse cx="259" cy="365.4023" fill="#84BE84" rx="3" ry="3" style="stroke: #038048; stroke-width: 1.0;"/><text fill="#000000" font-family="sans-serif" font-size="11" lengthAdjust="spacingAndGlyphs" textLength="96" x="268" y="367.7104">drawNextImage()</text><rect fill="#F24D5C" height="6" style="stroke: #C82930; stroke-width: 1.0;" width="6" x="256" y="375.207"/><text fill="#000000" font-family="sans-serif" font-size="11" lengthAdjust="spacingAndGlyphs" textLength="39" x="268" y="380.5151">failed()</text><!--class Validator--><rect fill="#FEFECE" filter="url(#fbt4cyx)" height="73.6094" style="stroke: #A80036; stroke-width: 1.5;" width="218" x="6" y="14"/><ellipse cx="82.75" cy="30" fill="#ADD1B2" rx="11" ry="11" style="stroke: #A80036; stroke-width: 1.0;"/><path d="M85.7188,35.6406 Q85.1406,35.9375 84.5,36.0859 Q83.8594,36.2344 83.1563,36.2344 Q80.6563,36.2344 79.3359,34.5859 Q78.0156,32.9375 78.0156,29.8125 Q78.0156,26.6875 79.3359,25.0313 Q80.6563,23.375 83.1563,23.375 Q83.8594,23.375 84.5078,23.5313 Q85.1563,23.6875 85.7188,23.9844 L85.7188,26.7031 Q85.0938,26.125 84.5,25.8516 Q83.9063,25.5781 83.2813,25.5781 Q81.9375,25.5781 81.25,26.6484 Q80.5625,27.7188 80.5625,29.8125 Q80.5625,31.9063 81.25,32.9766 Q81.9375,34.0469 83.2813,34.0469 Q83.9063,34.0469 84.5,33.7734 Q85.0938,33.5 85.7188,32.9219 L85.7188,35.6406 Z "/><text fill="#000000" font-family="sans-serif" font-size="12" lengthAdjust="spacingAndGlyphs" textLength="56" x="103.25" y="34.1543">Validator</text><line style="stroke: #A80036; stroke-width: 1.5;" x1="7" x2="223" y1="46" y2="46"/><line style="stroke: #A80036; stroke-width: 1.5;" x1="7" x2="223" y1="54" y2="54"/><ellipse cx="17" cy="65.9023" fill="#84BE84" rx="3" ry="3" style="stroke: #038048; stroke-width: 1.0;"/><text fill="#000000" font-family="sans-serif" font-size="11" lengthAdjust="spacingAndGlyphs" textLength="173" x="26" y="68.2104">validatePassword(figure): bool</text><ellipse cx="17" cy="78.707" fill="#84BE84" rx="3" ry="3" style="stroke: #038048; stroke-width: 1.0;"/><text fill="#000000" font-family="sans-serif" font-size="11" lengthAdjust="spacingAndGlyphs" textLength="192" x="26" y="81.0151">subscribe(Action, function(figure))</text><!--class Game--><rect fill="#FEFECE" filter="url(#fbt4cyx)" height="73.6094" style="stroke: #A80036; stroke-width: 1.5;" width="90" x="169" y="154"/><ellipse cx="193.9" cy="170" fill="#ADD1B2" rx="11" ry="11" style="stroke: #A80036; stroke-width: 1.0;"/><path d="M196.8688,175.6406 Q196.2906,175.9375 195.65,176.0859 Q195.0094,176.2344 194.3063,176.2344 Q191.8063,176.2344 190.4859,174.5859 Q189.1656,172.9375 189.1656,169.8125 Q189.1656,166.6875 190.4859,165.0313 Q191.8063,163.375 194.3063,163.375 Q195.0094,163.375 195.6578,163.5313 Q196.3063,163.6875 196.8688,163.9844 L196.8688,166.7031 Q196.2438,166.125 195.65,165.8516 Q195.0563,165.5781 194.4313,165.5781 Q193.0875,165.5781 192.4,166.6484 Q191.7125,167.7188 191.7125,169.8125 Q191.7125,171.9063 192.4,172.9766 Q193.0875,174.0469 194.4313,174.0469 Q195.0563,174.0469 195.65,173.7734 Q196.2438,173.5 196.8688,172.9219 L196.8688,175.6406 Z "/><text fill="#000000" font-family="sans-serif" font-size="12" lengthAdjust="spacingAndGlyphs" textLength="36" x="210.1" y="174.1543">Game</text><line style="stroke: #A80036; stroke-width: 1.5;" x1="170" x2="258" y1="186" y2="186"/><line style="stroke: #A80036; stroke-width: 1.5;" x1="170" x2="258" y1="194" y2="194"/><rect fill="#F24D5C" height="6" style="stroke: #C82930; stroke-width: 1.0;" width="6" x="177" y="202.9023"/><text fill="#000000" font-family="sans-serif" font-size="11" lengthAdjust="spacingAndGlyphs" textLength="36" x="189" y="208.2104">draw()</text><rect fill="#F24D5C" height="6" style="stroke: #C82930; stroke-width: 1.0;" width="6" x="177" y="215.707"/><text fill="#000000" font-family="sans-serif" font-size="11" lengthAdjust="spacingAndGlyphs" textLength="64" x="189" y="221.0151">subscribe()</text><!--class Action--><rect fill="#FEFECE" filter="url(#fbt4cyx)" height="73.6094" style="stroke: #A80036; stroke-width: 1.5;" width="71" x="401.5" y="14"/><ellipse cx="416.5" cy="30" fill="#EB937F" rx="11" ry="11" style="stroke: #A80036; stroke-width: 1.0;"/><path d="M420.6094,36 L412.8906,36 L412.8906,23.6094 L420.6094,23.6094 L420.6094,25.7656 L415.3438,25.7656 L415.3438,28.4375 L420.1094,28.4375 L420.1094,30.5938 L415.3438,30.5938 L415.3438,33.8438 L420.6094,33.8438 L420.6094,36 Z "/><text fill="#000000" font-family="sans-serif" font-size="12" lengthAdjust="spacingAndGlyphs" textLength="39" x="430.5" y="34.1543">Action</text><line style="stroke: #A80036; stroke-width: 1.5;" x1="402.5" x2="471.5" y1="46" y2="46"/><text fill="#000000" font-family="sans-serif" font-size="11" lengthAdjust="spacingAndGlyphs" textLength="19" x="407.5" y="60.2104">Ok,</text><text fill="#000000" font-family="sans-serif" font-size="11" lengthAdjust="spacingAndGlyphs" textLength="21" x="407.5" y="73.0151">Nok</text><line style="stroke: #A80036; stroke-width: 1.5;" x1="402.5" x2="471.5" y1="79.6094" y2="79.6094"/><path d="M282.4889,94.147 C271.5026,109.6832 259.0453,127.2995 247.7954,143.2085 " fill="none" style="stroke: #A80036; stroke-width: 1.0;"/><polygon fill="#A80036" points="240.2328,153.9032,246.963,151.3138,247.1613,144.1054,240.4311,146.6948,240.2328,153.9032" style="stroke: #A80036; stroke-width: 1.0;"/><text fill="#000000" font-family="sans-serif" font-size="13" lengthAdjust="spacingAndGlyphs" textLength="8" x="268.773" y="114.579">1</text><text fill="#000000" font-family="sans-serif" font-size="13" lengthAdjust="spacingAndGlyphs" textLength="8" x="236.332" y="142.7958">1</text><path d="M242.9678,239.6353 C257.084,263.3357 273.7899,291.384 286.8663,313.3386 " fill="none" style="stroke: #A80036; stroke-width: 1.0;"/><polygon fill="#A80036" points="236.2733,228.3957,235.907,235.5975,242.414,238.7055,242.7802,231.5037,236.2733,228.3957" style="stroke: #A80036; stroke-width: 1.0;"/><text fill="#000000" font-family="sans-serif" font-size="13" lengthAdjust="spacingAndGlyphs" textLength="8" x="231.1856" y="247.6596">1</text><text fill="#000000" font-family="sans-serif" font-size="13" lengthAdjust="spacingAndGlyphs" textLength="8" x="274.2112" y="302.4968">1</text><path d="M185.0489,239.6074 C176.0099,254.7834 165.9078,271.7443 156.3761,287.7476 " fill="none" style="stroke: #A80036; stroke-width: 1.0;"/><polygon fill="#A80036" points="191.7267,228.3957,185.2198,231.5037,185.586,238.7055,192.093,235.5975,191.7267,228.3957" style="stroke: #A80036; stroke-width: 1.0;"/><text fill="#000000" font-family="sans-serif" font-size="13" lengthAdjust="spacingAndGlyphs" textLength="8" x="179.5394" y="247.6596">1</text><text fill="#000000" font-family="sans-serif" font-size="13" lengthAdjust="spacingAndGlyphs" textLength="8" x="152.0266" y="277.1473">1</text><path d="M179.9512,142.8502 C167.29,124.9455 153.1298,104.9209 141.2703,88.1499 " fill="none" style="stroke: #A80036; stroke-width: 1.0;"/><polygon fill="#A80036" points="187.607,153.6765,187.4087,146.4681,180.6785,143.8787,180.8768,151.0871,187.607,153.6765" style="stroke: #A80036; stroke-width: 1.0;"/><text fill="#000000" font-family="sans-serif" font-size="13" lengthAdjust="spacingAndGlyphs" textLength="8" x="174.1932" y="142.8058">1</text><text fill="#000000" font-family="sans-serif" font-size="13" lengthAdjust="spacingAndGlyphs" textLength="8" x="136.9588" y="107.6553">1</text><path d="M229.3152,51 C239.3747,51 249.4343,51 259.4938,51 " fill="none" style="stroke: #A80036; stroke-width: 1.0;"/><polygon fill="#A80036" points="224.0547,51,233.0547,55,229.0547,51,233.0547,47,224.0547,51" style="stroke: #A80036; stroke-width: 1.0;"/><text fill="#000000" font-family="sans-serif" font-size="13" lengthAdjust="spacingAndGlyphs" textLength="8" x="232.0039" y="47.558">1</text></g></svg>