<?xml version="1.0" encoding="UTF-8" standalone="no"?><svg xmlns="http://www.w3.org/2000/svg" xmlns:xlink="http://www.w3.org/1999/xlink" contentScriptType="application/ecmascript" contentStyleType="text/css" height="434px" preserveAspectRatio="none" style="width:498px;height:434px;" version="1.1" viewBox="0 0 498 434" width="498px" zoomAndPan="magnify"><defs><filter height="300%" id="fomk1p4" width="300%" x="-1" y="-1"><feGaussianBlur result="blurOut" stdDeviation="2.0"/><feColorMatrix in="blurOut" result="blurOut2" type="matrix" values="0 0 0 0 0 0 0 0 0 0 0 0 0 0 0 0 0 0 .4 0"/><feOffset dx="4.0" dy="4.0" in="blurOut2" result="blurOut3"/><feBlend in="SourceGraphic" in2="blurOut3" mode="normal"/></filter></defs><g><!--class Keyboard--><rect fill="#FEFECE" filter="url(#fomk1p4)" height="86.4141" style="stroke: #A80036; stroke-width: 1.5;" width="107" x="276.5" y="14.5"/><ellipse cx="299.15" cy="30.5" fill="#ADD1B2" rx="11" ry="11" style="stroke: #A80036; stroke-width: 1.0;"/><path d="M302.1188,36.1406 Q301.5406,36.4375 300.9,36.5859 Q300.2594,36.7344 299.5563,36.7344 Q297.0563,36.7344 295.7359,35.0859 Q294.4156,33.4375 294.4156,30.3125 Q294.4156,27.1875 295.7359,25.5313 Q297.0563,23.875 299.5563,23.875 Q300.2594,23.875 300.9078,24.0313 Q301.5563,24.1875 302.1188,24.4844 L302.1188,27.2031 Q301.4938,26.625 300.9,26.3516 Q300.3063,26.0781 299.6813,26.0781 Q298.3375,26.0781 297.65,27.1484 Q296.9625,28.2188 296.9625,30.3125 Q296.9625,32.4063 297.65,33.4766 Q298.3375,34.5469 299.6813,34.5469 Q300.3063,34.5469 300.9,34.2734 Q301.4938,34 302.1188,33.4219 L302.1188,36.1406 Z "/><text fill="#000000" font-family="sans-serif" font-size="12" lengthAdjust="spacingAndGlyphs" textLength="58" x="314.85" y="34.6543">Keyboard</text><line style="stroke: #A80036; stroke-width: 1.5;" x1="277.5" x2="382.5" y1="46.5" y2="46.5"/><rect fill="none" height="6" style="stroke: #C82930; stroke-width: 1.0;" width="6" x="284.5" y="55.4023"/><text fill="#000000" font-family="sans-serif" font-size="11" lengthAdjust="spacingAndGlyphs" textLength="40" x="296.5" y="60.7104">figures</text><line style="stroke: #A80036; stroke-width: 1.5;" x1="277.5" x2="382.5" y1="67.3047" y2="67.3047"/><ellipse cx="287.5" cy="79.207" fill="#84BE84" rx="3" ry="3" style="stroke: #038048; stroke-width: 1.0;"/><text fill="#000000" font-family="sans-serif" font-size="11" lengthAdjust="spacingAndGlyphs" textLength="63" x="296.5" y="81.5151">drawKeys()</text><ellipse cx="287.5" cy="92.0117" fill="#84BE84" rx="3" ry="3" style="stroke: #038048; stroke-width: 1.0;"/><text fill="#000000" font-family="sans-serif" font-size="11" lengthAdjust="spacingAndGlyphs" textLength="81" x="296.5" y="94.3198">onClick(figure)</text><!--class Password--><rect fill="#FEFECE" filter="url(#fomk1p4)" height="124.8281" style="stroke: #A80036; stroke-width: 1.5;" width="157" x="152.5" y="301"/><ellipse cx="196.75" cy="317" fill="#ADD1B2" rx="11" ry="11" style="stroke: #A80036; stroke-width: 1.0;"/><path d="M199.7188,322.6406 Q199.1406,322.9375 198.5,323.0859 Q197.8594,323.2344 197.1563,323.2344 Q194.6563,323.2344 193.3359,321.5859 Q192.0156,319.9375 192.0156,316.8125 Q192.0156,313.6875 193.3359,312.0313 Q194.6563,310.375 197.1563,310.375 Q197.8594,310.375 198.5078,310.5313 Q199.1563,310.6875 199.7188,310.9844 L199.7188,313.7031 Q199.0938,313.125 198.5,312.8516 Q197.9063,312.5781 197.2813,312.5781 Q195.9375,312.5781 195.25,313.6484 Q194.5625,314.7188 194.5625,316.8125 Q194.5625,318.9063 195.25,319.9766 Q195.9375,321.0469 197.2813,321.0469 Q197.9063,321.0469 198.5,320.7734 Q199.0938,320.5 199.7188,319.9219 L199.7188,322.6406 Z "/><text fill="#000000" font-family="sans-serif" font-size="12" lengthAdjust="spacingAndGlyphs" textLength="60" x="217.25" y="321.1543">Password</text><line style="stroke: #A80036; stroke-width: 1.5;" x1="153.5" x2="308.5" y1="333" y2="333"/><rect fill="none" height="6" style="stroke: #C82930; stroke-width: 1.0;" width="6" x="160.5" y="341.9023"/><text fill="#000000" font-family="sans-serif" font-size="11" lengthAdjust="spacingAndGlyphs" textLength="65" x="172.5" y="347.2104">statements</text><rect fill="none" height="6" style="stroke: #C82930; stroke-width: 1.0;" width="6" x="160.5" y="354.707"/><text fill="#000000" font-family="sans-serif" font-size="11" lengthAdjust="spacingAndGlyphs" textLength="104" x="172.5" y="360.0151">selectedPassword</text><line style="stroke: #A80036; stroke-width: 1.5;" x1="153.5" x2="308.5" y1="366.6094" y2="366.6094"/><ellipse cx="163.5" cy="378.5117" fill="#84BE84" rx="3" ry="3" style="stroke: #038048; stroke-width: 1.0;"/><text fill="#000000" font-family="sans-serif" font-size="11" lengthAdjust="spacingAndGlyphs" textLength="98" x="172.5" y="380.8198">selectPassword()</text><ellipse cx="163.5" cy="391.3164" fill="#84BE84" rx="3" ry="3" style="stroke: #038048; stroke-width: 1.0;"/><text fill="#000000" font-family="sans-serif" font-size="11" lengthAdjust="spacingAndGlyphs" textLength="131" x="172.5" y="393.6245">getSelectedPassword()</text><ellipse cx="163.5" cy="404.1211" fill="#84BE84" rx="3" ry="3" style="stroke: #038048; stroke-width: 1.0;"/><text fill="#000000" font-family="sans-serif" font-size="11" lengthAdjust="spacingAndGlyphs" textLength="131" x="172.5" y="406.4292">drawHiddenPassword()</text><ellipse cx="163.5" cy="416.9258" fill="#84BE84" rx="3" ry="3" style="stroke: #038048; stroke-width: 1.0;"/><text fill="#000000" font-family="sans-serif" font-size="11" lengthAdjust="spacingAndGlyphs" textLength="106" x="172.5" y="419.2339">showFigure(figure)</text><!--class HangMan--><rect fill="#FEFECE" filter="url(#fomk1p4)" height="60.8047" style="stroke: #A80036; stroke-width: 1.5;" width="122" x="6" y="173.5"/><ellipse cx="34.95" cy="189.5" fill="#ADD1B2" rx="11" ry="11" style="stroke: #A80036; stroke-width: 1.0;"/><path d="M37.9188,195.1406 Q37.3406,195.4375 36.7,195.5859 Q36.0594,195.7344 35.3563,195.7344 Q32.8563,195.7344 31.5359,194.0859 Q30.2156,192.4375 30.2156,189.3125 Q30.2156,186.1875 31.5359,184.5313 Q32.8563,182.875 35.3563,182.875 Q36.0594,182.875 36.7078,183.0313 Q37.3563,183.1875 37.9188,183.4844 L37.9188,186.2031 Q37.2938,185.625 36.7,185.3516 Q36.1063,185.0781 35.4813,185.0781 Q34.1375,185.0781 33.45,186.1484 Q32.7625,187.2188 32.7625,189.3125 Q32.7625,191.4063 33.45,192.4766 Q34.1375,193.5469 35.4813,193.5469 Q36.1063,193.5469 36.7,193.2734 Q37.2938,193 37.9188,192.4219 L37.9188,195.1406 Z "/><text fill="#000000" font-family="sans-serif" font-size="12" lengthAdjust="spacingAndGlyphs" textLength="59" x="52.05" y="193.6543">HangMan</text><line style="stroke: #A80036; stroke-width: 1.5;" x1="7" x2="127" y1="205.5" y2="205.5"/><line style="stroke: #A80036; stroke-width: 1.5;" x1="7" x2="127" y1="213.5" y2="213.5"/><ellipse cx="17" cy="225.4023" fill="#84BE84" rx="3" ry="3" style="stroke: #038048; stroke-width: 1.0;"/><text fill="#000000" font-family="sans-serif" font-size="11" lengthAdjust="spacingAndGlyphs" textLength="96" x="26" y="227.7104">drawNextImage()</text><!--class Validator--><rect fill="#FEFECE" filter="url(#fomk1p4)" height="73.6094" style="stroke: #A80036; stroke-width: 1.5;" width="218" x="23" y="20.5"/><ellipse cx="99.75" cy="36.5" fill="#ADD1B2" rx="11" ry="11" style="stroke: #A80036; stroke-width: 1.0;"/><path d="M102.7188,42.1406 Q102.1406,42.4375 101.5,42.5859 Q100.8594,42.7344 100.1563,42.7344 Q97.6563,42.7344 96.3359,41.0859 Q95.0156,39.4375 95.0156,36.3125 Q95.0156,33.1875 96.3359,31.5313 Q97.6563,29.875 100.1563,29.875 Q100.8594,29.875 101.5078,30.0313 Q102.1563,30.1875 102.7188,30.4844 L102.7188,33.2031 Q102.0938,32.625 101.5,32.3516 Q100.9063,32.0781 100.2813,32.0781 Q98.9375,32.0781 98.25,33.1484 Q97.5625,34.2188 97.5625,36.3125 Q97.5625,38.4063 98.25,39.4766 Q98.9375,40.5469 100.2813,40.5469 Q100.9063,40.5469 101.5,40.2734 Q102.0938,40 102.7188,39.4219 L102.7188,42.1406 Z "/><text fill="#000000" font-family="sans-serif" font-size="12" lengthAdjust="spacingAndGlyphs" textLength="56" x="120.25" y="40.6543">Validator</text><line style="stroke: #A80036; stroke-width: 1.5;" x1="24" x2="240" y1="52.5" y2="52.5"/><line style="stroke: #A80036; stroke-width: 1.5;" x1="24" x2="240" y1="60.5" y2="60.5"/><ellipse cx="34" cy="72.4023" fill="#84BE84" rx="3" ry="3" style="stroke: #038048; stroke-width: 1.0;"/><text fill="#000000" font-family="sans-serif" font-size="11" lengthAdjust="spacingAndGlyphs" textLength="141" x="43" y="74.7104">validatePassword(figure)</text><ellipse cx="34" cy="85.207" fill="#84BE84" rx="3" ry="3" style="stroke: #038048; stroke-width: 1.0;"/><text fill="#000000" font-family="sans-serif" font-size="11" lengthAdjust="spacingAndGlyphs" textLength="192" x="43" y="87.5151">subscribe(Action, function(figure))</text><!--class Game--><rect fill="#FEFECE" filter="url(#fomk1p4)" height="73.6094" style="stroke: #A80036; stroke-width: 1.5;" width="135" x="163.5" y="167"/><ellipse cx="208.75" cy="183" fill="#ADD1B2" rx="11" ry="11" style="stroke: #A80036; stroke-width: 1.0;"/><path d="M211.7188,188.6406 Q211.1406,188.9375 210.5,189.0859 Q209.8594,189.2344 209.1563,189.2344 Q206.6563,189.2344 205.3359,187.5859 Q204.0156,185.9375 204.0156,182.8125 Q204.0156,179.6875 205.3359,178.0313 Q206.6563,176.375 209.1563,176.375 Q209.8594,176.375 210.5078,176.5313 Q211.1563,176.6875 211.7188,176.9844 L211.7188,179.7031 Q211.0938,179.125 210.5,178.8516 Q209.9063,178.5781 209.2813,178.5781 Q207.9375,178.5781 207.25,179.6484 Q206.5625,180.7188 206.5625,182.8125 Q206.5625,184.9063 207.25,185.9766 Q207.9375,187.0469 209.2813,187.0469 Q209.9063,187.0469 210.5,186.7734 Q211.0938,186.5 211.7188,185.9219 L211.7188,188.6406 Z "/><text fill="#000000" font-family="sans-serif" font-size="12" lengthAdjust="spacingAndGlyphs" textLength="36" x="229.25" y="187.1543">Game</text><line style="stroke: #A80036; stroke-width: 1.5;" x1="164.5" x2="297.5" y1="199" y2="199"/><line style="stroke: #A80036; stroke-width: 1.5;" x1="164.5" x2="297.5" y1="207" y2="207"/><ellipse cx="174.5" cy="218.9023" fill="#84BE84" rx="3" ry="3" style="stroke: #038048; stroke-width: 1.0;"/><text fill="#000000" font-family="sans-serif" font-size="11" lengthAdjust="spacingAndGlyphs" textLength="36" x="183.5" y="221.2104">draw()</text><ellipse cx="174.5" cy="231.707" fill="#84BE84" rx="3" ry="3" style="stroke: #038048; stroke-width: 1.0;"/><text fill="#000000" font-family="sans-serif" font-size="11" lengthAdjust="spacingAndGlyphs" textLength="109" x="183.5" y="234.0151">endOfGame(result)</text><!--class Action--><rect fill="#FEFECE" filter="url(#fomk1p4)" height="99.2188" style="stroke: #A80036; stroke-width: 1.5;" width="71" x="418.5" y="8"/><ellipse cx="433.5" cy="24" fill="#EB937F" rx="11" ry="11" style="stroke: #A80036; stroke-width: 1.0;"/><path d="M437.6094,30 L429.8906,30 L429.8906,17.6094 L437.6094,17.6094 L437.6094,19.7656 L432.3438,19.7656 L432.3438,22.4375 L437.1094,22.4375 L437.1094,24.5938 L432.3438,24.5938 L432.3438,27.8438 L437.6094,27.8438 L437.6094,30 Z "/><text fill="#000000" font-family="sans-serif" font-size="12" lengthAdjust="spacingAndGlyphs" textLength="39" x="447.5" y="28.1543">Action</text><line style="stroke: #A80036; stroke-width: 1.5;" x1="419.5" x2="488.5" y1="40" y2="40"/><text fill="#000000" font-family="sans-serif" font-size="11" lengthAdjust="spacingAndGlyphs" textLength="19" x="424.5" y="54.2104">Ok,</text><text fill="#000000" font-family="sans-serif" font-size="11" lengthAdjust="spacingAndGlyphs" textLength="25" x="424.5" y="67.0151">Nok,</text><text fill="#000000" font-family="sans-serif" font-size="11" lengthAdjust="spacingAndGlyphs" textLength="23" x="424.5" y="79.8198">Win,</text><text fill="#000000" font-family="sans-serif" font-size="11" lengthAdjust="spacingAndGlyphs" textLength="33" x="424.5" y="92.6245">Failed</text><line style="stroke: #A80036; stroke-width: 1.5;" x1="419.5" x2="488.5" y1="99.2188" y2="99.2188"/><path d="M300.8322,100.6625 C289.1736,117.9148 275.6938,137.8623 263.705,155.6032 " fill="none" style="stroke: #A80036; stroke-width: 1.0;"/><polygon fill="#A80036" points="256.2701,166.6053,262.9438,163.8736,262.9891,156.6627,256.3154,159.3943,256.2701,166.6053" style="stroke: #A80036; stroke-width: 1.0;"/><text fill="#000000" font-family="sans-serif" font-size="13" lengthAdjust="spacingAndGlyphs" textLength="8" x="287.3388" y="121.0971">1</text><text fill="#000000" font-family="sans-serif" font-size="13" lengthAdjust="spacingAndGlyphs" textLength="8" x="251.9259" y="156.0009">1</text><path d="M128.1797,204 C135.4594,204 142.7392,204 150.019,204 " fill="none" style="stroke: #A80036; stroke-width: 1.0;"/><polygon fill="#A80036" points="163.1225,204,157.1225,200,151.1225,204,157.1225,208,163.1225,204" style="stroke: #A80036; stroke-width: 1.0;"/><text fill="#000000" font-family="sans-serif" font-size="13" lengthAdjust="spacingAndGlyphs" textLength="8" x="136.1235" y="200.1728">1</text><text fill="#000000" font-family="sans-serif" font-size="13" lengthAdjust="spacingAndGlyphs" textLength="8" x="147.7101" y="200.3204">1</text><path d="M231,254.4009 C231,269.1122 231,285.3719 231,300.7476 " fill="none" style="stroke: #A80036; stroke-width: 1.0;"/><polygon fill="#A80036" points="231,241.3957,227,247.3957,231,253.3957,235,247.3957,231,241.3957" style="stroke: #A80036; stroke-width: 1.0;"/><text fill="#000000" font-family="sans-serif" font-size="13" lengthAdjust="spacingAndGlyphs" textLength="8" x="222.3625" y="260.6596">1</text><text fill="#000000" font-family="sans-serif" font-size="13" lengthAdjust="spacingAndGlyphs" textLength="8" x="222.5625" y="290.1473">1</text><path d="M198.5416,155.9681 C185.1204,136.1075 169.7954,113.4296 157.238,94.8472 " fill="none" style="stroke: #A80036; stroke-width: 1.0;"/><polygon fill="#A80036" points="205.9796,166.9749,205.9343,159.7639,199.2606,157.0323,199.3059,164.2432,205.9796,166.9749" style="stroke: #A80036; stroke-width: 1.0;"/><text fill="#000000" font-family="sans-serif" font-size="13" lengthAdjust="spacingAndGlyphs" textLength="8" x="192.629" y="155.8807">1</text><text fill="#000000" font-family="sans-serif" font-size="13" lengthAdjust="spacingAndGlyphs" textLength="8" x="152.6228" y="114.1033">1</text><path d="M246.3152,57.5 C256.3747,57.5 266.4343,57.5 276.4938,57.5 " fill="none" style="stroke: #A80036; stroke-width: 1.0;"/><polygon fill="#A80036" points="241.0547,57.5,250.0547,61.5,246.0547,57.5,250.0547,53.5,241.0547,57.5" style="stroke: #A80036; stroke-width: 1.0;"/><text fill="#000000" font-family="sans-serif" font-size="13" lengthAdjust="spacingAndGlyphs" textLength="8" x="249.0039" y="54.058">1</text></g></svg>