<?xml version="1.0" encoding="UTF-8" standalone="no"?><svg xmlns="http://www.w3.org/2000/svg" xmlns:xlink="http://www.w3.org/1999/xlink" contentScriptType="application/ecmascript" contentStyleType="text/css" height="538px" preserveAspectRatio="none" style="width:685px;height:538px;" version="1.1" viewBox="0 0 685 538" width="685px" zoomAndPan="magnify"><defs><filter height="300%" id="farv9jw" width="300%" x="-1" y="-1"><feGaussianBlur result="blurOut" stdDeviation="2.0"/><feColorMatrix in="blurOut" result="blurOut2" type="matrix" values="0 0 0 0 0 0 0 0 0 0 0 0 0 0 0 0 0 0 .4 0"/><feOffset dx="4.0" dy="4.0" in="blurOut2" result="blurOut3"/><feBlend in="SourceGraphic" in2="blurOut3" mode="normal"/></filter></defs><g><!--class Keyboard--><rect fill="#FEFECE" filter="url(#farv9jw)" height="120.8281" style="stroke: #A80036; stroke-width: 1.5;" width="181" x="320" y="8"/><ellipse cx="377.25" cy="24" fill="#ADD1B2" rx="11" ry="11" style="stroke: #A80036; stroke-width: 1.0;"/><path d="M380.2188,29.6406 Q379.6406,29.9375 379,30.0859 Q378.3594,30.2344 377.6563,30.2344 Q375.1563,30.2344 373.8359,28.5859 Q372.5156,26.9375 372.5156,23.8125 Q372.5156,20.6875 373.8359,19.0313 Q375.1563,17.375 377.6563,17.375 Q378.3594,17.375 379.0078,17.5313 Q379.6563,17.6875 380.2188,17.9844 L380.2188,20.7031 Q379.5938,20.125 379,19.8516 Q378.4063,19.5781 377.7813,19.5781 Q376.4375,19.5781 375.75,20.6484 Q375.0625,21.7188 375.0625,23.8125 Q375.0625,25.9063 375.75,26.9766 Q376.4375,28.0469 377.7813,28.0469 Q378.4063,28.0469 379,27.7734 Q379.5938,27.5 380.2188,26.9219 L380.2188,29.6406 Z "/><text fill="#000000" font-family="sans-serif" font-size="12" lengthAdjust="spacingAndGlyphs" textLength="58" x="397.75" y="28.1543">Keyboard</text><line style="stroke: #A80036; stroke-width: 1.5;" x1="321" x2="500" y1="40" y2="40"/><ellipse cx="331" cy="51.9023" fill="#84BE84" rx="3" ry="3" style="stroke: #038048; stroke-width: 1.0;"/><text fill="#000000" font-family="sans-serif" font-size="11" lengthAdjust="spacingAndGlyphs" textLength="110" x="340" y="54.2104">Keyboard(validator)</text><ellipse cx="331" cy="64.707" fill="#84BE84" rx="3" ry="3" style="stroke: #038048; stroke-width: 1.0;"/><text fill="#000000" font-family="sans-serif" font-size="11" lengthAdjust="spacingAndGlyphs" textLength="63" x="340" y="67.0151">drawKeys()</text><rect fill="#F24D5C" height="6" style="stroke: #C82930; stroke-width: 1.0;" width="6" x="328" y="91.3164"/><text fill="#000000" font-family="sans-serif" font-size="11" lengthAdjust="spacingAndGlyphs" textLength="71" x="340" y="96.6245">createKeys()</text><rect fill="#F24D5C" height="6" style="stroke: #C82930; stroke-width: 1.0;" width="6" x="328" y="104.1211"/><text fill="#000000" font-family="sans-serif" font-size="11" lengthAdjust="spacingAndGlyphs" textLength="155" x="340" y="109.4292">setOnClickHandler(handler)</text><rect fill="none" height="6" style="stroke: #C82930; stroke-width: 1.0;" width="6" x="328" y="116.9258"/><text fill="#000000" font-family="sans-serif" font-size="11" lengthAdjust="spacingAndGlyphs" textLength="81" x="340" y="122.2339">figures: char[]</text><line style="stroke: #A80036; stroke-width: 1.5;" x1="321" x2="391" y1="80.0117" y2="80.0117"/><text fill="#000000" font-family="sans-serif" font-size="11" lengthAdjust="spacingAndGlyphs" textLength="39" x="391" y="83.3198">private</text><line style="stroke: #A80036; stroke-width: 1.5;" x1="430" x2="500" y1="80.0117" y2="80.0117"/><!--class Key--><rect fill="#FEFECE" filter="url(#farv9jw)" height="133.6328" style="stroke: #A80036; stroke-width: 1.5;" width="257" x="275" y="189"/><ellipse cx="388.75" cy="205" fill="#ADD1B2" rx="11" ry="11" style="stroke: #A80036; stroke-width: 1.0;"/><path d="M391.7188,210.6406 Q391.1406,210.9375 390.5,211.0859 Q389.8594,211.2344 389.1563,211.2344 Q386.6563,211.2344 385.3359,209.5859 Q384.0156,207.9375 384.0156,204.8125 Q384.0156,201.6875 385.3359,200.0313 Q386.6563,198.375 389.1563,198.375 Q389.8594,198.375 390.5078,198.5313 Q391.1563,198.6875 391.7188,198.9844 L391.7188,201.7031 Q391.0938,201.125 390.5,200.8516 Q389.9063,200.5781 389.2813,200.5781 Q387.9375,200.5781 387.25,201.6484 Q386.5625,202.7188 386.5625,204.8125 Q386.5625,206.9063 387.25,207.9766 Q387.9375,209.0469 389.2813,209.0469 Q389.9063,209.0469 390.5,208.7734 Q391.0938,208.5 391.7188,207.9219 L391.7188,210.6406 Z "/><text fill="#000000" font-family="sans-serif" font-size="12" lengthAdjust="spacingAndGlyphs" textLength="21" x="409.25" y="209.1543">Key</text><line style="stroke: #A80036; stroke-width: 1.5;" x1="276" x2="531" y1="221" y2="221"/><ellipse cx="286" cy="232.9023" fill="#84BE84" rx="3" ry="3" style="stroke: #038048; stroke-width: 1.0;"/><text fill="#000000" font-family="sans-serif" font-size="11" lengthAdjust="spacingAndGlyphs" textLength="231" x="295" y="235.2104">Key(figure: char, alphabet: HtmlElement)</text><ellipse cx="286" cy="245.707" fill="#84BE84" rx="3" ry="3" style="stroke: #038048; stroke-width: 1.0;"/><text fill="#000000" font-family="sans-serif" font-size="11" lengthAdjust="spacingAndGlyphs" textLength="155" x="295" y="248.0151">setOnClickHandler(handler)</text><rect fill="#F24D5C" height="6" style="stroke: #C82930; stroke-width: 1.0;" width="6" x="283" y="272.3164"/><text fill="#000000" font-family="sans-serif" font-size="11" lengthAdjust="spacingAndGlyphs" textLength="137" x="295" y="277.6245">markFigure(result: bool)</text><rect fill="#F24D5C" height="6" style="stroke: #C82930; stroke-width: 1.0;" width="6" x="283" y="285.1211"/><text fill="#000000" font-family="sans-serif" font-size="11" lengthAdjust="spacingAndGlyphs" textLength="48" x="295" y="290.4292">onClick()</text><rect fill="none" height="6" style="stroke: #C82930; stroke-width: 1.0;" width="6" x="283" y="297.9258"/><text fill="#000000" font-family="sans-serif" font-size="11" lengthAdjust="spacingAndGlyphs" textLength="66" x="295" y="303.2339">figure: char</text><rect fill="none" height="6" style="stroke: #C82930; stroke-width: 1.0;" width="6" x="283" y="310.7305"/><text fill="#000000" font-family="sans-serif" font-size="11" lengthAdjust="spacingAndGlyphs" textLength="96" x="295" y="316.0386">div: HtmlElement</text><line style="stroke: #A80036; stroke-width: 1.5;" x1="276" x2="384" y1="261.0117" y2="261.0117"/><text fill="#000000" font-family="sans-serif" font-size="11" lengthAdjust="spacingAndGlyphs" textLength="39" x="384" y="264.3198">private</text><line style="stroke: #A80036; stroke-width: 1.5;" x1="423" x2="531" y1="261.0117" y2="261.0117"/><!--class Cutting--><rect fill="#FEFECE" filter="url(#farv9jw)" height="60.8047" style="stroke: #A80036; stroke-width: 1.5;" width="109" x="567" y="225.5"/><ellipse cx="596.4" cy="241.5" fill="#ADD1B2" rx="11" ry="11" style="stroke: #A80036; stroke-width: 1.0;"/><path d="M599.3688,247.1406 Q598.7906,247.4375 598.15,247.5859 Q597.5094,247.7344 596.8063,247.7344 Q594.3063,247.7344 592.9859,246.0859 Q591.6656,244.4375 591.6656,241.3125 Q591.6656,238.1875 592.9859,236.5313 Q594.3063,234.875 596.8063,234.875 Q597.5094,234.875 598.1578,235.0313 Q598.8063,235.1875 599.3688,235.4844 L599.3688,238.2031 Q598.7438,237.625 598.15,237.3516 Q597.5563,237.0781 596.9313,237.0781 Q595.5875,237.0781 594.9,238.1484 Q594.2125,239.2188 594.2125,241.3125 Q594.2125,243.4063 594.9,244.4766 Q595.5875,245.5469 596.9313,245.5469 Q597.5563,245.5469 598.15,245.2734 Q598.7438,245 599.3688,244.4219 L599.3688,247.1406 Z "/><text fill="#000000" font-family="sans-serif" font-size="12" lengthAdjust="spacingAndGlyphs" textLength="45" x="613.6" y="245.6543">Cutting</text><line style="stroke: #A80036; stroke-width: 1.5;" x1="568" x2="675" y1="257.5" y2="257.5"/><line style="stroke: #A80036; stroke-width: 1.5;" x1="568" x2="675" y1="265.5" y2="265.5"/><text fill="#000000" font-family="sans-serif" font-size="11" lengthAdjust="spacingAndGlyphs" textLength="97" x="573" y="279.7104">Cutting(alphabet)</text><!--class Password--><rect fill="#FEFECE" filter="url(#farv9jw)" height="146.4375" style="stroke: #A80036; stroke-width: 1.5;" width="179" x="6" y="383"/><ellipse cx="61.25" cy="399" fill="#ADD1B2" rx="11" ry="11" style="stroke: #A80036; stroke-width: 1.0;"/><path d="M64.2188,404.6406 Q63.6406,404.9375 63,405.0859 Q62.3594,405.2344 61.6563,405.2344 Q59.1563,405.2344 57.8359,403.5859 Q56.5156,401.9375 56.5156,398.8125 Q56.5156,395.6875 57.8359,394.0313 Q59.1563,392.375 61.6563,392.375 Q62.3594,392.375 63.0078,392.5313 Q63.6563,392.6875 64.2188,392.9844 L64.2188,395.7031 Q63.5938,395.125 63,394.8516 Q62.4063,394.5781 61.7813,394.5781 Q60.4375,394.5781 59.75,395.6484 Q59.0625,396.7188 59.0625,398.8125 Q59.0625,400.9063 59.75,401.9766 Q60.4375,403.0469 61.7813,403.0469 Q62.4063,403.0469 63,402.7734 Q63.5938,402.5 64.2188,401.9219 L64.2188,404.6406 Z "/><text fill="#000000" font-family="sans-serif" font-size="12" lengthAdjust="spacingAndGlyphs" textLength="60" x="81.75" y="403.1543">Password</text><line style="stroke: #A80036; stroke-width: 1.5;" x1="7" x2="184" y1="415" y2="415"/><ellipse cx="17" cy="426.9023" fill="#84BE84" rx="3" ry="3" style="stroke: #038048; stroke-width: 1.0;"/><text fill="#000000" font-family="sans-serif" font-size="11" lengthAdjust="spacingAndGlyphs" textLength="64" x="26" y="429.2104">Password()</text><ellipse cx="17" cy="439.707" fill="#84BE84" rx="3" ry="3" style="stroke: #038048; stroke-width: 1.0;"/><text fill="#000000" font-family="sans-serif" font-size="11" lengthAdjust="spacingAndGlyphs" textLength="139" x="26" y="442.0151">selectPassword(): string</text><ellipse cx="17" cy="452.5117" fill="#84BE84" rx="3" ry="3" style="stroke: #038048; stroke-width: 1.0;"/><text fill="#000000" font-family="sans-serif" font-size="11" lengthAdjust="spacingAndGlyphs" textLength="131" x="26" y="454.8198">drawHiddenPassword()</text><ellipse cx="17" cy="465.3164" fill="#84BE84" rx="3" ry="3" style="stroke: #038048; stroke-width: 1.0;"/><text fill="#000000" font-family="sans-serif" font-size="11" lengthAdjust="spacingAndGlyphs" textLength="141" x="26" y="467.6245">showFigure(figure: Char)</text><rect fill="#F24D5C" height="6" style="stroke: #C82930; stroke-width: 1.0;" width="6" x="14" y="491.9258"/><text fill="#000000" font-family="sans-serif" font-size="11" lengthAdjust="spacingAndGlyphs" textLength="27" x="26" y="497.2339">win()</text><rect fill="none" height="6" style="stroke: #C82930; stroke-width: 1.0;" width="6" x="14" y="504.7305"/><text fill="#000000" font-family="sans-serif" font-size="11" lengthAdjust="spacingAndGlyphs" textLength="106" x="26" y="510.0386">statements: string</text><rect fill="none" height="6" style="stroke: #C82930; stroke-width: 1.0;" width="6" x="14" y="517.5352"/><text fill="#000000" font-family="sans-serif" font-size="11" lengthAdjust="spacingAndGlyphs" textLength="153" x="26" y="522.8433">selectedPassword: string[]</text><line style="stroke: #A80036; stroke-width: 1.5;" x1="7" x2="76" y1="480.6211" y2="480.6211"/><text fill="#000000" font-family="sans-serif" font-size="11" lengthAdjust="spacingAndGlyphs" textLength="39" x="76" y="483.9292">private</text><line style="stroke: #A80036; stroke-width: 1.5;" x1="115" x2="184" y1="480.6211" y2="480.6211"/><!--class HangMan--><rect fill="#FEFECE" filter="url(#farv9jw)" height="95.2188" style="stroke: #A80036; stroke-width: 1.5;" width="122" x="220.5" y="408.5"/><ellipse cx="249.45" cy="424.5" fill="#ADD1B2" rx="11" ry="11" style="stroke: #A80036; stroke-width: 1.0;"/><path d="M252.4188,430.1406 Q251.8406,430.4375 251.2,430.5859 Q250.5594,430.7344 249.8563,430.7344 Q247.3563,430.7344 246.0359,429.0859 Q244.7156,427.4375 244.7156,424.3125 Q244.7156,421.1875 246.0359,419.5313 Q247.3563,417.875 249.8563,417.875 Q250.5594,417.875 251.2078,418.0313 Q251.8563,418.1875 252.4188,418.4844 L252.4188,421.2031 Q251.7938,420.625 251.2,420.3516 Q250.6063,420.0781 249.9813,420.0781 Q248.6375,420.0781 247.95,421.1484 Q247.2625,422.2188 247.2625,424.3125 Q247.2625,426.4063 247.95,427.4766 Q248.6375,428.5469 249.9813,428.5469 Q250.6063,428.5469 251.2,428.2734 Q251.7938,428 252.4188,427.4219 L252.4188,430.1406 Z "/><text fill="#000000" font-family="sans-serif" font-size="12" lengthAdjust="spacingAndGlyphs" textLength="59" x="266.55" y="428.6543">HangMan</text><line style="stroke: #A80036; stroke-width: 1.5;" x1="221.5" x2="341.5" y1="440.5" y2="440.5"/><ellipse cx="231.5" cy="452.4023" fill="#84BE84" rx="3" ry="3" style="stroke: #038048; stroke-width: 1.0;"/><text fill="#000000" font-family="sans-serif" font-size="11" lengthAdjust="spacingAndGlyphs" textLength="60" x="240.5" y="454.7104">HangMan()</text><ellipse cx="231.5" cy="465.207" fill="#84BE84" rx="3" ry="3" style="stroke: #038048; stroke-width: 1.0;"/><text fill="#000000" font-family="sans-serif" font-size="11" lengthAdjust="spacingAndGlyphs" textLength="96" x="240.5" y="467.5151">drawNextImage()</text><rect fill="#F24D5C" height="6" style="stroke: #C82930; stroke-width: 1.0;" width="6" x="228.5" y="491.8164"/><text fill="#000000" font-family="sans-serif" font-size="11" lengthAdjust="spacingAndGlyphs" textLength="39" x="240.5" y="497.1245">failed()</text><line style="stroke: #A80036; stroke-width: 1.5;" x1="221.5" x2="262" y1="480.5117" y2="480.5117"/><text fill="#000000" font-family="sans-serif" font-size="11" lengthAdjust="spacingAndGlyphs" textLength="39" x="262" y="483.8198">private</text><line style="stroke: #A80036; stroke-width: 1.5;" x1="301" x2="341.5" y1="480.5117" y2="480.5117"/><!--class Validator--><rect fill="#FEFECE" filter="url(#farv9jw)" height="86.4141" style="stroke: #A80036; stroke-width: 1.5;" width="218" x="66.5" y="25.5"/><ellipse cx="143.25" cy="41.5" fill="#ADD1B2" rx="11" ry="11" style="stroke: #A80036; stroke-width: 1.0;"/><path d="M146.2188,47.1406 Q145.6406,47.4375 145,47.5859 Q144.3594,47.7344 143.6563,47.7344 Q141.1563,47.7344 139.8359,46.0859 Q138.5156,44.4375 138.5156,41.3125 Q138.5156,38.1875 139.8359,36.5313 Q141.1563,34.875 143.6563,34.875 Q144.3594,34.875 145.0078,35.0313 Q145.6563,35.1875 146.2188,35.4844 L146.2188,38.2031 Q145.5938,37.625 145,37.3516 Q144.4063,37.0781 143.7813,37.0781 Q142.4375,37.0781 141.75,38.1484 Q141.0625,39.2188 141.0625,41.3125 Q141.0625,43.4063 141.75,44.4766 Q142.4375,45.5469 143.7813,45.5469 Q144.4063,45.5469 145,45.2734 Q145.5938,45 146.2188,44.4219 L146.2188,47.1406 Z "/><text fill="#000000" font-family="sans-serif" font-size="12" lengthAdjust="spacingAndGlyphs" textLength="56" x="163.75" y="45.6543">Validator</text><line style="stroke: #A80036; stroke-width: 1.5;" x1="67.5" x2="283.5" y1="57.5" y2="57.5"/><line style="stroke: #A80036; stroke-width: 1.5;" x1="67.5" x2="283.5" y1="65.5" y2="65.5"/><ellipse cx="77.5" cy="77.4023" fill="#84BE84" rx="3" ry="3" style="stroke: #038048; stroke-width: 1.0;"/><text fill="#000000" font-family="sans-serif" font-size="11" lengthAdjust="spacingAndGlyphs" textLength="156" x="86.5" y="79.7104">Validator(password: String)</text><ellipse cx="77.5" cy="90.207" fill="#84BE84" rx="3" ry="3" style="stroke: #038048; stroke-width: 1.0;"/><text fill="#000000" font-family="sans-serif" font-size="11" lengthAdjust="spacingAndGlyphs" textLength="185" x="86.5" y="92.5151">validateFigure(figure: char): bool</text><ellipse cx="77.5" cy="103.0117" fill="#84BE84" rx="3" ry="3" style="stroke: #038048; stroke-width: 1.0;"/><text fill="#000000" font-family="sans-serif" font-size="11" lengthAdjust="spacingAndGlyphs" textLength="192" x="86.5" y="105.3198">subscribe(Action, function(figure))</text><!--class Game--><rect fill="#FEFECE" filter="url(#farv9jw)" height="82.4141" style="stroke: #A80036; stroke-width: 1.5;" width="90" x="143.5" y="215"/><ellipse cx="168.4" cy="231" fill="#ADD1B2" rx="11" ry="11" style="stroke: #A80036; stroke-width: 1.0;"/><path d="M171.3688,236.6406 Q170.7906,236.9375 170.15,237.0859 Q169.5094,237.2344 168.8063,237.2344 Q166.3063,237.2344 164.9859,235.5859 Q163.6656,233.9375 163.6656,230.8125 Q163.6656,227.6875 164.9859,226.0313 Q166.3063,224.375 168.8063,224.375 Q169.5094,224.375 170.1578,224.5313 Q170.8063,224.6875 171.3688,224.9844 L171.3688,227.7031 Q170.7438,227.125 170.15,226.8516 Q169.5563,226.5781 168.9313,226.5781 Q167.5875,226.5781 166.9,227.6484 Q166.2125,228.7188 166.2125,230.8125 Q166.2125,232.9063 166.9,233.9766 Q167.5875,235.0469 168.9313,235.0469 Q169.5563,235.0469 170.15,234.7734 Q170.7438,234.5 171.3688,233.9219 L171.3688,236.6406 Z "/><text fill="#000000" font-family="sans-serif" font-size="12" lengthAdjust="spacingAndGlyphs" textLength="36" x="184.6" y="235.1543">Game</text><line style="stroke: #A80036; stroke-width: 1.5;" x1="144.5" x2="232.5" y1="247" y2="247"/><rect fill="#F24D5C" height="6" style="stroke: #C82930; stroke-width: 1.0;" width="6" x="151.5" y="272.707"/><text fill="#000000" font-family="sans-serif" font-size="11" lengthAdjust="spacingAndGlyphs" textLength="36" x="163.5" y="278.0151">draw()</text><rect fill="#F24D5C" height="6" style="stroke: #C82930; stroke-width: 1.0;" width="6" x="151.5" y="285.5117"/><text fill="#000000" font-family="sans-serif" font-size="11" lengthAdjust="spacingAndGlyphs" textLength="64" x="163.5" y="290.8198">subscribe()</text><line style="stroke: #A80036; stroke-width: 1.5;" x1="144.5" x2="169" y1="261.4023" y2="261.4023"/><text fill="#000000" font-family="sans-serif" font-size="11" lengthAdjust="spacingAndGlyphs" textLength="39" x="169" y="264.7104">private</text><line style="stroke: #A80036; stroke-width: 1.5;" x1="208" x2="232.5" y1="261.4023" y2="261.4023"/><!--class Action--><rect fill="#FEFECE" filter="url(#farv9jw)" height="73.6094" style="stroke: #A80036; stroke-width: 1.5;" width="71" x="536" y="31.5"/><ellipse cx="551" cy="47.5" fill="#EB937F" rx="11" ry="11" style="stroke: #A80036; stroke-width: 1.0;"/><path d="M555.1094,53.5 L547.3906,53.5 L547.3906,41.1094 L555.1094,41.1094 L555.1094,43.2656 L549.8438,43.2656 L549.8438,45.9375 L554.6094,45.9375 L554.6094,48.0938 L549.8438,48.0938 L549.8438,51.3438 L555.1094,51.3438 L555.1094,53.5 Z "/><text fill="#000000" font-family="sans-serif" font-size="12" lengthAdjust="spacingAndGlyphs" textLength="39" x="565" y="51.6543">Action</text><line style="stroke: #A80036; stroke-width: 1.5;" x1="537" x2="606" y1="63.5" y2="63.5"/><text fill="#000000" font-family="sans-serif" font-size="11" lengthAdjust="spacingAndGlyphs" textLength="19" x="542" y="77.7104">Ok,</text><text fill="#000000" font-family="sans-serif" font-size="11" lengthAdjust="spacingAndGlyphs" textLength="21" x="542" y="90.5151">Nok</text><line style="stroke: #A80036; stroke-width: 1.5;" x1="537" x2="606" y1="97.1094" y2="97.1094"/><path d="M330.2153,129.2029 C306.3939,147.8853 280.5268,168.8483 257.5,189 C251.398,194.3401 245.1281,200.0651 238.9736,205.837 " fill="none" style="stroke: #A80036; stroke-width: 1.0;"/><polygon fill="#A80036" points="229.4379,214.8969,236.5428,213.664,238.1375,206.6314,231.0325,207.8643,229.4379,214.8969" style="stroke: #A80036; stroke-width: 1.0;"/><text fill="#000000" font-family="sans-serif" font-size="13" lengthAdjust="spacingAndGlyphs" textLength="8" x="312.9967" y="148.7461">1</text><text fill="#000000" font-family="sans-serif" font-size="13" lengthAdjust="spacingAndGlyphs" textLength="8" x="227.5557" y="203.8906">1</text><path d="M407.7433,142.3402 C407.1716,157.6548 406.5721,173.7125 406.0097,188.7747 " fill="none" style="stroke: #A80036; stroke-width: 1.0;"/><polygon fill="#A80036" points="408.237,129.1169,404.0159,134.9634,407.7892,141.1085,412.0103,135.262,408.237,129.1169" style="stroke: #A80036; stroke-width: 1.0;"/><text fill="#000000" font-family="sans-serif" font-size="13" lengthAdjust="spacingAndGlyphs" textLength="8" x="399.5128" y="149.0774">1</text><text fill="#000000" font-family="sans-serif" font-size="13" lengthAdjust="spacingAndGlyphs" textLength="36" x="368.4123" y="178.1613">many</text><path d="M491.2084,137.6238 C510.4264,154.3152 530.7845,172.1892 549.5,189 C562.5839,200.7524 576.7948,213.8937 589.1077,225.4039 " fill="none" style="stroke: #A80036; stroke-width: 1.0;"/><polygon fill="#A80036" points="481.2773,129.0149,483.191,135.9674,490.3447,136.8751,488.4311,129.9225,481.2773,129.0149" style="stroke: #A80036; stroke-width: 1.0;"/><text fill="#000000" font-family="sans-serif" font-size="13" lengthAdjust="spacingAndGlyphs" textLength="8" x="480.9984" y="148.9636">1</text><text fill="#000000" font-family="sans-serif" font-size="13" lengthAdjust="spacingAndGlyphs" textLength="36" x="542.7143" y="214.6473">many</text><path d="M213.2672,309.2628 C227.5875,340.0592 245.4558,378.4856 259.3147,408.2896 " fill="none" style="stroke: #A80036; stroke-width: 1.0;"/><polygon fill="#A80036" points="207.7697,297.4401,206.6725,304.5672,212.8294,308.3212,213.9266,301.1941,207.7697,297.4401" style="stroke: #A80036; stroke-width: 1.0;"/><text fill="#000000" font-family="sans-serif" font-size="13" lengthAdjust="spacingAndGlyphs" textLength="8" x="202.2987" y="317.5894">1</text><text fill="#000000" font-family="sans-serif" font-size="13" lengthAdjust="spacingAndGlyphs" textLength="8" x="247.6324" y="397.5865">1</text><path d="M163.6384,309.4659 C153.1922,331.9309 140.8709,358.4282 129.5986,382.6697 " fill="none" style="stroke: #A80036; stroke-width: 1.0;"/><polygon fill="#A80036" points="169.2303,297.4401,163.0734,301.1941,164.1706,308.3212,170.3275,304.5672,169.2303,297.4401" style="stroke: #A80036; stroke-width: 1.0;"/><text fill="#000000" font-family="sans-serif" font-size="13" lengthAdjust="spacingAndGlyphs" textLength="8" x="157.3763" y="317.5894">1</text><text fill="#000000" font-family="sans-serif" font-size="13" lengthAdjust="spacingAndGlyphs" textLength="8" x="124.4674" y="372.0179">1</text><path d="M184.7336,201.6766 C182.7453,172.9994 180.3397,138.3038 178.4825,111.5163 " fill="none" style="stroke: #A80036; stroke-width: 1.0;"/><polygon fill="#A80036" points="185.643,214.7934,189.2184,208.5311,184.8129,202.8221,181.2375,209.0845,185.643,214.7934" style="stroke: #A80036; stroke-width: 1.0;"/><text fill="#000000" font-family="sans-serif" font-size="13" lengthAdjust="spacingAndGlyphs" textLength="8" x="176.5502" y="204.0753">1</text><text fill="#000000" font-family="sans-serif" font-size="13" lengthAdjust="spacingAndGlyphs" textLength="8" x="170.314" y="131.9267">1</text><path d="M289.9157,68.5 C299.8163,68.5 309.7169,68.5 319.6175,68.5 " fill="none" style="stroke: #A80036; stroke-width: 1.0;"/><polygon fill="#A80036" points="284.7383,68.5,293.7383,72.5,289.7383,68.5,293.7383,64.5,284.7383,68.5" style="stroke: #A80036; stroke-width: 1.0;"/><text fill="#000000" font-family="sans-serif" font-size="13" lengthAdjust="spacingAndGlyphs" textLength="8" x="292.3465" y="65.0535">1</text></g></svg>