<?xml version="1.0" encoding="UTF-8" standalone="no"?><svg xmlns="http://www.w3.org/2000/svg" xmlns:xlink="http://www.w3.org/1999/xlink" contentScriptType="application/ecmascript" contentStyleType="text/css" height="1931px" preserveAspectRatio="none" style="width:1230px;height:1931px;" version="1.1" viewBox="0 0 1230 1931" width="1230px" zoomAndPan="magnify"><defs><filter height="300%" id="f1qbvzxc2jwwjf" width="300%" x="-1" y="-1"><feGaussianBlur result="blurOut" stdDeviation="2.0"/><feColorMatrix in="blurOut" result="blurOut2" type="matrix" values="0 0 0 0 0 0 0 0 0 0 0 0 0 0 0 0 0 0 .4 0"/><feOffset dx="4.0" dy="4.0" in="blurOut2" result="blurOut3"/><feBlend in="SourceGraphic" in2="blurOut3" mode="normal"/></filter></defs><g><rect fill="#FFFFFF" filter="url(#f1qbvzxc2jwwjf)" height="166.8594" style="stroke:#000000;stroke-width:2.0;" width="495" x="546.5" y="401.8828"/><rect fill="#FFFFFF" filter="url(#f1qbvzxc2jwwjf)" height="76.4297" style="stroke:#000000;stroke-width:2.0;" width="475" x="556.5" y="485.3125"/><rect fill="#FFFFFF" filter="url(#f1qbvzxc2jwwjf)" height="103.3984" style="stroke:#000000;stroke-width:2.0;" width="821" x="20" y="624.875"/><rect fill="#FFFFFF" filter="url(#f1qbvzxc2jwwjf)" height="355.2656" style="stroke:#000000;stroke-width:2.0;" width="1203.5" x="10" y="1379.6953"/><rect fill="#FFFFFF" filter="url(#f1qbvzxc2jwwjf)" height="75.3984" style="stroke:#000000;stroke-width:2.0;" width="1183.5" x="20" y="1432.9609"/><rect fill="#FFFFFF" height="176.4688" style="stroke:none;stroke-width:1.0;" width="1203.5" x="10" y="1558.4922"/><rect fill="#FFFFFF" filter="url(#f1qbvzxc2jwwjf)" height="75.3984" style="stroke:#000000;stroke-width:2.0;" width="1183.5" x="20" y="1609.4297"/><line style="stroke:#A80036;stroke-width:1.0;stroke-dasharray:5.0,5.0;" x1="62" x2="62" y1="88.2969" y2="1847.2266"/><line style="stroke:#A80036;stroke-width:1.0;stroke-dasharray:5.0,5.0;" x1="167" x2="167" y1="174.0781" y2="1847.2266"/><line style="stroke:#A80036;stroke-width:1.0;stroke-dasharray:5.0,5.0;" x1="339" x2="339" y1="219.375" y2="1847.2266"/><line style="stroke:#A80036;stroke-width:1.0;stroke-dasharray:5.0,5.0;" x1="514.5" x2="514.5" y1="322.9375" y2="1847.2266"/><line style="stroke:#A80036;stroke-width:1.0;stroke-dasharray:5.0,5.0;" x1="609.5" x2="609.5" y1="382.2344" y2="1847.2266"/><line style="stroke:#A80036;stroke-width:1.0;stroke-dasharray:5.0,5.0;" x1="808" x2="808" y1="451.6641" y2="1847.2266"/><line style="stroke:#A80036;stroke-width:1.0;stroke-dasharray:5.0,5.0;" x1="985.5" x2="985.5" y1="535.0938" y2="1847.2266"/><line style="stroke:#A80036;stroke-width:1.0;stroke-dasharray:5.0,5.0;" x1="1072.5" x2="1072.5" y1="781.9219" y2="1847.2266"/><line style="stroke:#A80036;stroke-width:1.0;stroke-dasharray:5.0,5.0;" x1="1158.5" x2="1158.5" y1="88.2969" y2="1847.2266"/><text fill="#000000" font-family="sans-serif" font-size="14" lengthAdjust="spacing" textLength="58" x="30" y="84.9951">Browser</text><ellipse cx="62" cy="15" fill="#FEFECE" filter="url(#f1qbvzxc2jwwjf)" rx="8" ry="8" style="stroke:#A80036;stroke-width:2.0;"/><path d="M62,23 L62,50 M49,31 L75,31 M62,50 L49,65 M62,50 L75,65 " fill="none" filter="url(#f1qbvzxc2jwwjf)" style="stroke:#A80036;stroke-width:2.0;"/><text fill="#000000" font-family="sans-serif" font-size="14" lengthAdjust="spacing" textLength="58" x="30" y="1859.2217">Browser</text><ellipse cx="62" cy="1872.5234" fill="#FEFECE" filter="url(#f1qbvzxc2jwwjf)" rx="8" ry="8" style="stroke:#A80036;stroke-width:2.0;"/><path d="M62,1880.5234 L62,1907.5234 M49,1888.5234 L75,1888.5234 M62,1907.5234 L49,1922.5234 M62,1907.5234 L75,1922.5234 " fill="none" filter="url(#f1qbvzxc2jwwjf)" style="stroke:#A80036;stroke-width:2.0;"/><rect fill="#FEFECE" filter="url(#f1qbvzxc2jwwjf)" height="30.2969" style="stroke:#A80036;stroke-width:1.5;" width="56" x="137" y="1846.2266"/><text fill="#000000" font-family="sans-serif" font-size="14" lengthAdjust="spacing" textLength="42" x="144" y="1866.2217">Game</text><rect fill="#FEFECE" filter="url(#f1qbvzxc2jwwjf)" height="30.2969" style="stroke:#A80036;stroke-width:1.5;" width="80" x="297" y="1846.2266"/><text fill="#000000" font-family="sans-serif" font-size="14" lengthAdjust="spacing" textLength="66" x="304" y="1866.2217">Password</text><rect fill="#FEFECE" filter="url(#f1qbvzxc2jwwjf)" height="30.2969" style="stroke:#A80036;stroke-width:1.5;" width="79" x="473.5" y="1846.2266"/><text fill="#000000" font-family="sans-serif" font-size="14" lengthAdjust="spacing" textLength="65" x="480.5" y="1866.2217">Validator</text><rect fill="#FEFECE" filter="url(#f1qbvzxc2jwwjf)" height="30.2969" style="stroke:#A80036;stroke-width:1.5;" width="83" x="566.5" y="1846.2266"/><text fill="#000000" font-family="sans-serif" font-size="14" lengthAdjust="spacing" textLength="69" x="573.5" y="1866.2217">Keyboard</text><rect fill="#FEFECE" filter="url(#f1qbvzxc2jwwjf)" height="30.2969" style="stroke:#A80036;stroke-width:1.5;" width="41" x="786" y="1846.2266"/><text fill="#000000" font-family="sans-serif" font-size="14" lengthAdjust="spacing" textLength="27" x="793" y="1866.2217">Key</text><rect fill="#FEFECE" filter="url(#f1qbvzxc2jwwjf)" height="30.2969" style="stroke:#A80036;stroke-width:1.5;" width="68" x="949.5" y="1846.2266"/><text fill="#000000" font-family="sans-serif" font-size="14" lengthAdjust="spacing" textLength="54" x="956.5" y="1866.2217">Cutting</text><rect fill="#FEFECE" filter="url(#f1qbvzxc2jwwjf)" height="30.2969" style="stroke:#A80036;stroke-width:1.5;" width="79" x="1031.5" y="1846.2266"/><text fill="#000000" font-family="sans-serif" font-size="14" lengthAdjust="spacing" textLength="65" x="1038.5" y="1866.2217">HangMan</text><rect fill="#FEFECE" filter="url(#f1qbvzxc2jwwjf)" height="30.2969" style="stroke:#A80036;stroke-width:1.5;" width="65" x="1124.5" y="53"/><text fill="#000000" font-family="sans-serif" font-size="14" lengthAdjust="spacing" textLength="51" x="1131.5" y="72.9951">Sounds</text><rect fill="#FEFECE" filter="url(#f1qbvzxc2jwwjf)" height="30.2969" style="stroke:#A80036;stroke-width:1.5;" width="65" x="1124.5" y="1846.2266"/><text fill="#000000" font-family="sans-serif" font-size="14" lengthAdjust="spacing" textLength="51" x="1131.5" y="1866.2217">Sounds</text><rect fill="#EEEEEE" filter="url(#f1qbvzxc2jwwjf)" height="3" style="stroke:#EEEEEE;stroke-width:1.0;" width="1223.5" x="0" y="118.8633"/><line style="stroke:#000000;stroke-width:1.0;" x1="0" x2="1223.5" y1="118.8633" y2="118.8633"/><line style="stroke:#000000;stroke-width:1.0;" x1="0" x2="1223.5" y1="121.8633" y2="121.8633"/><rect fill="#EEEEEE" filter="url(#f1qbvzxc2jwwjf)" height="23.1328" style="stroke:#000000;stroke-width:2.0;" width="114" x="554.75" y="108.2969"/><text fill="#000000" font-family="sans-serif" font-size="13" font-weight="bold" lengthAdjust="spacing" textLength="95" x="560.75" y="124.3638">Initialization</text><polygon fill="#A80036" points="125,158.5625,135,162.5625,125,166.5625,129,162.5625" style="stroke:#A80036;stroke-width:1.0;"/><line style="stroke:#A80036;stroke-width:1.0;" x1="62" x2="131" y1="162.5625" y2="162.5625"/><text fill="#000000" font-family="sans-serif" font-size="13" lengthAdjust="spacing" textLength="51" x="69" y="157.4966">create()</text><rect fill="#FEFECE" filter="url(#f1qbvzxc2jwwjf)" height="30.2969" style="stroke:#A80036;stroke-width:1.5;" width="56" x="137" y="141.4297"/><text fill="#000000" font-family="sans-serif" font-size="14" lengthAdjust="spacing" textLength="42" x="144" y="161.4248">Game</text><polygon fill="#A80036" points="285,203.8594,295,207.8594,285,211.8594,289,207.8594" style="stroke:#A80036;stroke-width:1.0;"/><line style="stroke:#A80036;stroke-width:1.0;" x1="167" x2="291" y1="207.8594" y2="207.8594"/><text fill="#000000" font-family="sans-serif" font-size="13" lengthAdjust="spacing" textLength="51" x="174" y="202.7935">create()</text><rect fill="#FEFECE" filter="url(#f1qbvzxc2jwwjf)" height="30.2969" style="stroke:#A80036;stroke-width:1.5;" width="80" x="297" y="186.7266"/><text fill="#000000" font-family="sans-serif" font-size="14" lengthAdjust="spacing" textLength="66" x="304" y="206.7217">Password</text><polygon fill="#A80036" points="327,249.1563,337,253.1563,327,257.1563,331,253.1563" style="stroke:#A80036;stroke-width:1.0;"/><line style="stroke:#A80036;stroke-width:1.0;" x1="167" x2="333" y1="253.1563" y2="253.1563"/><text fill="#000000" font-family="sans-serif" font-size="13" lengthAdjust="spacing" textLength="110" x="174" y="248.0903">selectPassword()</text><polygon fill="#A80036" points="178,278.2891,168,282.2891,178,286.2891,174,282.2891" style="stroke:#A80036;stroke-width:1.0;"/><line style="stroke:#A80036;stroke-width:1.0;stroke-dasharray:2.0,2.0;" x1="172" x2="338" y1="282.2891" y2="282.2891"/><text fill="#000000" font-family="sans-serif" font-size="13" lengthAdjust="spacing" textLength="62" x="184" y="277.2231">password</text><polygon fill="#A80036" points="461.5,307.4219,471.5,311.4219,461.5,315.4219,465.5,311.4219" style="stroke:#A80036;stroke-width:1.0;"/><line style="stroke:#A80036;stroke-width:1.0;" x1="167" x2="467.5" y1="311.4219" y2="311.4219"/><text fill="#000000" font-family="sans-serif" font-size="13" lengthAdjust="spacing" textLength="113" x="174" y="306.356">create(password)</text><rect fill="#FEFECE" filter="url(#f1qbvzxc2jwwjf)" height="30.2969" style="stroke:#A80036;stroke-width:1.5;" width="79" x="473.5" y="290.2891"/><text fill="#000000" font-family="sans-serif" font-size="14" lengthAdjust="spacing" textLength="65" x="480.5" y="310.2842">Validator</text><polygon fill="#A80036" points="178,337.5859,168,341.5859,178,345.5859,174,341.5859" style="stroke:#A80036;stroke-width:1.0;"/><line style="stroke:#A80036;stroke-width:1.0;stroke-dasharray:2.0,2.0;" x1="172" x2="514" y1="341.5859" y2="341.5859"/><polygon fill="#A80036" points="554.5,366.7188,564.5,370.7188,554.5,374.7188,558.5,370.7188" style="stroke:#A80036;stroke-width:1.0;"/><line style="stroke:#A80036;stroke-width:1.0;" x1="167" x2="560.5" y1="370.7188" y2="370.7188"/><text fill="#000000" font-family="sans-serif" font-size="13" lengthAdjust="spacing" textLength="107" x="174" y="365.6528">create(validator)</text><rect fill="#FEFECE" filter="url(#f1qbvzxc2jwwjf)" height="30.2969" style="stroke:#A80036;stroke-width:1.5;" width="83" x="566.5" y="349.5859"/><text fill="#000000" font-family="sans-serif" font-size="14" lengthAdjust="spacing" textLength="69" x="573.5" y="369.5811">Keyboard</text><path d="M546.5,401.8828 L624.5,401.8828 L624.5,408.8828 L614.5,418.8828 L546.5,418.8828 L546.5,401.8828 " fill="#EEEEEE" style="stroke:#000000;stroke-width:1.0;"/><rect fill="none" height="166.8594" style="stroke:#000000;stroke-width:2.0;" width="495" x="546.5" y="401.8828"/><text fill="#000000" font-family="sans-serif" font-size="13" font-weight="bold" lengthAdjust="spacing" textLength="33" x="561.5" y="414.9497">loop</text><text fill="#000000" font-family="sans-serif" font-size="11" font-weight="bold" lengthAdjust="spacing" textLength="180" x="639.5" y="414.0933">[for each figure in figures]</text><polygon fill="#A80036" points="774,436.1484,784,440.1484,774,444.1484,778,440.1484" style="stroke:#A80036;stroke-width:1.0;"/><line style="stroke:#A80036;stroke-width:1.0;" x1="610" x2="780" y1="440.1484" y2="440.1484"/><text fill="#000000" font-family="sans-serif" font-size="13" lengthAdjust="spacing" textLength="152" x="617" y="435.0825">create(figure, alphabet)</text><rect fill="#FEFECE" filter="url(#f1qbvzxc2jwwjf)" height="30.2969" style="stroke:#A80036;stroke-width:1.5;" width="41" x="786" y="419.0156"/><text fill="#000000" font-family="sans-serif" font-size="14" lengthAdjust="spacing" textLength="27" x="793" y="439.0107">Key</text><polygon fill="#A80036" points="621,466.3125,611,470.3125,621,474.3125,617,470.3125" style="stroke:#A80036;stroke-width:1.0;"/><line style="stroke:#A80036;stroke-width:1.0;stroke-dasharray:2.0,2.0;" x1="615" x2="807.5" y1="470.3125" y2="470.3125"/><path d="M556.5,485.3125 L622.5,485.3125 L622.5,492.3125 L612.5,502.3125 L556.5,502.3125 L556.5,485.3125 " fill="#EEEEEE" style="stroke:#000000;stroke-width:1.0;"/><rect fill="none" height="76.4297" style="stroke:#000000;stroke-width:2.0;" width="475" x="556.5" y="485.3125"/><text fill="#000000" font-family="sans-serif" font-size="13" font-weight="bold" lengthAdjust="spacing" textLength="21" x="571.5" y="498.3794">alt</text><text fill="#000000" font-family="sans-serif" font-size="11" font-weight="bold" lengthAdjust="spacing" textLength="152" x="637.5" y="497.5229">["(index + 1) % 7 == 0"]</text><polygon fill="#A80036" points="937.5,519.5781,947.5,523.5781,937.5,527.5781,941.5,523.5781" style="stroke:#A80036;stroke-width:1.0;"/><line style="stroke:#A80036;stroke-width:1.0;" x1="610" x2="943.5" y1="523.5781" y2="523.5781"/><text fill="#000000" font-family="sans-serif" font-size="13" lengthAdjust="spacing" textLength="107" x="617" y="518.5122">create(alphabet)</text><rect fill="#FEFECE" filter="url(#f1qbvzxc2jwwjf)" height="30.2969" style="stroke:#A80036;stroke-width:1.5;" width="68" x="949.5" y="502.4453"/><text fill="#000000" font-family="sans-serif" font-size="14" lengthAdjust="spacing" textLength="54" x="956.5" y="522.4404">Cutting</text><polygon fill="#A80036" points="621,549.7422,611,553.7422,621,557.7422,617,553.7422" style="stroke:#A80036;stroke-width:1.0;"/><line style="stroke:#A80036;stroke-width:1.0;stroke-dasharray:2.0,2.0;" x1="615" x2="984.5" y1="553.7422" y2="553.7422"/><line style="stroke:#A80036;stroke-width:1.0;" x1="610" x2="652" y1="596.875" y2="596.875"/><line style="stroke:#A80036;stroke-width:1.0;" x1="652" x2="652" y1="596.875" y2="609.875"/><line style="stroke:#A80036;stroke-width:1.0;" x1="611" x2="652" y1="609.875" y2="609.875"/><polygon fill="#A80036" points="621,605.875,611,609.875,621,613.875,617,609.875" style="stroke:#A80036;stroke-width:1.0;"/><text fill="#000000" font-family="sans-serif" font-size="13" lengthAdjust="spacing" textLength="174" x="617" y="591.8091">setOnClickHandler(handler)</text><path d="M20,624.875 L98,624.875 L98,631.875 L88,641.875 L20,641.875 L20,624.875 " fill="#EEEEEE" style="stroke:#000000;stroke-width:1.0;"/><rect fill="none" height="103.3984" style="stroke:#000000;stroke-width:2.0;" width="821" x="20" y="624.875"/><text fill="#000000" font-family="sans-serif" font-size="13" font-weight="bold" lengthAdjust="spacing" textLength="33" x="35" y="637.9419">loop</text><text fill="#000000" font-family="sans-serif" font-size="11" font-weight="bold" lengthAdjust="spacing" textLength="175" x="113" y="637.0854">[for each key in drawKeys]</text><polygon fill="#A80036" points="796.5,659.1406,806.5,663.1406,796.5,667.1406,800.5,663.1406" style="stroke:#A80036;stroke-width:1.0;"/><line style="stroke:#A80036;stroke-width:1.0;" x1="610" x2="802.5" y1="663.1406" y2="663.1406"/><text fill="#000000" font-family="sans-serif" font-size="13" lengthAdjust="spacing" textLength="174" x="617" y="658.0747">setOnClickHandler(handler)</text><polygon fill="#A80036" points="73,688.2734,63,692.2734,73,696.2734,69,692.2734" style="stroke:#A80036;stroke-width:1.0;"/><line style="stroke:#A80036;stroke-width:1.0;" x1="67" x2="807.5" y1="692.2734" y2="692.2734"/><text fill="#000000" font-family="sans-serif" font-size="13" lengthAdjust="spacing" textLength="135" x="79" y="687.2075">onClink(Key::onClick)</text><polygon fill="#A80036" points="796.5,702.2734,806.5,706.2734,796.5,710.2734,800.5,706.2734" style="stroke:#A80036;stroke-width:1.0;"/><line style="stroke:#A80036;stroke-width:1.0;stroke-dasharray:2.0,2.0;" x1="62" x2="802.5" y1="706.2734" y2="706.2734"/><polygon fill="#A80036" points="621,716.2734,611,720.2734,621,724.2734,617,720.2734" style="stroke:#A80036;stroke-width:1.0;"/><line style="stroke:#A80036;stroke-width:1.0;stroke-dasharray:2.0,2.0;" x1="615" x2="807.5" y1="720.2734" y2="720.2734"/><polygon fill="#A80036" points="178,737.2734,168,741.2734,178,745.2734,174,741.2734" style="stroke:#A80036;stroke-width:1.0;"/><line style="stroke:#A80036;stroke-width:1.0;stroke-dasharray:2.0,2.0;" x1="172" x2="609" y1="741.2734" y2="741.2734"/><polygon fill="#A80036" points="1019.5,766.4063,1029.5,770.4063,1019.5,774.4063,1023.5,770.4063" style="stroke:#A80036;stroke-width:1.0;"/><line style="stroke:#A80036;stroke-width:1.0;" x1="167" x2="1025.5" y1="770.4063" y2="770.4063"/><text fill="#000000" font-family="sans-serif" font-size="13" lengthAdjust="spacing" textLength="51" x="174" y="765.3403">create()</text><rect fill="#FEFECE" filter="url(#f1qbvzxc2jwwjf)" height="30.2969" style="stroke:#A80036;stroke-width:1.5;" width="79" x="1031.5" y="749.2734"/><text fill="#000000" font-family="sans-serif" font-size="14" lengthAdjust="spacing" textLength="65" x="1038.5" y="769.2686">HangMan</text><line style="stroke:#A80036;stroke-width:1.0;" x1="167" x2="209" y1="815.7031" y2="815.7031"/><line style="stroke:#A80036;stroke-width:1.0;" x1="209" x2="209" y1="815.7031" y2="828.7031"/><line style="stroke:#A80036;stroke-width:1.0;" x1="168" x2="209" y1="828.7031" y2="828.7031"/><polygon fill="#A80036" points="178,824.7031,168,828.7031,178,832.7031,174,828.7031" style="stroke:#A80036;stroke-width:1.0;"/><text fill="#000000" font-family="sans-serif" font-size="13" lengthAdjust="spacing" textLength="71" x="174" y="810.6372">subscribe()</text><rect fill="#FFFFFF" filter="url(#f1qbvzxc2jwwjf)" height="40.2656" style="stroke:#000000;stroke-width:2.0;" width="979.5" x="134" y="836.7031"/><polygon fill="#EEEEEE" points="134,836.7031,202,836.7031,202,843.7031,192,853.7031,134,853.7031,134,836.7031" style="stroke:#000000;stroke-width:2.0;"/><text fill="#000000" font-family="sans-serif" font-size="13" font-weight="bold" lengthAdjust="spacing" textLength="23" x="147" y="850.77">ref</text><text fill="#000000" font-family="sans-serif" font-size="13" lengthAdjust="spacing" textLength="120" x="565.75" y="869.77">Game::subscribe()</text><line style="stroke:#A80036;stroke-width:1.0;" x1="167" x2="209" y1="903.1016" y2="903.1016"/><line style="stroke:#A80036;stroke-width:1.0;" x1="209" x2="209" y1="903.1016" y2="916.1016"/><line style="stroke:#A80036;stroke-width:1.0;" x1="168" x2="209" y1="916.1016" y2="916.1016"/><polygon fill="#A80036" points="178,912.1016,168,916.1016,178,920.1016,174,916.1016" style="stroke:#A80036;stroke-width:1.0;"/><text fill="#000000" font-family="sans-serif" font-size="13" lengthAdjust="spacing" textLength="42" x="174" y="898.0356">draw()</text><rect fill="#FFFFFF" filter="url(#f1qbvzxc2jwwjf)" height="40.2656" style="stroke:#000000;stroke-width:2.0;" width="979.5" x="134" y="924.1016"/><polygon fill="#EEEEEE" points="134,924.1016,202,924.1016,202,931.1016,192,941.1016,134,941.1016,134,924.1016" style="stroke:#000000;stroke-width:2.0;"/><text fill="#000000" font-family="sans-serif" font-size="13" font-weight="bold" lengthAdjust="spacing" textLength="23" x="147" y="938.1685">ref</text><text fill="#000000" font-family="sans-serif" font-size="13" lengthAdjust="spacing" textLength="91" x="580.25" y="957.1685">Game::draw()</text><polygon fill="#A80036" points="73,971.3672,63,975.3672,73,979.3672,69,975.3672" style="stroke:#A80036;stroke-width:1.0;"/><line style="stroke:#A80036;stroke-width:1.0;stroke-dasharray:2.0,2.0;" x1="67" x2="166" y1="975.3672" y2="975.3672"/><rect fill="#EEEEEE" filter="url(#f1qbvzxc2jwwjf)" height="3" style="stroke:#EEEEEE;stroke-width:1.0;" width="1223.5" x="0" y="1003.9336"/><line style="stroke:#000000;stroke-width:1.0;" x1="0" x2="1223.5" y1="1003.9336" y2="1003.9336"/><line style="stroke:#000000;stroke-width:1.0;" x1="0" x2="1223.5" y1="1006.9336" y2="1006.9336"/><rect fill="#EEEEEE" filter="url(#f1qbvzxc2jwwjf)" height="23.1328" style="stroke:#000000;stroke-width:2.0;" width="155" x="534.25" y="993.3672"/><text fill="#000000" font-family="sans-serif" font-size="13" font-weight="bold" lengthAdjust="spacing" textLength="136" x="540.25" y="1009.4341">Game::subscribe()</text><polygon fill="#A80036" points="503,1043.6328,513,1047.6328,503,1051.6328,507,1047.6328" style="stroke:#A80036;stroke-width:1.0;"/><line style="stroke:#A80036;stroke-width:1.0;" x1="167" x2="509" y1="1047.6328" y2="1047.6328"/><text fill="#000000" font-family="sans-serif" font-size="13" lengthAdjust="spacing" textLength="291" x="174" y="1042.5669">subscribe(Action::Ok, Password::showFigure)</text><polygon fill="#A80036" points="503,1072.7656,513,1076.7656,503,1080.7656,507,1076.7656" style="stroke:#A80036;stroke-width:1.0;"/><line style="stroke:#A80036;stroke-width:1.0;" x1="167" x2="509" y1="1076.7656" y2="1076.7656"/><text fill="#000000" font-family="sans-serif" font-size="13" lengthAdjust="spacing" textLength="324" x="174" y="1071.6997">subscribe(Action::Nok, HangMan::drawNextImage)</text><polygon fill="#A80036" points="178,1086.7656,168,1090.7656,178,1094.7656,174,1090.7656" style="stroke:#A80036;stroke-width:1.0;"/><line style="stroke:#A80036;stroke-width:1.0;stroke-dasharray:2.0,2.0;" x1="172" x2="514" y1="1090.7656" y2="1090.7656"/><rect fill="#EEEEEE" filter="url(#f1qbvzxc2jwwjf)" height="3" style="stroke:#EEEEEE;stroke-width:1.0;" width="1223.5" x="0" y="1119.332"/><line style="stroke:#000000;stroke-width:1.0;" x1="0" x2="1223.5" y1="1119.332" y2="1119.332"/><line style="stroke:#000000;stroke-width:1.0;" x1="0" x2="1223.5" y1="1122.332" y2="1122.332"/><rect fill="#EEEEEE" filter="url(#f1qbvzxc2jwwjf)" height="23.1328" style="stroke:#000000;stroke-width:2.0;" width="121" x="551.25" y="1108.7656"/><text fill="#000000" font-family="sans-serif" font-size="13" font-weight="bold" lengthAdjust="spacing" textLength="102" x="557.25" y="1124.8325">Game::draw()</text><polygon fill="#A80036" points="327,1159.0313,337,1163.0313,327,1167.0313,331,1163.0313" style="stroke:#A80036;stroke-width:1.0;"/><line style="stroke:#A80036;stroke-width:1.0;" x1="167" x2="333" y1="1163.0313" y2="1163.0313"/><text fill="#000000" font-family="sans-serif" font-size="13" lengthAdjust="spacing" textLength="148" x="174" y="1157.9653">drawHiddenPassword()</text><polygon fill="#A80036" points="178,1173.0313,168,1177.0313,178,1181.0313,174,1177.0313" style="stroke:#A80036;stroke-width:1.0;"/><line style="stroke:#A80036;stroke-width:1.0;stroke-dasharray:2.0,2.0;" x1="172" x2="338" y1="1177.0313" y2="1177.0313"/><polygon fill="#A80036" points="598,1202.1641,608,1206.1641,598,1210.1641,602,1206.1641" style="stroke:#A80036;stroke-width:1.0;"/><line style="stroke:#A80036;stroke-width:1.0;" x1="167" x2="604" y1="1206.1641" y2="1206.1641"/><text fill="#000000" font-family="sans-serif" font-size="13" lengthAdjust="spacing" textLength="73" x="174" y="1201.0981">drawKeys()</text><polygon fill="#A80036" points="178,1216.1641,168,1220.1641,178,1224.1641,174,1220.1641" style="stroke:#A80036;stroke-width:1.0;"/><line style="stroke:#A80036;stroke-width:1.0;stroke-dasharray:2.0,2.0;" x1="172" x2="609" y1="1220.1641" y2="1220.1641"/><polygon fill="#A80036" points="1061,1245.2969,1071,1249.2969,1061,1253.2969,1065,1249.2969" style="stroke:#A80036;stroke-width:1.0;"/><line style="stroke:#A80036;stroke-width:1.0;" x1="167" x2="1067" y1="1249.2969" y2="1249.2969"/><text fill="#000000" font-family="sans-serif" font-size="13" lengthAdjust="spacing" textLength="112" x="174" y="1244.231">drawNextImage()</text><polygon fill="#A80036" points="178,1259.2969,168,1263.2969,178,1267.2969,174,1263.2969" style="stroke:#A80036;stroke-width:1.0;"/><line style="stroke:#A80036;stroke-width:1.0;stroke-dasharray:2.0,2.0;" x1="172" x2="1072" y1="1263.2969" y2="1263.2969"/><rect fill="#EEEEEE" filter="url(#f1qbvzxc2jwwjf)" height="3" style="stroke:#EEEEEE;stroke-width:1.0;" width="1223.5" x="0" y="1291.8633"/><line style="stroke:#000000;stroke-width:1.0;" x1="0" x2="1223.5" y1="1291.8633" y2="1291.8633"/><line style="stroke:#000000;stroke-width:1.0;" x1="0" x2="1223.5" y1="1294.8633" y2="1294.8633"/><rect fill="#EEEEEE" filter="url(#f1qbvzxc2jwwjf)" height="23.1328" style="stroke:#000000;stroke-width:2.0;" width="158" x="532.75" y="1281.2969"/><text fill="#000000" font-family="sans-serif" font-size="13" font-weight="bold" lengthAdjust="spacing" textLength="139" x="538.75" y="1297.3638">Browser::onClick()</text><polygon fill="#A80036" points="796.5,1331.5625,806.5,1335.5625,796.5,1339.5625,800.5,1335.5625" style="stroke:#A80036;stroke-width:1.0;"/><line style="stroke:#A80036;stroke-width:1.0;" x1="62" x2="802.5" y1="1335.5625" y2="1335.5625"/><text fill="#000000" font-family="sans-serif" font-size="13" lengthAdjust="spacing" textLength="55" x="69" y="1330.4966">onClick()</text><polygon fill="#A80036" points="526,1360.6953,516,1364.6953,526,1368.6953,522,1364.6953" style="stroke:#A80036;stroke-width:1.0;"/><line style="stroke:#A80036;stroke-width:1.0;" x1="520" x2="807.5" y1="1364.6953" y2="1364.6953"/><text fill="#000000" font-family="sans-serif" font-size="13" lengthAdjust="spacing" textLength="137" x="532" y="1359.6294">validateFigure(figure)</text><path d="M10,1379.6953 L76,1379.6953 L76,1386.6953 L66,1396.6953 L10,1396.6953 L10,1379.6953 " fill="#EEEEEE" style="stroke:#000000;stroke-width:1.0;"/><rect fill="none" height="355.2656" style="stroke:#000000;stroke-width:2.0;" width="1203.5" x="10" y="1379.6953"/><text fill="#000000" font-family="sans-serif" font-size="13" font-weight="bold" lengthAdjust="spacing" textLength="21" x="25" y="1392.7622">alt</text><text fill="#000000" font-family="sans-serif" font-size="11" font-weight="bold" lengthAdjust="spacing" textLength="99" x="91" y="1391.9058">[validation OK]</text><polygon fill="#A80036" points="350,1413.9609,340,1417.9609,350,1421.9609,346,1417.9609" style="stroke:#A80036;stroke-width:1.0;"/><line style="stroke:#A80036;stroke-width:1.0;" x1="344" x2="514" y1="1417.9609" y2="1417.9609"/><text fill="#000000" font-family="sans-serif" font-size="13" lengthAdjust="spacing" textLength="120" x="356" y="1412.895">showFigure(figure)</text><path d="M20,1432.9609 L86,1432.9609 L86,1439.9609 L76,1449.9609 L20,1449.9609 L20,1432.9609 " fill="#EEEEEE" style="stroke:#000000;stroke-width:1.0;"/><rect fill="none" height="75.3984" style="stroke:#000000;stroke-width:2.0;" width="1183.5" x="20" y="1432.9609"/><text fill="#000000" font-family="sans-serif" font-size="13" font-weight="bold" lengthAdjust="spacing" textLength="21" x="35" y="1446.0278">alt</text><text fill="#000000" font-family="sans-serif" font-size="11" font-weight="bold" lengthAdjust="spacing" textLength="131" x="101" y="1445.1714">[password guessed]</text><polygon fill="#A80036" points="73,1467.2266,63,1471.2266,73,1475.2266,69,1471.2266" style="stroke:#A80036;stroke-width:1.0;"/><line style="stroke:#A80036;stroke-width:1.0;" x1="67" x2="338" y1="1471.2266" y2="1471.2266"/><text fill="#000000" font-family="sans-serif" font-size="13" lengthAdjust="spacing" textLength="66" x="79" y="1466.1606">show(win)</text><polygon fill="#A80036" points="73,1496.3594,63,1500.3594,73,1504.3594,69,1500.3594" style="stroke:#A80036;stroke-width:1.0;"/><line style="stroke:#A80036;stroke-width:1.0;" x1="67" x2="1158" y1="1500.3594" y2="1500.3594"/><text fill="#000000" font-family="sans-serif" font-size="13" lengthAdjust="spacing" textLength="97" x="79" y="1495.2935">playEffect(win)</text><polygon fill="#A80036" points="503,1517.3594,513,1521.3594,503,1525.3594,507,1521.3594" style="stroke:#A80036;stroke-width:1.0;"/><line style="stroke:#A80036;stroke-width:1.0;stroke-dasharray:2.0,2.0;" x1="339" x2="509" y1="1521.3594" y2="1521.3594"/><polygon fill="#A80036" points="796.5,1546.4922,806.5,1550.4922,796.5,1554.4922,800.5,1550.4922" style="stroke:#A80036;stroke-width:1.0;"/><line style="stroke:#A80036;stroke-width:1.0;stroke-dasharray:2.0,2.0;" x1="515" x2="802.5" y1="1550.4922" y2="1550.4922"/><text fill="#000000" font-family="sans-serif" font-size="13" lengthAdjust="spacing" textLength="26" x="522" y="1545.4263">true</text><line style="stroke:#000000;stroke-width:1.0;stroke-dasharray:2.0,2.0;" x1="10" x2="1213.5" y1="1559.4922" y2="1559.4922"/><text fill="#000000" font-family="sans-serif" font-size="11" font-weight="bold" lengthAdjust="spacing" textLength="108" x="15" y="1569.7026">[validation NOK]</text><polygon fill="#A80036" points="1061,1590.4297,1071,1594.4297,1061,1598.4297,1065,1594.4297" style="stroke:#A80036;stroke-width:1.0;"/><line style="stroke:#A80036;stroke-width:1.0;" x1="515" x2="1067" y1="1594.4297" y2="1594.4297"/><text fill="#000000" font-family="sans-serif" font-size="13" lengthAdjust="spacing" textLength="112" x="522" y="1589.3638">drawNextImage()</text><path d="M20,1609.4297 L86,1609.4297 L86,1616.4297 L76,1626.4297 L20,1626.4297 L20,1609.4297 " fill="#EEEEEE" style="stroke:#000000;stroke-width:1.0;"/><rect fill="none" height="75.3984" style="stroke:#000000;stroke-width:2.0;" width="1183.5" x="20" y="1609.4297"/><text fill="#000000" font-family="sans-serif" font-size="13" font-weight="bold" lengthAdjust="spacing" textLength="21" x="35" y="1622.4966">alt</text><text fill="#000000" font-family="sans-serif" font-size="11" font-weight="bold" lengthAdjust="spacing" textLength="77" x="101" y="1621.6401">[game lost]</text><polygon fill="#A80036" points="73,1643.6953,63,1647.6953,73,1651.6953,69,1647.6953" style="stroke:#A80036;stroke-width:1.0;"/><line style="stroke:#A80036;stroke-width:1.0;" x1="67" x2="1072" y1="1647.6953" y2="1647.6953"/><text fill="#000000" font-family="sans-serif" font-size="13" lengthAdjust="spacing" textLength="79" x="79" y="1642.6294">show(failed)</text><polygon fill="#A80036" points="73,1672.8281,63,1676.8281,73,1680.8281,69,1676.8281" style="stroke:#A80036;stroke-width:1.0;"/><line style="stroke:#A80036;stroke-width:1.0;" x1="67" x2="1158" y1="1676.8281" y2="1676.8281"/><text fill="#000000" font-family="sans-serif" font-size="13" lengthAdjust="spacing" textLength="101" x="79" y="1671.7622">playEffect(lose)</text><polygon fill="#A80036" points="526,1693.8281,516,1697.8281,526,1701.8281,522,1697.8281" style="stroke:#A80036;stroke-width:1.0;"/><line style="stroke:#A80036;stroke-width:1.0;stroke-dasharray:2.0,2.0;" x1="520" x2="1072" y1="1697.8281" y2="1697.8281"/><polygon fill="#A80036" points="796.5,1722.9609,806.5,1726.9609,796.5,1730.9609,800.5,1726.9609" style="stroke:#A80036;stroke-width:1.0;"/><line style="stroke:#A80036;stroke-width:1.0;stroke-dasharray:2.0,2.0;" x1="515" x2="802.5" y1="1726.9609" y2="1726.9609"/><text fill="#000000" font-family="sans-serif" font-size="13" lengthAdjust="spacing" textLength="31" x="522" y="1721.895">false</text><path d="M813,1746.9609 L813,1771.9609 L971,1771.9609 L971,1756.9609 L961,1746.9609 L813,1746.9609 " fill="#FBFB77" filter="url(#f1qbvzxc2jwwjf)" style="stroke:#A80036;stroke-width:1.0;"/><path d="M961,1746.9609 L961,1756.9609 L971,1756.9609 L961,1746.9609 " fill="#FBFB77" style="stroke:#A80036;stroke-width:1.0;"/><text fill="#000000" font-family="sans-serif" font-size="13" lengthAdjust="spacing" textLength="137" x="819" y="1764.0278">result = {true, false}</text><line style="stroke:#A80036;stroke-width:1.0;" x1="808.5" x2="850.5" y1="1802.2266" y2="1802.2266"/><line style="stroke:#A80036;stroke-width:1.0;" x1="850.5" x2="850.5" y1="1802.2266" y2="1815.2266"/><line style="stroke:#A80036;stroke-width:1.0;" x1="809.5" x2="850.5" y1="1815.2266" y2="1815.2266"/><polygon fill="#A80036" points="819.5,1811.2266,809.5,1815.2266,819.5,1819.2266,815.5,1815.2266" style="stroke:#A80036;stroke-width:1.0;"/><text fill="#000000" font-family="sans-serif" font-size="13" lengthAdjust="spacing" textLength="163" x="815.5" y="1797.1606">markFigure(figure, result)</text><polygon fill="#A80036" points="73,1825.2266,63,1829.2266,73,1833.2266,69,1829.2266" style="stroke:#A80036;stroke-width:1.0;"/><line style="stroke:#A80036;stroke-width:1.0;stroke-dasharray:2.0,2.0;" x1="67" x2="807.5" y1="1829.2266" y2="1829.2266"/><!--MD5=[a9c62677eee68165655c6ea56d2ae1c6]
@startuml
actor Browser
participant Game
participant Password
participant Validator
participant Keyboard
participant Key
participant Cutting
participant HangMan

== Initialization ==
create Game
Browser -> Game: create()

create Password
Game -> Password: create()
Game -> Password: selectPassword()
Game <- - Password: password

create Validator
Game -> Validator: create(password)
Game <- - Validator

create Keyboard
Game -> Keyboard: create(validator)
loop for each figure in figures
    create Key
    Keyboard -> Key: create(figure, alphabet)
    Keyboard <- - Key
    alt "(index + 1) % 7 == 0"
        create Cutting
        Keyboard -> Cutting: create(alphabet)
        Keyboard <- - Cutting
    end
end
Keyboard -> Keyboard: setOnClickHandler(handler)
loop for each key in drawKeys
    Keyboard -> Key: setOnClickHandler(handler)
    Key -> Browser: onClink(Key::onClick)
    Key <- - Browser
    Keyboard <- - Key
end

Game <- - Keyboard

create HangMan
Game -> HangMan: create()

Game -> Game: subscribe()
ref over Game, Password,Validator, HangMan : Game::subscribe()

Game -> Game: draw()
ref over Game, Password, Keyboard, HangMan : Game::draw()

Browser <- - Game

== Game::subscribe() ==
Game -> Validator: subscribe(Action::Ok, Password::showFigure)
Game -> Validator: subscribe(Action::Nok, HangMan::drawNextImage)
Game <- - Validator

== Game::draw() ==
Game -> Password: drawHiddenPassword()
Game <- - Password
Game -> Keyboard: drawKeys()
Game <- - Keyboard
Game -> HangMan: drawNextImage()
Game <- - HangMan

== Browser::onClick() ==
Browser -> Key: onClick()
Key->Validator: validateFigure(figure)
alt validation OK
    Validator -> Password: showFigure(figure)
    alt password guessed
        Password -> Browser: show(win)
        Sounds -> Browser: playEffect(win)
    end
    Validator <- - Password
    Key <- - Validator: true
else validation NOK
    Validator -> HangMan: drawNextImage()
    alt game lost
        HangMan -> Browser: show(failed)
        Sounds -> Browser: playEffect(lose)
    end
    Validator <- - HangMan
    Key <- - Validator: false
end
note right Key: result = {true, false}
Key -> Key: markFigure(figure, result)
Browser <- - Key
@enduml

PlantUML version 1.2020.27beta8(Unknown compile time)
(GPL source distribution)
Java Runtime: Java(TM) SE Runtime Environment
JVM: Java HotSpot(TM) 64-Bit Server VM
Default Encoding: UTF-8
Language: en
Country: US
--></g></svg>