<?xml version="1.0" encoding="UTF-8" standalone="no"?><svg xmlns="http://www.w3.org/2000/svg" xmlns:xlink="http://www.w3.org/1999/xlink" contentScriptType="application/ecmascript" contentStyleType="text/css" height="1871px" preserveAspectRatio="none" style="width:1141px;height:1871px;" version="1.1" viewBox="0 0 1141 1871" width="1141px" zoomAndPan="magnify"><defs><filter height="300%" id="fn38t4i" width="300%" x="-1" y="-1"><feGaussianBlur result="blurOut" stdDeviation="2.0"/><feColorMatrix in="blurOut" result="blurOut2" type="matrix" values="0 0 0 0 0 0 0 0 0 0 0 0 0 0 0 0 0 0 .4 0"/><feOffset dx="4.0" dy="4.0" in="blurOut2" result="blurOut3"/><feBlend in="SourceGraphic" in2="blurOut3" mode="normal"/></filter></defs><g><rect fill="#FEFECE" filter="url(#fn38t4i)" height="30.2969" style="stroke: #A80036; stroke-width: 1.5;" width="55" x="139.5" y="139.4297"/><text fill="#000000" font-family="sans-serif" font-size="14" lengthAdjust="spacingAndGlyphs" textLength="41" x="146.5" y="159.4248">Game</text><rect fill="#FEFECE" filter="url(#fn38t4i)" height="30.2969" style="stroke: #A80036; stroke-width: 1.5;" width="81" x="295.5" y="184.7266"/><text fill="#000000" font-family="sans-serif" font-size="14" lengthAdjust="spacingAndGlyphs" textLength="67" x="302.5" y="204.7217">Password</text><rect fill="#FEFECE" filter="url(#fn38t4i)" height="30.2969" style="stroke: #A80036; stroke-width: 1.5;" width="73" x="475.5" y="288.2891"/><text fill="#000000" font-family="sans-serif" font-size="14" lengthAdjust="spacingAndGlyphs" textLength="59" x="482.5" y="308.2842">Validator</text><rect fill="#FEFECE" filter="url(#fn38t4i)" height="30.2969" style="stroke: #A80036; stroke-width: 1.5;" width="79" x="562.5" y="347.5859"/><text fill="#000000" font-family="sans-serif" font-size="14" lengthAdjust="spacingAndGlyphs" textLength="65" x="569.5" y="367.5811">Keyboard</text><rect fill="#FFFFFF" filter="url(#fn38t4i)" height="166.8594" style="stroke: #000000; stroke-width: 2.0;" width="490.5" x="542.5" y="399.8828"/><rect fill="#FEFECE" filter="url(#fn38t4i)" height="30.2969" style="stroke: #A80036; stroke-width: 1.5;" width="39" x="781.5" y="417.0156"/><text fill="#000000" font-family="sans-serif" font-size="14" lengthAdjust="spacingAndGlyphs" textLength="25" x="788.5" y="437.0107">Key</text><rect fill="#FFFFFF" filter="url(#fn38t4i)" height="76.4297" style="stroke: #000000; stroke-width: 2.0;" width="470.5" x="552.5" y="483.3125"/><rect fill="#FEFECE" filter="url(#fn38t4i)" height="30.2969" style="stroke: #A80036; stroke-width: 1.5;" width="64" x="945" y="500.4453"/><text fill="#000000" font-family="sans-serif" font-size="14" lengthAdjust="spacingAndGlyphs" textLength="50" x="952" y="520.4404">Cutting</text><rect fill="#FFFFFF" filter="url(#fn38t4i)" height="103.3984" style="stroke: #000000; stroke-width: 2.0;" width="811.5" x="23" y="622.875"/><rect fill="#FEFECE" filter="url(#fn38t4i)" height="30.2969" style="stroke: #A80036; stroke-width: 1.5;" width="79" x="1023" y="747.2734"/><text fill="#000000" font-family="sans-serif" font-size="14" lengthAdjust="spacingAndGlyphs" textLength="65" x="1030" y="767.2686">HangMan</text><rect fill="#FFFFFF" filter="url(#fn38t4i)" height="297" style="stroke: #000000; stroke-width: 2.0;" width="1113" x="13" y="1377.6953"/><rect fill="#FFFFFF" filter="url(#fn38t4i)" height="46.2656" style="stroke: #000000; stroke-width: 2.0;" width="367.5" x="23" y="1430.9609"/><rect fill="#FFFFFF" height="147.3359" style="stroke: none; stroke-width: 1.0;" width="1113" x="13" y="1527.3594"/><rect fill="#FFFFFF" filter="url(#fn38t4i)" height="46.2656" style="stroke: #000000; stroke-width: 2.0;" width="1093" x="23" y="1578.2969"/><line style="stroke: #A80036; stroke-width: 1.0; stroke-dasharray: 5.0,5.0;" x1="64" x2="64" y1="86.2969" y2="1786.9609"/><line style="stroke: #A80036; stroke-width: 1.0; stroke-dasharray: 5.0,5.0;" x1="168.5" x2="168.5" y1="172.0781" y2="1786.9609"/><line style="stroke: #A80036; stroke-width: 1.0; stroke-dasharray: 5.0,5.0;" x1="337.5" x2="337.5" y1="217.375" y2="1786.9609"/><line style="stroke: #A80036; stroke-width: 1.0; stroke-dasharray: 5.0,5.0;" x1="513.5" x2="513.5" y1="320.9375" y2="1786.9609"/><line style="stroke: #A80036; stroke-width: 1.0; stroke-dasharray: 5.0,5.0;" x1="603.5" x2="603.5" y1="380.2344" y2="1786.9609"/><line style="stroke: #A80036; stroke-width: 1.0; stroke-dasharray: 5.0,5.0;" x1="802.5" x2="802.5" y1="449.6641" y2="1786.9609"/><line style="stroke: #A80036; stroke-width: 1.0; stroke-dasharray: 5.0,5.0;" x1="979" x2="979" y1="533.0938" y2="1786.9609"/><line style="stroke: #A80036; stroke-width: 1.0; stroke-dasharray: 5.0,5.0;" x1="1064" x2="1064" y1="779.9219" y2="1786.9609"/><text fill="#000000" font-family="sans-serif" font-size="14" lengthAdjust="spacingAndGlyphs" textLength="57" x="33" y="82.9951">Browser</text><ellipse cx="64.5" cy="13" fill="#FEFECE" filter="url(#fn38t4i)" rx="8" ry="8" style="stroke: #A80036; stroke-width: 2.0;"/><path d="M64.5,21 L64.5,48 M51.5,29 L77.5,29 M64.5,48 L51.5,63 M64.5,48 L77.5,63 " fill="#FEFECE" filter="url(#fn38t4i)" style="stroke: #A80036; stroke-width: 2.0;"/><text fill="#000000" font-family="sans-serif" font-size="14" lengthAdjust="spacingAndGlyphs" textLength="57" x="33" y="1798.9561">Browser</text><ellipse cx="64.5" cy="1812.2578" fill="#FEFECE" filter="url(#fn38t4i)" rx="8" ry="8" style="stroke: #A80036; stroke-width: 2.0;"/><path d="M64.5,1820.2578 L64.5,1847.2578 M51.5,1828.2578 L77.5,1828.2578 M64.5,1847.2578 L51.5,1862.2578 M64.5,1847.2578 L77.5,1862.2578 " fill="#FEFECE" filter="url(#fn38t4i)" style="stroke: #A80036; stroke-width: 2.0;"/><rect fill="#FEFECE" filter="url(#fn38t4i)" height="30.2969" style="stroke: #A80036; stroke-width: 1.5;" width="55" x="139.5" y="1785.9609"/><text fill="#000000" font-family="sans-serif" font-size="14" lengthAdjust="spacingAndGlyphs" textLength="41" x="146.5" y="1805.9561">Game</text><rect fill="#FEFECE" filter="url(#fn38t4i)" height="30.2969" style="stroke: #A80036; stroke-width: 1.5;" width="81" x="295.5" y="1785.9609"/><text fill="#000000" font-family="sans-serif" font-size="14" lengthAdjust="spacingAndGlyphs" textLength="67" x="302.5" y="1805.9561">Password</text><rect fill="#FEFECE" filter="url(#fn38t4i)" height="30.2969" style="stroke: #A80036; stroke-width: 1.5;" width="73" x="475.5" y="1785.9609"/><text fill="#000000" font-family="sans-serif" font-size="14" lengthAdjust="spacingAndGlyphs" textLength="59" x="482.5" y="1805.9561">Validator</text><rect fill="#FEFECE" filter="url(#fn38t4i)" height="30.2969" style="stroke: #A80036; stroke-width: 1.5;" width="79" x="562.5" y="1785.9609"/><text fill="#000000" font-family="sans-serif" font-size="14" lengthAdjust="spacingAndGlyphs" textLength="65" x="569.5" y="1805.9561">Keyboard</text><rect fill="#FEFECE" filter="url(#fn38t4i)" height="30.2969" style="stroke: #A80036; stroke-width: 1.5;" width="39" x="781.5" y="1785.9609"/><text fill="#000000" font-family="sans-serif" font-size="14" lengthAdjust="spacingAndGlyphs" textLength="25" x="788.5" y="1805.9561">Key</text><rect fill="#FEFECE" filter="url(#fn38t4i)" height="30.2969" style="stroke: #A80036; stroke-width: 1.5;" width="64" x="945" y="1785.9609"/><text fill="#000000" font-family="sans-serif" font-size="14" lengthAdjust="spacingAndGlyphs" textLength="50" x="952" y="1805.9561">Cutting</text><rect fill="#FEFECE" filter="url(#fn38t4i)" height="30.2969" style="stroke: #A80036; stroke-width: 1.5;" width="79" x="1023" y="1785.9609"/><text fill="#000000" font-family="sans-serif" font-size="14" lengthAdjust="spacingAndGlyphs" textLength="65" x="1030" y="1805.9561">HangMan</text><rect fill="#EEEEEE" filter="url(#fn38t4i)" height="3" style="stroke: #EEEEEE; stroke-width: 1.0;" width="1133" x="3" y="116.8633"/><line style="stroke: #000000; stroke-width: 1.0;" x1="3" x2="1136" y1="116.8633" y2="116.8633"/><line style="stroke: #000000; stroke-width: 1.0;" x1="3" x2="1136" y1="119.8633" y2="119.8633"/><rect fill="#EEEEEE" filter="url(#fn38t4i)" height="23.1328" style="stroke: #000000; stroke-width: 2.0;" width="108" x="515.5" y="106.2969"/><text fill="#000000" font-family="sans-serif" font-size="13" font-weight="bold" lengthAdjust="spacingAndGlyphs" textLength="89" x="521.5" y="122.3638">Initialization</text><polygon fill="#A80036" points="127.5,156.4297,137.5,160.4297,127.5,164.4297,131.5,160.4297" style="stroke: #A80036; stroke-width: 1.0;"/><line style="stroke: #A80036; stroke-width: 1.0;" x1="64.5" x2="133.5" y1="160.4297" y2="160.4297"/><text fill="#000000" font-family="sans-serif" font-size="13" lengthAdjust="spacingAndGlyphs" textLength="51" x="71.5" y="155.4966">create()</text><rect fill="#FEFECE" filter="url(#fn38t4i)" height="30.2969" style="stroke: #A80036; stroke-width: 1.5;" width="55" x="139.5" y="139.4297"/><text fill="#000000" font-family="sans-serif" font-size="14" lengthAdjust="spacingAndGlyphs" textLength="41" x="146.5" y="159.4248">Game</text><polygon fill="#A80036" points="283.5,201.7266,293.5,205.7266,283.5,209.7266,287.5,205.7266" style="stroke: #A80036; stroke-width: 1.0;"/><line style="stroke: #A80036; stroke-width: 1.0;" x1="169" x2="289.5" y1="205.7266" y2="205.7266"/><text fill="#000000" font-family="sans-serif" font-size="13" lengthAdjust="spacingAndGlyphs" textLength="51" x="176" y="200.7935">create()</text><rect fill="#FEFECE" filter="url(#fn38t4i)" height="30.2969" style="stroke: #A80036; stroke-width: 1.5;" width="81" x="295.5" y="184.7266"/><text fill="#000000" font-family="sans-serif" font-size="14" lengthAdjust="spacingAndGlyphs" textLength="67" x="302.5" y="204.7217">Password</text><polygon fill="#A80036" points="326,247.0234,336,251.0234,326,255.0234,330,251.0234" style="stroke: #A80036; stroke-width: 1.0;"/><line style="stroke: #A80036; stroke-width: 1.0;" x1="169" x2="332" y1="251.0234" y2="251.0234"/><text fill="#000000" font-family="sans-serif" font-size="13" lengthAdjust="spacingAndGlyphs" textLength="108" x="176" y="246.0903">selectPassword()</text><polygon fill="#A80036" points="180,276.1563,170,280.1563,180,284.1563,176,280.1563" style="stroke: #A80036; stroke-width: 1.0;"/><line style="stroke: #A80036; stroke-width: 1.0; stroke-dasharray: 2.0,2.0;" x1="174" x2="337" y1="280.1563" y2="280.1563"/><text fill="#000000" font-family="sans-serif" font-size="13" lengthAdjust="spacingAndGlyphs" textLength="60" x="186" y="275.2231">password</text><polygon fill="#A80036" points="463.5,305.2891,473.5,309.2891,463.5,313.2891,467.5,309.2891" style="stroke: #A80036; stroke-width: 1.0;"/><line style="stroke: #A80036; stroke-width: 1.0;" x1="169" x2="469.5" y1="309.2891" y2="309.2891"/><text fill="#000000" font-family="sans-serif" font-size="13" lengthAdjust="spacingAndGlyphs" textLength="111" x="176" y="304.356">create(password)</text><rect fill="#FEFECE" filter="url(#fn38t4i)" height="30.2969" style="stroke: #A80036; stroke-width: 1.5;" width="73" x="475.5" y="288.2891"/><text fill="#000000" font-family="sans-serif" font-size="14" lengthAdjust="spacingAndGlyphs" textLength="59" x="482.5" y="308.2842">Validator</text><polygon fill="#A80036" points="180,335.5859,170,339.5859,180,343.5859,176,339.5859" style="stroke: #A80036; stroke-width: 1.0;"/><line style="stroke: #A80036; stroke-width: 1.0; stroke-dasharray: 2.0,2.0;" x1="174" x2="513" y1="339.5859" y2="339.5859"/><polygon fill="#A80036" points="550.5,364.5859,560.5,368.5859,550.5,372.5859,554.5,368.5859" style="stroke: #A80036; stroke-width: 1.0;"/><line style="stroke: #A80036; stroke-width: 1.0;" x1="169" x2="556.5" y1="368.5859" y2="368.5859"/><text fill="#000000" font-family="sans-serif" font-size="13" lengthAdjust="spacingAndGlyphs" textLength="106" x="176" y="363.6528">create(validator)</text><rect fill="#FEFECE" filter="url(#fn38t4i)" height="30.2969" style="stroke: #A80036; stroke-width: 1.5;" width="79" x="562.5" y="347.5859"/><text fill="#000000" font-family="sans-serif" font-size="14" lengthAdjust="spacingAndGlyphs" textLength="65" x="569.5" y="367.5811">Keyboard</text><rect fill="none" height="166.8594" style="stroke: #000000; stroke-width: 2.0;" width="490.5" x="542.5" y="399.8828"/><polygon fill="#EEEEEE" points="542.5,399.8828,619.5,399.8828,619.5,406.8828,609.5,416.8828,542.5,416.8828,542.5,399.8828" style="stroke: #000000; stroke-width: 2.0;"/><text fill="#000000" font-family="sans-serif" font-size="13" font-weight="bold" lengthAdjust="spacingAndGlyphs" textLength="32" x="557.5" y="412.9497">loop</text><text fill="#000000" font-family="sans-serif" font-size="11" font-weight="bold" lengthAdjust="spacingAndGlyphs" textLength="170" x="634.5" y="412.0933">[for each figure in figures]</text><polygon fill="#A80036" points="769.5,434.0156,779.5,438.0156,769.5,442.0156,773.5,438.0156" style="stroke: #A80036; stroke-width: 1.0;"/><line style="stroke: #A80036; stroke-width: 1.0;" x1="604" x2="775.5" y1="438.0156" y2="438.0156"/><text fill="#000000" font-family="sans-serif" font-size="13" lengthAdjust="spacingAndGlyphs" textLength="151" x="611" y="433.0825">create(figure, alphabet)</text><rect fill="#FEFECE" filter="url(#fn38t4i)" height="30.2969" style="stroke: #A80036; stroke-width: 1.5;" width="39" x="781.5" y="417.0156"/><text fill="#000000" font-family="sans-serif" font-size="14" lengthAdjust="spacingAndGlyphs" textLength="25" x="788.5" y="437.0107">Key</text><polygon fill="#A80036" points="615,464.3125,605,468.3125,615,472.3125,611,468.3125" style="stroke: #A80036; stroke-width: 1.0;"/><line style="stroke: #A80036; stroke-width: 1.0; stroke-dasharray: 2.0,2.0;" x1="609" x2="802" y1="468.3125" y2="468.3125"/><rect fill="none" height="76.4297" style="stroke: #000000; stroke-width: 2.0;" width="470.5" x="552.5" y="483.3125"/><polygon fill="#EEEEEE" points="552.5,483.3125,616.5,483.3125,616.5,490.3125,606.5,500.3125,552.5,500.3125,552.5,483.3125" style="stroke: #000000; stroke-width: 2.0;"/><text fill="#000000" font-family="sans-serif" font-size="13" font-weight="bold" lengthAdjust="spacingAndGlyphs" textLength="19" x="567.5" y="496.3794">alt</text><text fill="#000000" font-family="sans-serif" font-size="11" font-weight="bold" lengthAdjust="spacingAndGlyphs" textLength="153" x="631.5" y="495.5229">["(index + 1) % 7 == 0"]</text><polygon fill="#A80036" points="933,517.4453,943,521.4453,933,525.4453,937,521.4453" style="stroke: #A80036; stroke-width: 1.0;"/><line style="stroke: #A80036; stroke-width: 1.0;" x1="604" x2="939" y1="521.4453" y2="521.4453"/><text fill="#000000" font-family="sans-serif" font-size="13" lengthAdjust="spacingAndGlyphs" textLength="107" x="611" y="516.5122">create(alphabet)</text><rect fill="#FEFECE" filter="url(#fn38t4i)" height="30.2969" style="stroke: #A80036; stroke-width: 1.5;" width="64" x="945" y="500.4453"/><text fill="#000000" font-family="sans-serif" font-size="14" lengthAdjust="spacingAndGlyphs" textLength="50" x="952" y="520.4404">Cutting</text><polygon fill="#A80036" points="615,547.7422,605,551.7422,615,555.7422,611,551.7422" style="stroke: #A80036; stroke-width: 1.0;"/><line style="stroke: #A80036; stroke-width: 1.0; stroke-dasharray: 2.0,2.0;" x1="609" x2="978" y1="551.7422" y2="551.7422"/><line style="stroke: #A80036; stroke-width: 1.0;" x1="604" x2="646" y1="594.875" y2="594.875"/><line style="stroke: #A80036; stroke-width: 1.0;" x1="646" x2="646" y1="594.875" y2="607.875"/><line style="stroke: #A80036; stroke-width: 1.0;" x1="605" x2="646" y1="607.875" y2="607.875"/><polygon fill="#A80036" points="615,603.875,605,607.875,615,611.875,611,607.875" style="stroke: #A80036; stroke-width: 1.0;"/><text fill="#000000" font-family="sans-serif" font-size="13" lengthAdjust="spacingAndGlyphs" textLength="175" x="611" y="589.8091">setOnClickHandler(handler)</text><rect fill="none" height="103.3984" style="stroke: #000000; stroke-width: 2.0;" width="811.5" x="23" y="622.875"/><polygon fill="#EEEEEE" points="23,622.875,100,622.875,100,629.875,90,639.875,23,639.875,23,622.875" style="stroke: #000000; stroke-width: 2.0;"/><text fill="#000000" font-family="sans-serif" font-size="13" font-weight="bold" lengthAdjust="spacingAndGlyphs" textLength="32" x="38" y="635.9419">loop</text><text fill="#000000" font-family="sans-serif" font-size="11" font-weight="bold" lengthAdjust="spacingAndGlyphs" textLength="172" x="115" y="635.0854">[for each key in drawKeys]</text><polygon fill="#A80036" points="791,657.0078,801,661.0078,791,665.0078,795,661.0078" style="stroke: #A80036; stroke-width: 1.0;"/><line style="stroke: #A80036; stroke-width: 1.0;" x1="604" x2="797" y1="661.0078" y2="661.0078"/><text fill="#000000" font-family="sans-serif" font-size="13" lengthAdjust="spacingAndGlyphs" textLength="175" x="611" y="656.0747">setOnClickHandler(handler)</text><polygon fill="#A80036" points="75.5,686.1406,65.5,690.1406,75.5,694.1406,71.5,690.1406" style="stroke: #A80036; stroke-width: 1.0;"/><line style="stroke: #A80036; stroke-width: 1.0;" x1="69.5" x2="802" y1="690.1406" y2="690.1406"/><text fill="#000000" font-family="sans-serif" font-size="13" lengthAdjust="spacingAndGlyphs" textLength="132" x="81.5" y="685.2075">onClink(Key::onClick)</text><polygon fill="#A80036" points="791,700.2734,801,704.2734,791,708.2734,795,704.2734" style="stroke: #A80036; stroke-width: 1.0;"/><line style="stroke: #A80036; stroke-width: 1.0; stroke-dasharray: 2.0,2.0;" x1="64.5" x2="797" y1="704.2734" y2="704.2734"/><polygon fill="#A80036" points="615,714.2734,605,718.2734,615,722.2734,611,718.2734" style="stroke: #A80036; stroke-width: 1.0;"/><line style="stroke: #A80036; stroke-width: 1.0; stroke-dasharray: 2.0,2.0;" x1="609" x2="802" y1="718.2734" y2="718.2734"/><polygon fill="#A80036" points="180,735.2734,170,739.2734,180,743.2734,176,739.2734" style="stroke: #A80036; stroke-width: 1.0;"/><line style="stroke: #A80036; stroke-width: 1.0; stroke-dasharray: 2.0,2.0;" x1="174" x2="603" y1="739.2734" y2="739.2734"/><polygon fill="#A80036" points="1011,764.2734,1021,768.2734,1011,772.2734,1015,768.2734" style="stroke: #A80036; stroke-width: 1.0;"/><line style="stroke: #A80036; stroke-width: 1.0;" x1="169" x2="1017" y1="768.2734" y2="768.2734"/><text fill="#000000" font-family="sans-serif" font-size="13" lengthAdjust="spacingAndGlyphs" textLength="51" x="176" y="763.3403">create()</text><rect fill="#FEFECE" filter="url(#fn38t4i)" height="30.2969" style="stroke: #A80036; stroke-width: 1.5;" width="79" x="1023" y="747.2734"/><text fill="#000000" font-family="sans-serif" font-size="14" lengthAdjust="spacingAndGlyphs" textLength="65" x="1030" y="767.2686">HangMan</text><line style="stroke: #A80036; stroke-width: 1.0;" x1="169" x2="211" y1="813.7031" y2="813.7031"/><line style="stroke: #A80036; stroke-width: 1.0;" x1="211" x2="211" y1="813.7031" y2="826.7031"/><line style="stroke: #A80036; stroke-width: 1.0;" x1="170" x2="211" y1="826.7031" y2="826.7031"/><polygon fill="#A80036" points="180,822.7031,170,826.7031,180,830.7031,176,826.7031" style="stroke: #A80036; stroke-width: 1.0;"/><text fill="#000000" font-family="sans-serif" font-size="13" lengthAdjust="spacingAndGlyphs" textLength="71" x="176" y="808.6372">subscribe()</text><rect fill="#FFFFFF" filter="url(#fn38t4i)" height="40.2656" style="stroke: #000000; stroke-width: 2.0;" width="968.5" x="136.5" y="834.7031"/><polygon fill="#EEEEEE" points="136.5,834.7031,202.5,834.7031,202.5,841.7031,192.5,851.7031,136.5,851.7031,136.5,834.7031" style="stroke: #000000; stroke-width: 2.0;"/><text fill="#000000" font-family="sans-serif" font-size="13" font-weight="bold" lengthAdjust="spacingAndGlyphs" textLength="21" x="149.5" y="848.77">ref</text><text fill="#000000" font-family="sans-serif" font-size="13" lengthAdjust="spacingAndGlyphs" textLength="118" x="563.75" y="867.77">Game::subscribe()</text><line style="stroke: #A80036; stroke-width: 1.0;" x1="169" x2="211" y1="901.1016" y2="901.1016"/><line style="stroke: #A80036; stroke-width: 1.0;" x1="211" x2="211" y1="901.1016" y2="914.1016"/><line style="stroke: #A80036; stroke-width: 1.0;" x1="170" x2="211" y1="914.1016" y2="914.1016"/><polygon fill="#A80036" points="180,910.1016,170,914.1016,180,918.1016,176,914.1016" style="stroke: #A80036; stroke-width: 1.0;"/><text fill="#000000" font-family="sans-serif" font-size="13" lengthAdjust="spacingAndGlyphs" textLength="40" x="176" y="896.0356">draw()</text><rect fill="#FFFFFF" filter="url(#fn38t4i)" height="40.2656" style="stroke: #000000; stroke-width: 2.0;" width="968.5" x="136.5" y="922.1016"/><polygon fill="#EEEEEE" points="136.5,922.1016,202.5,922.1016,202.5,929.1016,192.5,939.1016,136.5,939.1016,136.5,922.1016" style="stroke: #000000; stroke-width: 2.0;"/><text fill="#000000" font-family="sans-serif" font-size="13" font-weight="bold" lengthAdjust="spacingAndGlyphs" textLength="21" x="149.5" y="936.1685">ref</text><text fill="#000000" font-family="sans-serif" font-size="13" lengthAdjust="spacingAndGlyphs" textLength="87" x="579.25" y="955.1685">Game::draw()</text><polygon fill="#A80036" points="75.5,969.3672,65.5,973.3672,75.5,977.3672,71.5,973.3672" style="stroke: #A80036; stroke-width: 1.0;"/><line style="stroke: #A80036; stroke-width: 1.0; stroke-dasharray: 2.0,2.0;" x1="69.5" x2="168" y1="973.3672" y2="973.3672"/><rect fill="#EEEEEE" filter="url(#fn38t4i)" height="3" style="stroke: #EEEEEE; stroke-width: 1.0;" width="1133" x="3" y="1001.9336"/><line style="stroke: #000000; stroke-width: 1.0;" x1="3" x2="1136" y1="1001.9336" y2="1001.9336"/><line style="stroke: #000000; stroke-width: 1.0;" x1="3" x2="1136" y1="1004.9336" y2="1004.9336"/><rect fill="#EEEEEE" filter="url(#fn38t4i)" height="23.1328" style="stroke: #000000; stroke-width: 2.0;" width="156" x="491.5" y="991.3672"/><text fill="#000000" font-family="sans-serif" font-size="13" font-weight="bold" lengthAdjust="spacingAndGlyphs" textLength="137" x="497.5" y="1007.4341">Game::subscribe()</text><polygon fill="#A80036" points="502,1041.5,512,1045.5,502,1049.5,506,1045.5" style="stroke: #A80036; stroke-width: 1.0;"/><line style="stroke: #A80036; stroke-width: 1.0;" x1="169" x2="508" y1="1045.5" y2="1045.5"/><text fill="#000000" font-family="sans-serif" font-size="13" lengthAdjust="spacingAndGlyphs" textLength="283" x="176" y="1040.5669">subscribe(Action::Ok, Password::showFigure)</text><polygon fill="#A80036" points="502,1070.6328,512,1074.6328,502,1078.6328,506,1074.6328" style="stroke: #A80036; stroke-width: 1.0;"/><line style="stroke: #A80036; stroke-width: 1.0;" x1="169" x2="508" y1="1074.6328" y2="1074.6328"/><text fill="#000000" font-family="sans-serif" font-size="13" lengthAdjust="spacingAndGlyphs" textLength="321" x="176" y="1069.6997">subscribe(Action::Nok, HangMan::drawNextImage)</text><polygon fill="#A80036" points="180,1084.7656,170,1088.7656,180,1092.7656,176,1088.7656" style="stroke: #A80036; stroke-width: 1.0;"/><line style="stroke: #A80036; stroke-width: 1.0; stroke-dasharray: 2.0,2.0;" x1="174" x2="513" y1="1088.7656" y2="1088.7656"/><rect fill="#EEEEEE" filter="url(#fn38t4i)" height="3" style="stroke: #EEEEEE; stroke-width: 1.0;" width="1133" x="3" y="1117.332"/><line style="stroke: #000000; stroke-width: 1.0;" x1="3" x2="1136" y1="1117.332" y2="1117.332"/><line style="stroke: #000000; stroke-width: 1.0;" x1="3" x2="1136" y1="1120.332" y2="1120.332"/><rect fill="#EEEEEE" filter="url(#fn38t4i)" height="23.1328" style="stroke: #000000; stroke-width: 2.0;" width="121" x="509" y="1106.7656"/><text fill="#000000" font-family="sans-serif" font-size="13" font-weight="bold" lengthAdjust="spacingAndGlyphs" textLength="102" x="515" y="1122.8325">Game::draw()</text><polygon fill="#A80036" points="326,1156.8984,336,1160.8984,326,1164.8984,330,1160.8984" style="stroke: #A80036; stroke-width: 1.0;"/><line style="stroke: #A80036; stroke-width: 1.0;" x1="169" x2="332" y1="1160.8984" y2="1160.8984"/><text fill="#000000" font-family="sans-serif" font-size="13" lengthAdjust="spacingAndGlyphs" textLength="145" x="176" y="1155.9653">drawHiddenPassword()</text><polygon fill="#A80036" points="180,1171.0313,170,1175.0313,180,1179.0313,176,1175.0313" style="stroke: #A80036; stroke-width: 1.0;"/><line style="stroke: #A80036; stroke-width: 1.0; stroke-dasharray: 2.0,2.0;" x1="174" x2="337" y1="1175.0313" y2="1175.0313"/><polygon fill="#A80036" points="592,1200.0313,602,1204.0313,592,1208.0313,596,1204.0313" style="stroke: #A80036; stroke-width: 1.0;"/><line style="stroke: #A80036; stroke-width: 1.0;" x1="169" x2="598" y1="1204.0313" y2="1204.0313"/><text fill="#000000" font-family="sans-serif" font-size="13" lengthAdjust="spacingAndGlyphs" textLength="70" x="176" y="1199.0981">drawKeys()</text><polygon fill="#A80036" points="180,1214.1641,170,1218.1641,180,1222.1641,176,1218.1641" style="stroke: #A80036; stroke-width: 1.0;"/><line style="stroke: #A80036; stroke-width: 1.0; stroke-dasharray: 2.0,2.0;" x1="174" x2="603" y1="1218.1641" y2="1218.1641"/><polygon fill="#A80036" points="1052.5,1243.1641,1062.5,1247.1641,1052.5,1251.1641,1056.5,1247.1641" style="stroke: #A80036; stroke-width: 1.0;"/><line style="stroke: #A80036; stroke-width: 1.0;" x1="169" x2="1058.5" y1="1247.1641" y2="1247.1641"/><text fill="#000000" font-family="sans-serif" font-size="13" lengthAdjust="spacingAndGlyphs" textLength="110" x="176" y="1242.231">drawNextImage()</text><polygon fill="#A80036" points="180,1257.2969,170,1261.2969,180,1265.2969,176,1261.2969" style="stroke: #A80036; stroke-width: 1.0;"/><line style="stroke: #A80036; stroke-width: 1.0; stroke-dasharray: 2.0,2.0;" x1="174" x2="1063.5" y1="1261.2969" y2="1261.2969"/><rect fill="#EEEEEE" filter="url(#fn38t4i)" height="3" style="stroke: #EEEEEE; stroke-width: 1.0;" width="1133" x="3" y="1289.8633"/><line style="stroke: #000000; stroke-width: 1.0;" x1="3" x2="1136" y1="1289.8633" y2="1289.8633"/><line style="stroke: #000000; stroke-width: 1.0;" x1="3" x2="1136" y1="1292.8633" y2="1292.8633"/><rect fill="#EEEEEE" filter="url(#fn38t4i)" height="23.1328" style="stroke: #000000; stroke-width: 2.0;" width="154" x="492.5" y="1279.2969"/><text fill="#000000" font-family="sans-serif" font-size="13" font-weight="bold" lengthAdjust="spacingAndGlyphs" textLength="135" x="498.5" y="1295.3638">Browser::onClick()</text><polygon fill="#A80036" points="791,1329.4297,801,1333.4297,791,1337.4297,795,1333.4297" style="stroke: #A80036; stroke-width: 1.0;"/><line style="stroke: #A80036; stroke-width: 1.0;" x1="64.5" x2="797" y1="1333.4297" y2="1333.4297"/><text fill="#000000" font-family="sans-serif" font-size="13" lengthAdjust="spacingAndGlyphs" textLength="55" x="71.5" y="1328.4966">onClick()</text><polygon fill="#A80036" points="525,1358.5625,515,1362.5625,525,1366.5625,521,1362.5625" style="stroke: #A80036; stroke-width: 1.0;"/><line style="stroke: #A80036; stroke-width: 1.0;" x1="519" x2="802" y1="1362.5625" y2="1362.5625"/><text fill="#000000" font-family="sans-serif" font-size="13" lengthAdjust="spacingAndGlyphs" textLength="135" x="531" y="1357.6294">validateFigure(figure)</text><rect fill="none" height="297" style="stroke: #000000; stroke-width: 2.0;" width="1113" x="13" y="1377.6953"/><polygon fill="#EEEEEE" points="13,1377.6953,77,1377.6953,77,1384.6953,67,1394.6953,13,1394.6953,13,1377.6953" style="stroke: #000000; stroke-width: 2.0;"/><text fill="#000000" font-family="sans-serif" font-size="13" font-weight="bold" lengthAdjust="spacingAndGlyphs" textLength="19" x="28" y="1390.7622">alt</text><text fill="#000000" font-family="sans-serif" font-size="11" font-weight="bold" lengthAdjust="spacingAndGlyphs" textLength="97" x="92" y="1389.9058">[validation OK]</text><polygon fill="#A80036" points="349,1411.8281,339,1415.8281,349,1419.8281,345,1415.8281" style="stroke: #A80036; stroke-width: 1.0;"/><line style="stroke: #A80036; stroke-width: 1.0;" x1="343" x2="513" y1="1415.8281" y2="1415.8281"/><text fill="#000000" font-family="sans-serif" font-size="13" lengthAdjust="spacingAndGlyphs" textLength="117" x="355" y="1410.895">showFigure(figure)</text><rect fill="none" height="46.2656" style="stroke: #000000; stroke-width: 2.0;" width="367.5" x="23" y="1430.9609"/><polygon fill="#EEEEEE" points="23,1430.9609,87,1430.9609,87,1437.9609,77,1447.9609,23,1447.9609,23,1430.9609" style="stroke: #000000; stroke-width: 2.0;"/><text fill="#000000" font-family="sans-serif" font-size="13" font-weight="bold" lengthAdjust="spacingAndGlyphs" textLength="19" x="38" y="1444.0278">alt</text><text fill="#000000" font-family="sans-serif" font-size="11" font-weight="bold" lengthAdjust="spacingAndGlyphs" textLength="130" x="102" y="1443.1714">[password guessed]</text><polygon fill="#A80036" points="75.5,1465.0938,65.5,1469.0938,75.5,1473.0938,71.5,1469.0938" style="stroke: #A80036; stroke-width: 1.0;"/><line style="stroke: #A80036; stroke-width: 1.0;" x1="69.5" x2="337" y1="1469.0938" y2="1469.0938"/><text fill="#000000" font-family="sans-serif" font-size="13" lengthAdjust="spacingAndGlyphs" textLength="62" x="81.5" y="1464.1606">show(win)</text><polygon fill="#A80036" points="502,1486.2266,512,1490.2266,502,1494.2266,506,1490.2266" style="stroke: #A80036; stroke-width: 1.0;"/><line style="stroke: #A80036; stroke-width: 1.0; stroke-dasharray: 2.0,2.0;" x1="338" x2="508" y1="1490.2266" y2="1490.2266"/><polygon fill="#A80036" points="791,1515.2266,801,1519.2266,791,1523.2266,795,1519.2266" style="stroke: #A80036; stroke-width: 1.0;"/><line style="stroke: #A80036; stroke-width: 1.0; stroke-dasharray: 2.0,2.0;" x1="514" x2="797" y1="1519.2266" y2="1519.2266"/><text fill="#000000" font-family="sans-serif" font-size="13" lengthAdjust="spacingAndGlyphs" textLength="26" x="521" y="1514.2935">true</text><line style="stroke: #000000; stroke-width: 1.0; stroke-dasharray: 2.0,2.0;" x1="13" x2="1126" y1="1528.3594" y2="1528.3594"/><text fill="#000000" font-family="sans-serif" font-size="11" font-weight="bold" lengthAdjust="spacingAndGlyphs" textLength="106" x="18" y="1538.5698">[validation NOK]</text><polygon fill="#A80036" points="1052.5,1559.1641,1062.5,1563.1641,1052.5,1567.1641,1056.5,1563.1641" style="stroke: #A80036; stroke-width: 1.0;"/><line style="stroke: #A80036; stroke-width: 1.0;" x1="514" x2="1058.5" y1="1563.1641" y2="1563.1641"/><text fill="#000000" font-family="sans-serif" font-size="13" lengthAdjust="spacingAndGlyphs" textLength="110" x="521" y="1558.231">drawNextImage()</text><rect fill="none" height="46.2656" style="stroke: #000000; stroke-width: 2.0;" width="1093" x="23" y="1578.2969"/><polygon fill="#EEEEEE" points="23,1578.2969,87,1578.2969,87,1585.2969,77,1595.2969,23,1595.2969,23,1578.2969" style="stroke: #000000; stroke-width: 2.0;"/><text fill="#000000" font-family="sans-serif" font-size="13" font-weight="bold" lengthAdjust="spacingAndGlyphs" textLength="19" x="38" y="1591.3638">alt</text><text fill="#000000" font-family="sans-serif" font-size="11" font-weight="bold" lengthAdjust="spacingAndGlyphs" textLength="73" x="102" y="1590.5073">[game lost]</text><polygon fill="#A80036" points="75.5,1612.4297,65.5,1616.4297,75.5,1620.4297,71.5,1616.4297" style="stroke: #A80036; stroke-width: 1.0;"/><line style="stroke: #A80036; stroke-width: 1.0;" x1="69.5" x2="1063.5" y1="1616.4297" y2="1616.4297"/><text fill="#000000" font-family="sans-serif" font-size="13" lengthAdjust="spacingAndGlyphs" textLength="76" x="81.5" y="1611.4966">show(failed)</text><polygon fill="#A80036" points="525,1633.5625,515,1637.5625,525,1641.5625,521,1637.5625" style="stroke: #A80036; stroke-width: 1.0;"/><line style="stroke: #A80036; stroke-width: 1.0; stroke-dasharray: 2.0,2.0;" x1="519" x2="1063.5" y1="1637.5625" y2="1637.5625"/><polygon fill="#A80036" points="791,1662.5625,801,1666.5625,791,1670.5625,795,1666.5625" style="stroke: #A80036; stroke-width: 1.0;"/><line style="stroke: #A80036; stroke-width: 1.0; stroke-dasharray: 2.0,2.0;" x1="514" x2="797" y1="1666.5625" y2="1666.5625"/><text fill="#000000" font-family="sans-serif" font-size="13" lengthAdjust="spacingAndGlyphs" textLength="30" x="521" y="1661.6294">false</text><polygon fill="#FBFB77" filter="url(#fn38t4i)" points="808,1686.6953,808,1711.6953,964,1711.6953,964,1696.6953,954,1686.6953,808,1686.6953" style="stroke: #A80036; stroke-width: 1.0;"/><line style="stroke: #A80036; stroke-width: 1.0;" x1="954" x2="954" y1="1686.6953" y2="1696.6953"/><line style="stroke: #A80036; stroke-width: 1.0;" x1="964" x2="954" y1="1696.6953" y2="1696.6953"/><text fill="#000000" font-family="sans-serif" font-size="13" lengthAdjust="spacingAndGlyphs" textLength="135" x="814" y="1703.7622">result = {true, false}</text><line style="stroke: #A80036; stroke-width: 1.0;" x1="803" x2="845" y1="1741.9609" y2="1741.9609"/><line style="stroke: #A80036; stroke-width: 1.0;" x1="845" x2="845" y1="1741.9609" y2="1754.9609"/><line style="stroke: #A80036; stroke-width: 1.0;" x1="804" x2="845" y1="1754.9609" y2="1754.9609"/><polygon fill="#A80036" points="814,1750.9609,804,1754.9609,814,1758.9609,810,1754.9609" style="stroke: #A80036; stroke-width: 1.0;"/><text fill="#000000" font-family="sans-serif" font-size="13" lengthAdjust="spacingAndGlyphs" textLength="162" x="810" y="1736.895">markFigure(figure, result)</text><polygon fill="#A80036" points="75.5,1764.9609,65.5,1768.9609,75.5,1772.9609,71.5,1768.9609" style="stroke: #A80036; stroke-width: 1.0;"/><line style="stroke: #A80036; stroke-width: 1.0; stroke-dasharray: 2.0,2.0;" x1="69.5" x2="802" y1="1768.9609" y2="1768.9609"/></g></svg>