<?xml version="1.0" encoding="UTF-8" standalone="no"?><svg xmlns="http://www.w3.org/2000/svg" xmlns:xlink="http://www.w3.org/1999/xlink" contentScriptType="application/ecmascript" contentStyleType="text/css" height="1574px" preserveAspectRatio="none" style="width:946px;height:1574px;" version="1.1" viewBox="0 0 946 1574" width="946px" zoomAndPan="magnify"><defs><filter height="300%" id="fe5x5gi" width="300%" x="-1" y="-1"><feGaussianBlur result="blurOut" stdDeviation="2.0"/><feColorMatrix in="blurOut" result="blurOut2" type="matrix" values="0 0 0 0 0 0 0 0 0 0 0 0 0 0 0 0 0 0 .4 0"/><feOffset dx="4.0" dy="4.0" in="blurOut2" result="blurOut3"/><feBlend in="SourceGraphic" in2="blurOut3" mode="normal"/></filter></defs><g><rect fill="#FEFECE" filter="url(#fe5x5gi)" height="30.2969" style="stroke: #A80036; stroke-width: 1.5;" width="55" x="139.5" y="139.4297"/><text fill="#000000" font-family="sans-serif" font-size="14" lengthAdjust="spacingAndGlyphs" textLength="41" x="146.5" y="159.4248">Game</text><rect fill="#FEFECE" filter="url(#fe5x5gi)" height="30.2969" style="stroke: #A80036; stroke-width: 1.5;" width="81" x="295.5" y="184.7266"/><text fill="#000000" font-family="sans-serif" font-size="14" lengthAdjust="spacingAndGlyphs" textLength="67" x="302.5" y="204.7217">Password</text><rect fill="#FEFECE" filter="url(#fe5x5gi)" height="30.2969" style="stroke: #A80036; stroke-width: 1.5;" width="73" x="475.5" y="288.2891"/><text fill="#000000" font-family="sans-serif" font-size="14" lengthAdjust="spacingAndGlyphs" textLength="59" x="482.5" y="308.2842">Validator</text><rect fill="#FEFECE" filter="url(#fe5x5gi)" height="30.2969" style="stroke: #A80036; stroke-width: 1.5;" width="79" x="652.5" y="347.5859"/><text fill="#000000" font-family="sans-serif" font-size="14" lengthAdjust="spacingAndGlyphs" textLength="65" x="659.5" y="367.5811">Keyboard</text><rect fill="#FEFECE" filter="url(#fe5x5gi)" height="30.2969" style="stroke: #A80036; stroke-width: 1.5;" width="79" x="828.5" y="406.8828"/><text fill="#000000" font-family="sans-serif" font-size="14" lengthAdjust="spacingAndGlyphs" textLength="65" x="835.5" y="426.8779">HangMan</text><rect fill="#FFFFFF" filter="url(#fe5x5gi)" height="297" style="stroke: #000000; stroke-width: 2.0;" width="918.5" x="13" y="1080.4375"/><rect fill="#FFFFFF" filter="url(#fe5x5gi)" height="46.2656" style="stroke: #000000; stroke-width: 2.0;" width="367.5" x="23" y="1133.7031"/><rect fill="#FFFFFF" height="147.3359" style="stroke: none; stroke-width: 1.0;" width="918.5" x="13" y="1230.1016"/><rect fill="#FFFFFF" filter="url(#fe5x5gi)" height="46.2656" style="stroke: #000000; stroke-width: 2.0;" width="898.5" x="23" y="1281.0391"/><line style="stroke: #A80036; stroke-width: 1.0; stroke-dasharray: 5.0,5.0;" x1="64" x2="64" y1="86.2969" y2="1489.7031"/><line style="stroke: #A80036; stroke-width: 1.0; stroke-dasharray: 5.0,5.0;" x1="168.5" x2="168.5" y1="172.0781" y2="1489.7031"/><line style="stroke: #A80036; stroke-width: 1.0; stroke-dasharray: 5.0,5.0;" x1="337.5" x2="337.5" y1="217.375" y2="1489.7031"/><line style="stroke: #A80036; stroke-width: 1.0; stroke-dasharray: 5.0,5.0;" x1="513.5" x2="513.5" y1="320.9375" y2="1489.7031"/><line style="stroke: #A80036; stroke-width: 1.0; stroke-dasharray: 5.0,5.0;" x1="693.5" x2="693.5" y1="380.2344" y2="1489.7031"/><line style="stroke: #A80036; stroke-width: 1.0; stroke-dasharray: 5.0,5.0;" x1="869.5" x2="869.5" y1="439.5313" y2="1489.7031"/><text fill="#000000" font-family="sans-serif" font-size="14" lengthAdjust="spacingAndGlyphs" textLength="57" x="33" y="82.9951">Browser</text><ellipse cx="64.5" cy="13" fill="#FEFECE" filter="url(#fe5x5gi)" rx="8" ry="8" style="stroke: #A80036; stroke-width: 2.0;"/><path d="M64.5,21 L64.5,48 M51.5,29 L77.5,29 M64.5,48 L51.5,63 M64.5,48 L77.5,63 " fill="#FEFECE" filter="url(#fe5x5gi)" style="stroke: #A80036; stroke-width: 2.0;"/><text fill="#000000" font-family="sans-serif" font-size="14" lengthAdjust="spacingAndGlyphs" textLength="57" x="33" y="1501.6982">Browser</text><ellipse cx="64.5" cy="1515" fill="#FEFECE" filter="url(#fe5x5gi)" rx="8" ry="8" style="stroke: #A80036; stroke-width: 2.0;"/><path d="M64.5,1523 L64.5,1550 M51.5,1531 L77.5,1531 M64.5,1550 L51.5,1565 M64.5,1550 L77.5,1565 " fill="#FEFECE" filter="url(#fe5x5gi)" style="stroke: #A80036; stroke-width: 2.0;"/><rect fill="#FEFECE" filter="url(#fe5x5gi)" height="30.2969" style="stroke: #A80036; stroke-width: 1.5;" width="55" x="139.5" y="1488.7031"/><text fill="#000000" font-family="sans-serif" font-size="14" lengthAdjust="spacingAndGlyphs" textLength="41" x="146.5" y="1508.6982">Game</text><rect fill="#FEFECE" filter="url(#fe5x5gi)" height="30.2969" style="stroke: #A80036; stroke-width: 1.5;" width="81" x="295.5" y="1488.7031"/><text fill="#000000" font-family="sans-serif" font-size="14" lengthAdjust="spacingAndGlyphs" textLength="67" x="302.5" y="1508.6982">Password</text><rect fill="#FEFECE" filter="url(#fe5x5gi)" height="30.2969" style="stroke: #A80036; stroke-width: 1.5;" width="73" x="475.5" y="1488.7031"/><text fill="#000000" font-family="sans-serif" font-size="14" lengthAdjust="spacingAndGlyphs" textLength="59" x="482.5" y="1508.6982">Validator</text><rect fill="#FEFECE" filter="url(#fe5x5gi)" height="30.2969" style="stroke: #A80036; stroke-width: 1.5;" width="79" x="652.5" y="1488.7031"/><text fill="#000000" font-family="sans-serif" font-size="14" lengthAdjust="spacingAndGlyphs" textLength="65" x="659.5" y="1508.6982">Keyboard</text><rect fill="#FEFECE" filter="url(#fe5x5gi)" height="30.2969" style="stroke: #A80036; stroke-width: 1.5;" width="79" x="828.5" y="1488.7031"/><text fill="#000000" font-family="sans-serif" font-size="14" lengthAdjust="spacingAndGlyphs" textLength="65" x="835.5" y="1508.6982">HangMan</text><rect fill="#EEEEEE" filter="url(#fe5x5gi)" height="3" style="stroke: #EEEEEE; stroke-width: 1.0;" width="938.5" x="3" y="116.8633"/><line style="stroke: #000000; stroke-width: 1.0;" x1="3" x2="941.5" y1="116.8633" y2="116.8633"/><line style="stroke: #000000; stroke-width: 1.0;" x1="3" x2="941.5" y1="119.8633" y2="119.8633"/><rect fill="#EEEEEE" filter="url(#fe5x5gi)" height="23.1328" style="stroke: #000000; stroke-width: 2.0;" width="108" x="418.25" y="106.2969"/><text fill="#000000" font-family="sans-serif" font-size="13" font-weight="bold" lengthAdjust="spacingAndGlyphs" textLength="89" x="424.25" y="122.3638">Initialization</text><polygon fill="#A80036" points="127.5,156.4297,137.5,160.4297,127.5,164.4297,131.5,160.4297" style="stroke: #A80036; stroke-width: 1.0;"/><line style="stroke: #A80036; stroke-width: 1.0;" x1="64.5" x2="133.5" y1="160.4297" y2="160.4297"/><text fill="#000000" font-family="sans-serif" font-size="13" lengthAdjust="spacingAndGlyphs" textLength="51" x="71.5" y="155.4966">create()</text><rect fill="#FEFECE" filter="url(#fe5x5gi)" height="30.2969" style="stroke: #A80036; stroke-width: 1.5;" width="55" x="139.5" y="139.4297"/><text fill="#000000" font-family="sans-serif" font-size="14" lengthAdjust="spacingAndGlyphs" textLength="41" x="146.5" y="159.4248">Game</text><polygon fill="#A80036" points="283.5,201.7266,293.5,205.7266,283.5,209.7266,287.5,205.7266" style="stroke: #A80036; stroke-width: 1.0;"/><line style="stroke: #A80036; stroke-width: 1.0;" x1="169" x2="289.5" y1="205.7266" y2="205.7266"/><text fill="#000000" font-family="sans-serif" font-size="13" lengthAdjust="spacingAndGlyphs" textLength="51" x="176" y="200.7935">create()</text><rect fill="#FEFECE" filter="url(#fe5x5gi)" height="30.2969" style="stroke: #A80036; stroke-width: 1.5;" width="81" x="295.5" y="184.7266"/><text fill="#000000" font-family="sans-serif" font-size="14" lengthAdjust="spacingAndGlyphs" textLength="67" x="302.5" y="204.7217">Password</text><polygon fill="#A80036" points="326,247.0234,336,251.0234,326,255.0234,330,251.0234" style="stroke: #A80036; stroke-width: 1.0;"/><line style="stroke: #A80036; stroke-width: 1.0;" x1="169" x2="332" y1="251.0234" y2="251.0234"/><text fill="#000000" font-family="sans-serif" font-size="13" lengthAdjust="spacingAndGlyphs" textLength="108" x="176" y="246.0903">selectPassword()</text><polygon fill="#A80036" points="180,276.1563,170,280.1563,180,284.1563,176,280.1563" style="stroke: #A80036; stroke-width: 1.0;"/><line style="stroke: #A80036; stroke-width: 1.0; stroke-dasharray: 2.0,2.0;" x1="174" x2="337" y1="280.1563" y2="280.1563"/><text fill="#000000" font-family="sans-serif" font-size="13" lengthAdjust="spacingAndGlyphs" textLength="60" x="186" y="275.2231">password</text><polygon fill="#A80036" points="463.5,305.2891,473.5,309.2891,463.5,313.2891,467.5,309.2891" style="stroke: #A80036; stroke-width: 1.0;"/><line style="stroke: #A80036; stroke-width: 1.0;" x1="169" x2="469.5" y1="309.2891" y2="309.2891"/><text fill="#000000" font-family="sans-serif" font-size="13" lengthAdjust="spacingAndGlyphs" textLength="111" x="176" y="304.356">create(password)</text><rect fill="#FEFECE" filter="url(#fe5x5gi)" height="30.2969" style="stroke: #A80036; stroke-width: 1.5;" width="73" x="475.5" y="288.2891"/><text fill="#000000" font-family="sans-serif" font-size="14" lengthAdjust="spacingAndGlyphs" textLength="59" x="482.5" y="308.2842">Validator</text><polygon fill="#A80036" points="180,335.5859,170,339.5859,180,343.5859,176,339.5859" style="stroke: #A80036; stroke-width: 1.0;"/><line style="stroke: #A80036; stroke-width: 1.0; stroke-dasharray: 2.0,2.0;" x1="174" x2="513" y1="339.5859" y2="339.5859"/><polygon fill="#A80036" points="640.5,364.5859,650.5,368.5859,640.5,372.5859,644.5,368.5859" style="stroke: #A80036; stroke-width: 1.0;"/><line style="stroke: #A80036; stroke-width: 1.0;" x1="169" x2="646.5" y1="368.5859" y2="368.5859"/><text fill="#000000" font-family="sans-serif" font-size="13" lengthAdjust="spacingAndGlyphs" textLength="106" x="176" y="363.6528">create(validator)</text><rect fill="#FEFECE" filter="url(#fe5x5gi)" height="30.2969" style="stroke: #A80036; stroke-width: 1.5;" width="79" x="652.5" y="347.5859"/><text fill="#000000" font-family="sans-serif" font-size="14" lengthAdjust="spacingAndGlyphs" textLength="65" x="659.5" y="367.5811">Keyboard</text><polygon fill="#A80036" points="180,394.8828,170,398.8828,180,402.8828,176,398.8828" style="stroke: #A80036; stroke-width: 1.0;"/><line style="stroke: #A80036; stroke-width: 1.0; stroke-dasharray: 2.0,2.0;" x1="174" x2="693" y1="398.8828" y2="398.8828"/><polygon fill="#A80036" points="816.5,423.8828,826.5,427.8828,816.5,431.8828,820.5,427.8828" style="stroke: #A80036; stroke-width: 1.0;"/><line style="stroke: #A80036; stroke-width: 1.0;" x1="169" x2="822.5" y1="427.8828" y2="427.8828"/><text fill="#000000" font-family="sans-serif" font-size="13" lengthAdjust="spacingAndGlyphs" textLength="51" x="176" y="422.9497">create()</text><rect fill="#FEFECE" filter="url(#fe5x5gi)" height="30.2969" style="stroke: #A80036; stroke-width: 1.5;" width="79" x="828.5" y="406.8828"/><text fill="#000000" font-family="sans-serif" font-size="14" lengthAdjust="spacingAndGlyphs" textLength="65" x="835.5" y="426.8779">HangMan</text><line style="stroke: #A80036; stroke-width: 1.0;" x1="169" x2="211" y1="473.3125" y2="473.3125"/><line style="stroke: #A80036; stroke-width: 1.0;" x1="211" x2="211" y1="473.3125" y2="486.3125"/><line style="stroke: #A80036; stroke-width: 1.0;" x1="170" x2="211" y1="486.3125" y2="486.3125"/><polygon fill="#A80036" points="180,482.3125,170,486.3125,180,490.3125,176,486.3125" style="stroke: #A80036; stroke-width: 1.0;"/><text fill="#000000" font-family="sans-serif" font-size="13" lengthAdjust="spacingAndGlyphs" textLength="71" x="176" y="468.2466">subscribe()</text><rect fill="#FFFFFF" filter="url(#fe5x5gi)" height="40.2656" style="stroke: #000000; stroke-width: 2.0;" width="774" x="136.5" y="494.3125"/><polygon fill="#EEEEEE" points="136.5,494.3125,202.5,494.3125,202.5,501.3125,192.5,511.3125,136.5,511.3125,136.5,494.3125" style="stroke: #000000; stroke-width: 2.0;"/><text fill="#000000" font-family="sans-serif" font-size="13" font-weight="bold" lengthAdjust="spacingAndGlyphs" textLength="21" x="149.5" y="508.3794">ref</text><text fill="#000000" font-family="sans-serif" font-size="13" lengthAdjust="spacingAndGlyphs" textLength="118" x="466.5" y="527.3794">Game::subscribe()</text><line style="stroke: #A80036; stroke-width: 1.0;" x1="169" x2="211" y1="560.7109" y2="560.7109"/><line style="stroke: #A80036; stroke-width: 1.0;" x1="211" x2="211" y1="560.7109" y2="573.7109"/><line style="stroke: #A80036; stroke-width: 1.0;" x1="170" x2="211" y1="573.7109" y2="573.7109"/><polygon fill="#A80036" points="180,569.7109,170,573.7109,180,577.7109,176,573.7109" style="stroke: #A80036; stroke-width: 1.0;"/><text fill="#000000" font-family="sans-serif" font-size="13" lengthAdjust="spacingAndGlyphs" textLength="40" x="176" y="555.645">draw()</text><rect fill="#FFFFFF" filter="url(#fe5x5gi)" height="40.2656" style="stroke: #000000; stroke-width: 2.0;" width="774" x="136.5" y="581.7109"/><polygon fill="#EEEEEE" points="136.5,581.7109,202.5,581.7109,202.5,588.7109,192.5,598.7109,136.5,598.7109,136.5,581.7109" style="stroke: #000000; stroke-width: 2.0;"/><text fill="#000000" font-family="sans-serif" font-size="13" font-weight="bold" lengthAdjust="spacingAndGlyphs" textLength="21" x="149.5" y="595.7778">ref</text><text fill="#000000" font-family="sans-serif" font-size="13" lengthAdjust="spacingAndGlyphs" textLength="87" x="482" y="614.7778">Game::draw()</text><polygon fill="#A80036" points="75.5,628.9766,65.5,632.9766,75.5,636.9766,71.5,632.9766" style="stroke: #A80036; stroke-width: 1.0;"/><line style="stroke: #A80036; stroke-width: 1.0; stroke-dasharray: 2.0,2.0;" x1="69.5" x2="168" y1="632.9766" y2="632.9766"/><rect fill="#EEEEEE" filter="url(#fe5x5gi)" height="3" style="stroke: #EEEEEE; stroke-width: 1.0;" width="938.5" x="3" y="661.543"/><line style="stroke: #000000; stroke-width: 1.0;" x1="3" x2="941.5" y1="661.543" y2="661.543"/><line style="stroke: #000000; stroke-width: 1.0;" x1="3" x2="941.5" y1="664.543" y2="664.543"/><rect fill="#EEEEEE" filter="url(#fe5x5gi)" height="23.1328" style="stroke: #000000; stroke-width: 2.0;" width="156" x="394.25" y="650.9766"/><text fill="#000000" font-family="sans-serif" font-size="13" font-weight="bold" lengthAdjust="spacingAndGlyphs" textLength="137" x="400.25" y="667.0435">Game::subscribe()</text><polygon fill="#A80036" points="502,701.1094,512,705.1094,502,709.1094,506,705.1094" style="stroke: #A80036; stroke-width: 1.0;"/><line style="stroke: #A80036; stroke-width: 1.0;" x1="169" x2="508" y1="705.1094" y2="705.1094"/><text fill="#000000" font-family="sans-serif" font-size="13" lengthAdjust="spacingAndGlyphs" textLength="283" x="176" y="700.1763">subscribe(Action::Ok, Password::showFigure)</text><polygon fill="#A80036" points="502,730.2422,512,734.2422,502,738.2422,506,734.2422" style="stroke: #A80036; stroke-width: 1.0;"/><line style="stroke: #A80036; stroke-width: 1.0;" x1="169" x2="508" y1="734.2422" y2="734.2422"/><text fill="#000000" font-family="sans-serif" font-size="13" lengthAdjust="spacingAndGlyphs" textLength="321" x="176" y="729.3091">subscribe(Action::Nok, HangMan::drawNextImage)</text><polygon fill="#A80036" points="180,744.375,170,748.375,180,752.375,176,748.375" style="stroke: #A80036; stroke-width: 1.0;"/><line style="stroke: #A80036; stroke-width: 1.0; stroke-dasharray: 2.0,2.0;" x1="174" x2="513" y1="748.375" y2="748.375"/><rect fill="#EEEEEE" filter="url(#fe5x5gi)" height="3" style="stroke: #EEEEEE; stroke-width: 1.0;" width="938.5" x="3" y="776.9414"/><line style="stroke: #000000; stroke-width: 1.0;" x1="3" x2="941.5" y1="776.9414" y2="776.9414"/><line style="stroke: #000000; stroke-width: 1.0;" x1="3" x2="941.5" y1="779.9414" y2="779.9414"/><rect fill="#EEEEEE" filter="url(#fe5x5gi)" height="23.1328" style="stroke: #000000; stroke-width: 2.0;" width="121" x="411.75" y="766.375"/><text fill="#000000" font-family="sans-serif" font-size="13" font-weight="bold" lengthAdjust="spacingAndGlyphs" textLength="102" x="417.75" y="782.4419">Game::draw()</text><polygon fill="#A80036" points="326,816.5078,336,820.5078,326,824.5078,330,820.5078" style="stroke: #A80036; stroke-width: 1.0;"/><line style="stroke: #A80036; stroke-width: 1.0;" x1="169" x2="332" y1="820.5078" y2="820.5078"/><text fill="#000000" font-family="sans-serif" font-size="13" lengthAdjust="spacingAndGlyphs" textLength="145" x="176" y="815.5747">drawHiddenPassword()</text><polygon fill="#A80036" points="180,830.6406,170,834.6406,180,838.6406,176,834.6406" style="stroke: #A80036; stroke-width: 1.0;"/><line style="stroke: #A80036; stroke-width: 1.0; stroke-dasharray: 2.0,2.0;" x1="174" x2="337" y1="834.6406" y2="834.6406"/><polygon fill="#A80036" points="682,859.6406,692,863.6406,682,867.6406,686,863.6406" style="stroke: #A80036; stroke-width: 1.0;"/><line style="stroke: #A80036; stroke-width: 1.0;" x1="169" x2="688" y1="863.6406" y2="863.6406"/><text fill="#000000" font-family="sans-serif" font-size="13" lengthAdjust="spacingAndGlyphs" textLength="70" x="176" y="858.7075">drawKeys()</text><polygon fill="#A80036" points="75.5,888.7734,65.5,892.7734,75.5,896.7734,71.5,892.7734" style="stroke: #A80036; stroke-width: 1.0;"/><line style="stroke: #A80036; stroke-width: 1.0;" x1="69.5" x2="693" y1="892.7734" y2="892.7734"/><text fill="#000000" font-family="sans-serif" font-size="13" lengthAdjust="spacingAndGlyphs" textLength="214" x="81.5" y="887.8403">onClick(Keyboard::onClick(figure))</text><polygon fill="#A80036" points="682,902.9063,692,906.9063,682,910.9063,686,906.9063" style="stroke: #A80036; stroke-width: 1.0;"/><line style="stroke: #A80036; stroke-width: 1.0; stroke-dasharray: 2.0,2.0;" x1="64.5" x2="688" y1="906.9063" y2="906.9063"/><polygon fill="#A80036" points="180,916.9063,170,920.9063,180,924.9063,176,920.9063" style="stroke: #A80036; stroke-width: 1.0;"/><line style="stroke: #A80036; stroke-width: 1.0; stroke-dasharray: 2.0,2.0;" x1="174" x2="693" y1="920.9063" y2="920.9063"/><polygon fill="#A80036" points="858,945.9063,868,949.9063,858,953.9063,862,949.9063" style="stroke: #A80036; stroke-width: 1.0;"/><line style="stroke: #A80036; stroke-width: 1.0;" x1="169" x2="864" y1="949.9063" y2="949.9063"/><text fill="#000000" font-family="sans-serif" font-size="13" lengthAdjust="spacingAndGlyphs" textLength="110" x="176" y="944.9731">drawNextImage()</text><polygon fill="#A80036" points="180,960.0391,170,964.0391,180,968.0391,176,964.0391" style="stroke: #A80036; stroke-width: 1.0;"/><line style="stroke: #A80036; stroke-width: 1.0; stroke-dasharray: 2.0,2.0;" x1="174" x2="869" y1="964.0391" y2="964.0391"/><rect fill="#EEEEEE" filter="url(#fe5x5gi)" height="3" style="stroke: #EEEEEE; stroke-width: 1.0;" width="938.5" x="3" y="992.6055"/><line style="stroke: #000000; stroke-width: 1.0;" x1="3" x2="941.5" y1="992.6055" y2="992.6055"/><line style="stroke: #000000; stroke-width: 1.0;" x1="3" x2="941.5" y1="995.6055" y2="995.6055"/><rect fill="#EEEEEE" filter="url(#fe5x5gi)" height="23.1328" style="stroke: #000000; stroke-width: 2.0;" width="154" x="395.25" y="982.0391"/><text fill="#000000" font-family="sans-serif" font-size="13" font-weight="bold" lengthAdjust="spacingAndGlyphs" textLength="135" x="401.25" y="998.106">Browser::onClick()</text><polygon fill="#A80036" points="682,1032.1719,692,1036.1719,682,1040.1719,686,1036.1719" style="stroke: #A80036; stroke-width: 1.0;"/><line style="stroke: #A80036; stroke-width: 1.0;" x1="64.5" x2="688" y1="1036.1719" y2="1036.1719"/><text fill="#000000" font-family="sans-serif" font-size="13" lengthAdjust="spacingAndGlyphs" textLength="91" x="71.5" y="1031.2388">onClick(figure)</text><polygon fill="#A80036" points="525,1061.3047,515,1065.3047,525,1069.3047,521,1065.3047" style="stroke: #A80036; stroke-width: 1.0;"/><line style="stroke: #A80036; stroke-width: 1.0;" x1="519" x2="693" y1="1065.3047" y2="1065.3047"/><text fill="#000000" font-family="sans-serif" font-size="13" lengthAdjust="spacingAndGlyphs" textLength="156" x="531" y="1060.3716">validatePassword(figure)</text><rect fill="none" height="297" style="stroke: #000000; stroke-width: 2.0;" width="918.5" x="13" y="1080.4375"/><polygon fill="#EEEEEE" points="13,1080.4375,77,1080.4375,77,1087.4375,67,1097.4375,13,1097.4375,13,1080.4375" style="stroke: #000000; stroke-width: 2.0;"/><text fill="#000000" font-family="sans-serif" font-size="13" font-weight="bold" lengthAdjust="spacingAndGlyphs" textLength="19" x="28" y="1093.5044">alt</text><text fill="#000000" font-family="sans-serif" font-size="11" font-weight="bold" lengthAdjust="spacingAndGlyphs" textLength="97" x="92" y="1092.6479">[validation OK]</text><polygon fill="#A80036" points="349,1114.5703,339,1118.5703,349,1122.5703,345,1118.5703" style="stroke: #A80036; stroke-width: 1.0;"/><line style="stroke: #A80036; stroke-width: 1.0;" x1="343" x2="513" y1="1118.5703" y2="1118.5703"/><text fill="#000000" font-family="sans-serif" font-size="13" lengthAdjust="spacingAndGlyphs" textLength="117" x="355" y="1113.6372">showFigure(figure)</text><rect fill="none" height="46.2656" style="stroke: #000000; stroke-width: 2.0;" width="367.5" x="23" y="1133.7031"/><polygon fill="#EEEEEE" points="23,1133.7031,87,1133.7031,87,1140.7031,77,1150.7031,23,1150.7031,23,1133.7031" style="stroke: #000000; stroke-width: 2.0;"/><text fill="#000000" font-family="sans-serif" font-size="13" font-weight="bold" lengthAdjust="spacingAndGlyphs" textLength="19" x="38" y="1146.77">alt</text><text fill="#000000" font-family="sans-serif" font-size="11" font-weight="bold" lengthAdjust="spacingAndGlyphs" textLength="130" x="102" y="1145.9136">[password guessed]</text><polygon fill="#A80036" points="75.5,1167.8359,65.5,1171.8359,75.5,1175.8359,71.5,1171.8359" style="stroke: #A80036; stroke-width: 1.0;"/><line style="stroke: #A80036; stroke-width: 1.0;" x1="69.5" x2="337" y1="1171.8359" y2="1171.8359"/><text fill="#000000" font-family="sans-serif" font-size="13" lengthAdjust="spacingAndGlyphs" textLength="62" x="81.5" y="1166.9028">show(win)</text><polygon fill="#A80036" points="502,1188.9688,512,1192.9688,502,1196.9688,506,1192.9688" style="stroke: #A80036; stroke-width: 1.0;"/><line style="stroke: #A80036; stroke-width: 1.0; stroke-dasharray: 2.0,2.0;" x1="338" x2="508" y1="1192.9688" y2="1192.9688"/><polygon fill="#A80036" points="682,1217.9688,692,1221.9688,682,1225.9688,686,1221.9688" style="stroke: #A80036; stroke-width: 1.0;"/><line style="stroke: #A80036; stroke-width: 1.0; stroke-dasharray: 2.0,2.0;" x1="514" x2="688" y1="1221.9688" y2="1221.9688"/><text fill="#000000" font-family="sans-serif" font-size="13" lengthAdjust="spacingAndGlyphs" textLength="26" x="521" y="1217.0356">true</text><line style="stroke: #000000; stroke-width: 1.0; stroke-dasharray: 2.0,2.0;" x1="13" x2="931.5" y1="1231.1016" y2="1231.1016"/><text fill="#000000" font-family="sans-serif" font-size="11" font-weight="bold" lengthAdjust="spacingAndGlyphs" textLength="106" x="18" y="1241.312">[validation NOK]</text><polygon fill="#A80036" points="858,1261.9063,868,1265.9063,858,1269.9063,862,1265.9063" style="stroke: #A80036; stroke-width: 1.0;"/><line style="stroke: #A80036; stroke-width: 1.0;" x1="514" x2="864" y1="1265.9063" y2="1265.9063"/><text fill="#000000" font-family="sans-serif" font-size="13" lengthAdjust="spacingAndGlyphs" textLength="110" x="521" y="1260.9731">drawNextImage()</text><rect fill="none" height="46.2656" style="stroke: #000000; stroke-width: 2.0;" width="898.5" x="23" y="1281.0391"/><polygon fill="#EEEEEE" points="23,1281.0391,87,1281.0391,87,1288.0391,77,1298.0391,23,1298.0391,23,1281.0391" style="stroke: #000000; stroke-width: 2.0;"/><text fill="#000000" font-family="sans-serif" font-size="13" font-weight="bold" lengthAdjust="spacingAndGlyphs" textLength="19" x="38" y="1294.106">alt</text><text fill="#000000" font-family="sans-serif" font-size="11" font-weight="bold" lengthAdjust="spacingAndGlyphs" textLength="73" x="102" y="1293.2495">[game lost]</text><polygon fill="#A80036" points="75.5,1315.1719,65.5,1319.1719,75.5,1323.1719,71.5,1319.1719" style="stroke: #A80036; stroke-width: 1.0;"/><line style="stroke: #A80036; stroke-width: 1.0;" x1="69.5" x2="869" y1="1319.1719" y2="1319.1719"/><text fill="#000000" font-family="sans-serif" font-size="13" lengthAdjust="spacingAndGlyphs" textLength="76" x="81.5" y="1314.2388">show(failed)</text><polygon fill="#A80036" points="525,1336.3047,515,1340.3047,525,1344.3047,521,1340.3047" style="stroke: #A80036; stroke-width: 1.0;"/><line style="stroke: #A80036; stroke-width: 1.0; stroke-dasharray: 2.0,2.0;" x1="519" x2="869" y1="1340.3047" y2="1340.3047"/><polygon fill="#A80036" points="682,1365.3047,692,1369.3047,682,1373.3047,686,1369.3047" style="stroke: #A80036; stroke-width: 1.0;"/><line style="stroke: #A80036; stroke-width: 1.0; stroke-dasharray: 2.0,2.0;" x1="514" x2="688" y1="1369.3047" y2="1369.3047"/><text fill="#000000" font-family="sans-serif" font-size="13" lengthAdjust="spacingAndGlyphs" textLength="30" x="521" y="1364.3716">false</text><polygon fill="#FBFB77" filter="url(#fe5x5gi)" points="699,1389.4375,699,1414.4375,855,1414.4375,855,1399.4375,845,1389.4375,699,1389.4375" style="stroke: #A80036; stroke-width: 1.0;"/><line style="stroke: #A80036; stroke-width: 1.0;" x1="845" x2="845" y1="1389.4375" y2="1399.4375"/><line style="stroke: #A80036; stroke-width: 1.0;" x1="855" x2="845" y1="1399.4375" y2="1399.4375"/><text fill="#000000" font-family="sans-serif" font-size="13" lengthAdjust="spacingAndGlyphs" textLength="135" x="705" y="1406.5044">result = {true, false}</text><line style="stroke: #A80036; stroke-width: 1.0;" x1="694" x2="736" y1="1444.7031" y2="1444.7031"/><line style="stroke: #A80036; stroke-width: 1.0;" x1="736" x2="736" y1="1444.7031" y2="1457.7031"/><line style="stroke: #A80036; stroke-width: 1.0;" x1="695" x2="736" y1="1457.7031" y2="1457.7031"/><polygon fill="#A80036" points="705,1453.7031,695,1457.7031,705,1461.7031,701,1457.7031" style="stroke: #A80036; stroke-width: 1.0;"/><text fill="#000000" font-family="sans-serif" font-size="13" lengthAdjust="spacingAndGlyphs" textLength="162" x="701" y="1439.6372">markFigure(figure, result)</text><polygon fill="#A80036" points="75.5,1467.7031,65.5,1471.7031,75.5,1475.7031,71.5,1471.7031" style="stroke: #A80036; stroke-width: 1.0;"/><line style="stroke: #A80036; stroke-width: 1.0; stroke-dasharray: 2.0,2.0;" x1="69.5" x2="693" y1="1471.7031" y2="1471.7031"/></g></svg>